<svg width="123" height="69" viewBox="0 0 123 69" fill="none" xmlns="http://www.w3.org/2000/svg">
<path d="M15.8847 38.8754C15.8847 42.0265 13.7278 44.1492 8.95324 44.1492H0V24.6172H8.68779C12.8331 24.6172 15.0567 26.4979 15.0567 29.7038C15.0567 31.991 13.7295 33.5837 11.6414 34.1133C14.3912 34.7074 15.9005 36.5454 15.9005 38.8754H15.8847ZM5.3704 32.7403H7.46103C8.85364 32.7403 9.71494 32.2107 9.71494 30.8835C9.71494 29.5563 8.85364 29.0267 7.46103 29.0267H5.3704V32.7403ZM5.3704 39.673H8.18982C9.55038 39.673 10.3121 39.0759 10.3121 37.9474C10.3121 36.819 9.54995 36.2236 8.18982 36.2236H5.3704V39.673V39.673Z" fill="white"/>
<path d="M27.6719 41.2962C27.2406 43.3189 25.6809 44.5465 23.0632 44.5465C20.2759 44.5465 18.3203 42.8226 18.3203 39.2069V28.8286H23.6907V38.0814C23.6907 39.6202 24.1182 40.5179 25.3577 40.5345C26.7499 40.5345 27.6129 39.2736 27.6129 36.7871V28.8281H32.9859V44.1498H28.1772L27.6719 41.2962Z" fill="white"/>
<path d="M39.6569 38.8765C39.9583 40.1588 40.9392 40.8 42.0933 40.8C43.0555 40.8 43.7168 40.4683 43.7168 39.8058C43.7168 39.1432 43.1551 38.8462 42.0604 38.6136L40.0031 38.1811C37.2209 37.5848 35.7608 36.1584 35.7608 33.6386C35.7608 29.9237 38.9439 28.4648 42.3592 28.4648C46.0399 28.4648 48.2579 30.0036 48.8136 32.841L43.9382 33.5677C43.7698 32.7059 43.2415 32.2097 42.2126 32.2097C41.4492 32.2097 40.9183 32.5734 40.9183 33.1719C40.9183 33.7703 41.3457 34.0695 42.1579 34.1994L44.2126 34.5841C47.5971 35.1398 49.0427 36.9778 49.0427 39.5604C49.0427 43.1723 45.8903 44.5658 42.11 44.5658C38.6281 44.5658 36.3079 43.3053 35.4453 40.5863L39.6569 38.8765Z" fill="white"/>
<path d="M53.9168 22.1954C55.5094 22.1954 56.8661 23.3068 56.8661 25.0131C56.8661 26.7374 55.5081 27.8338 53.9155 27.8338C52.3254 27.8338 50.9648 26.7379 50.9648 25.0131C50.9661 23.294 52.3194 22.1826 53.901 22.1954H53.9168ZM56.6045 28.8268V44.1485H51.2645V28.8268H56.6045Z" fill="white"/>
<path d="M64.9783 31.7792C65.7716 29.4933 67.5639 28.4648 69.8507 28.4648C72.2068 28.4648 74.3389 29.8754 74.3389 33.371V44.1507H68.9988V35.427C68.9988 33.8699 68.5342 32.9073 67.1736 32.9073C66.0148 32.9073 65.0193 33.6053 65.0193 35.9592V44.1503H59.6797V28.8286H64.4884L64.9783 31.7792Z" fill="white"/>
<path d="M86.5553 38.6136L91.0016 40.005C90.1364 43.2865 87.4175 44.547 84.3672 44.547C79.8235 44.547 76.5078 41.6613 76.5078 36.6547C76.5078 31.4809 79.4251 28.4648 84.2343 28.4648C88.778 28.4648 91.1161 31.3715 91.1161 35.6288C91.1161 36.1845 91.1161 36.8539 91.0499 37.5519H81.7C81.7996 39.4326 82.7258 40.4585 84.3074 40.4683C85.4294 40.479 86.1719 39.9661 86.5566 38.6136H86.5553ZM86.027 34.8367C86.027 33.5095 85.5624 32.3507 84.0693 32.3507C82.7776 32.3507 81.9479 33.4099 81.8154 34.8367H86.027Z" fill="white"/>
<path d="M97.2276 38.8765C97.5263 40.1588 98.5099 40.8 99.664 40.8C100.627 40.8 101.29 40.4683 101.29 39.8058C101.29 39.1432 100.726 38.8462 99.6311 38.6136L97.5759 38.1811C94.7886 37.5848 93.331 36.1584 93.331 33.6386C93.331 29.9237 96.5137 28.4648 99.9294 28.4648C103.61 28.4648 105.828 30.0036 106.384 32.841L101.508 33.5677C101.343 32.7059 100.812 32.2097 99.7832 32.2097C99.0198 32.2097 98.4915 32.5734 98.4915 33.1719C98.4915 33.7703 98.9189 34.0695 99.7311 34.1994L101.788 34.5841C105.17 35.1398 106.575 36.9778 106.575 39.5604C106.575 43.1723 103.425 44.5658 99.6452 44.5658C96.1632 44.5658 93.8431 43.3053 92.9805 40.5863L97.2276 38.8765Z" fill="white"/>
<path d="M112.637 38.8765C112.936 40.1588 113.919 40.8 115.073 40.8C116.033 40.8 116.697 40.4683 116.697 39.8058C116.697 39.1432 116.133 38.8462 115.038 38.6136L112.983 38.1811C110.198 37.5848 108.738 36.1584 108.738 33.6386C108.738 29.9237 111.921 28.4648 115.336 28.4648C119.017 28.4648 121.235 30.0036 121.791 32.841L116.915 33.5677C116.749 32.7059 116.219 32.2097 115.193 32.2097C114.429 32.2097 113.899 32.5734 113.899 33.1719C113.899 33.7703 114.326 34.0695 115.138 34.1994L117.193 34.5841C120.575 35.1398 122.023 36.9778 122.023 39.5604C122.023 43.1723 118.873 44.5658 115.09 44.5658C111.609 44.5658 109.288 43.3053 108.426 40.5863L112.637 38.8765Z" fill="white"/>
<path d="M10.943 67.8029C10.3125 67.272 10.08 66.5419 9.84788 65.6139L9.25074 63.1916C8.92032 61.8007 8.3561 61.5352 7.09642 61.5352H5.40417V67.8029H0V48.2695H8.35567C12.7331 48.2695 15.7504 49.9793 15.7504 54.4046C15.7504 57.4895 13.7594 59.0159 11.6051 59.3771C13.3944 59.7618 14.298 60.5312 14.7682 62.241L15.6974 65.5913C15.9287 66.4461 16.2104 67.1301 16.8943 67.8131H10.943V67.8029ZM5.40374 57.1561H7.49437C9.38453 57.1561 10.2129 56.3944 10.2129 55.0031C10.2129 53.6096 9.38453 52.8449 7.49437 52.8449H5.40374V57.1561V57.1561Z" fill="white"/>
<path d="M27.2632 62.2634L31.7069 63.6573C30.8439 66.9388 28.1258 68.1998 25.0743 68.1998C20.5305 68.1998 17.2148 65.3166 17.2148 60.307C17.2148 55.1332 20.1339 52.1172 24.9413 52.1172C29.4872 52.1172 31.8232 55.0238 31.8232 59.2811C31.8232 59.8368 31.8232 60.5062 31.7569 61.2046H22.3891C22.4886 63.0854 23.4149 64.1113 24.9965 64.1207C26.1352 64.1147 26.8866 63.6445 27.2713 62.2634H27.2632ZM26.7336 58.4724C26.7336 57.1452 26.2677 55.9864 24.7759 55.9864C23.4842 55.9864 22.6549 57.046 22.522 58.4724H26.7336Z" fill="white"/>
<path d="M32.5703 52.4844H38.2087L39.9672 58.6528C40.5951 60.8755 40.9503 62.4143 40.9503 62.4024H41.0166C41.0166 62.4024 41.3483 60.8734 42.045 58.6528L44.0361 52.4844H49.2406L43.6685 67.8061H37.9104L32.5703 52.4844Z" fill="white"/>
<path d="M53.5978 45.8477C55.193 45.8477 56.5472 46.959 56.5472 48.6684C56.5472 50.3777 55.1917 51.4891 53.5965 51.4891C52.0064 51.4891 50.6484 50.3931 50.6484 48.6684C50.6484 46.9436 52.0077 45.8635 53.5995 45.8477H53.5978ZM56.2886 52.4816V67.8033H50.9459V52.4816H56.2886V52.4816Z" fill="white"/>
<path d="M68.7498 62.2634L73.1965 63.6573C72.3313 66.9388 69.6149 68.1998 66.56 68.1998C62.0188 68.1998 58.7031 65.3166 58.7031 60.307C58.7031 55.1332 61.6204 52.1172 66.4296 52.1172C70.9708 52.1172 73.3114 55.0238 73.3114 59.2811C73.3114 59.8368 73.3114 60.5062 73.2452 61.2046H63.8902C63.9893 63.0854 64.916 64.1113 66.4976 64.1207C67.6217 64.1147 68.3916 63.6445 68.7335 62.2634H68.7498ZM68.2219 58.4724C68.2219 57.1452 67.7572 55.9864 66.2667 55.9864C64.9699 55.9864 64.1428 57.046 64.0103 58.4724H68.2219Z" fill="white"/>
<path d="M88.7913 52.4844L89.8864 57.824C90.4476 60.5596 90.7413 62.6541 90.7413 62.6345H90.8075C90.8075 62.6345 91.1392 60.6118 91.7701 57.8903L92.9952 52.4844H98.2023L94.0574 67.8061H88.0561L87.1268 63.3286C86.6626 61.0751 86.2976 58.4203 86.2976 58.4203H86.2339C86.2339 58.4203 85.8688 61.0751 85.4046 63.3359L84.4754 67.8134H78.5121L74.3672 52.4916H79.7709L80.996 57.8975C81.6269 60.6332 81.9791 62.6422 81.9791 62.6417H82.0454C82.0454 62.6417 82.3441 60.5832 82.9058 57.8313L84.006 52.4916H88.7913V52.4844Z" fill="white"/>
<path d="M33.8612 15.4524C33.8612 16.179 34.0749 16.5637 34.6306 16.5808C34.9601 16.5808 35.2944 16.4479 35.5928 16.282V20.0623C34.8627 20.5932 34.166 20.7911 32.9383 20.789C30.8832 20.789 29.7539 19.8627 29.1567 18.3692C28.298 19.9593 26.9375 20.8553 24.7485 20.8553C21.9291 20.8553 20.1719 19.1976 20.1719 16.5787C20.1719 13.2946 22.5267 11.6383 27.1354 11.6383H28.6947V10.6116C28.6947 9.61734 28.3617 8.91932 27.4021 8.91932C26.4728 8.91932 26.0428 9.48312 25.9753 10.7445L20.869 9.94689C21.1665 6.79834 23.6209 4.80859 27.5684 4.80859C31.9432 4.80859 33.8518 6.73209 33.8518 10.082V15.4524H33.8612ZM28.6883 14.359H27.9915C26.068 14.359 25.4059 14.9548 25.4059 15.9516C25.4059 16.6783 25.9189 17.234 26.8165 17.2429C27.7111 17.2429 28.6733 16.7787 28.6733 15.3553V14.359H28.6883Z" fill="white"/>
<path d="M48.0962 11.2078C47.4683 10.9757 47.1007 10.8107 46.2403 10.8107C44.9793 10.8107 43.4529 11.3074 43.4529 14.0281V20.4936H38.1133V5.17188H42.6925L43.2208 8.95219C43.6521 6.39949 45.8094 5.17188 48.4279 5.17188L48.0962 11.2078Z" fill="white"/>
<path d="M49.9492 5.17188H55.5902L57.344 11.3403C57.977 13.563 58.3271 15.1018 58.3271 15.0873H58.3934C58.3934 15.0873 58.7255 13.5635 59.4222 11.3403L61.4107 5.17188H66.6178L61.0482 20.4936H55.2893L49.9492 5.17188Z" fill="white"/>
<path d="M80.7271 15.4524C80.7271 16.179 80.9408 16.5637 81.4965 16.5808C81.8282 16.5808 82.1603 16.4479 82.4591 16.282V20.0623C81.729 20.5932 81.0323 20.7911 79.8068 20.7911C77.75 20.7911 76.6215 19.8649 76.0239 18.3714C75.1635 19.9615 73.8034 20.8574 71.6157 20.8506C68.795 20.8506 67.0391 19.1929 67.0391 16.574C67.0391 13.2899 69.3926 11.6336 74.0025 11.6336H75.5597V10.6116C75.5597 9.61734 75.2302 8.91932 74.2684 8.91932C73.3392 8.91932 72.9079 9.48312 72.8416 10.7445L67.7341 9.94689C68.035 6.79834 70.4855 4.80859 74.4343 4.80859C78.8117 4.80859 80.7177 6.73209 80.7177 10.082V15.4524H80.7271ZM75.5533 14.359H74.8591C72.9344 14.359 72.2705 14.9548 72.2705 15.9516C72.2705 16.6783 72.7835 17.234 73.6811 17.2429C74.5749 17.2429 75.5371 16.7787 75.5371 15.3553V14.359H75.5533Z" fill="white"/>
<path d="M94.973 11.2078C94.3421 10.9757 93.9775 10.8107 93.1145 10.8107C91.8561 10.8107 90.3293 11.3074 90.3293 14.0281V20.4936H84.9922V5.17188H89.5663L90.0972 8.95219C90.5284 6.39949 92.6828 5.17188 95.3047 5.17188L94.973 11.2078Z" fill="white"/>
<path d="M107.838 0H113.208V20.4955H108.369L107.871 17.8432C107.307 19.8967 105.482 20.8922 103.161 20.8922C99.58 20.8922 97.0273 18.1074 97.0273 13.1324C97.0273 7.99149 99.4804 4.8096 103.792 4.8096C105.749 4.8096 107.297 5.70723 107.852 7.1631V0H107.838ZM107.871 11.7389C107.871 9.78248 106.909 8.72327 105.351 8.72327C103.792 8.72327 102.464 9.88464 102.464 12.9336C102.464 15.4555 103.533 16.7806 105.286 16.7806C106.644 16.7806 107.872 15.7543 107.872 13.6649V11.7389H107.871Z" fill="white"/>
<path d="M0 20.4969V0.964844H5.43837V8.22412H12.136V0.964844H17.5744V20.4969H12.136V12.935H5.43837V20.4969H0Z" fill="white"/>
</svg>
