<svg width="198" height="84" viewBox="0 0 198 84" fill="none" xmlns="http://www.w3.org/2000/svg">
<g clip-path="url(#clip0)">
<path d="M163.627 53.284C163.581 53.2826 163.537 53.279 163.491 53.2765C163.332 53.2995 163.211 53.4344 163.211 53.5997C163.211 53.7536 163.316 53.88 163.458 53.9172C163.484 53.9207 163.51 53.9249 163.537 53.9271C166.177 54.3044 168.683 54.7631 171.028 55.2971C172.707 55.6776 174.301 56.0963 175.802 56.5469C175.978 55.9933 176.143 55.4345 176.295 54.8707C172.43 54.103 168.173 53.5561 163.627 53.284Z" fill="white"/>
<path d="M178.42 55.3212C178.16 55.9264 177.888 56.5267 177.6 57.1163C185.417 59.7418 190.239 63.326 190.239 67.2795C190.239 72.3538 182.308 76.8201 170.285 79.4335C164.403 80.3725 157.764 80.9144 150.713 80.9144C144.227 80.9144 138.077 80.4635 132.554 79.6576C132.508 79.6512 132.462 79.6455 132.416 79.6384C132.246 79.6512 132.109 79.792 132.109 79.9651C132.109 80.0968 132.189 80.2072 132.301 80.2617C132.338 80.272 132.379 80.2801 132.416 80.29C133.758 80.6302 135.215 80.9427 136.933 81.2853C136.942 81.2885 136.96 81.2909 136.978 81.2945C136.978 81.2945 136.982 81.2945 136.984 81.298C137.752 81.4488 138.575 81.5681 139.37 81.7036C144.699 82.6051 150.604 83.1328 156.87 83.1328C168.335 83.1328 178.719 81.4488 186.226 78.7281C193.746 76.0124 197.494 72.254 197.494 68.1098C197.494 62.7053 189.988 57.9689 178.42 55.3212Z" fill="white"/>
<path d="M141.935 -0.00240912C129.872 -0.00240912 119.076 5.38479 111.794 13.8763C111.757 13.9213 111.717 13.9669 111.681 14.0105C111.663 14.0505 111.652 14.0929 111.652 14.139C111.652 14.3198 111.801 14.466 111.982 14.466C112.054 14.466 112.117 14.4384 112.172 14.3998C112.19 14.3849 112.206 14.3697 112.224 14.3549C119.153 8.44737 128.131 4.87407 137.952 4.87407C159.878 4.87407 177.649 22.6475 177.649 44.5733C177.649 48.1359 177.174 51.585 176.293 54.8681C176.02 55.8835 176.009 55.8878 175.801 56.5447C175.011 59.0388 173.985 61.4282 172.743 63.6831C172.735 63.7005 172.723 63.7185 172.712 63.7355C172.698 63.773 172.69 63.8102 172.69 63.8519C172.69 64.0335 172.836 64.1797 173.017 64.1797C173.1 64.1797 173.171 64.1478 173.228 64.0983C173.259 64.0586 173.288 64.0165 173.321 63.9758C174.968 61.8505 176.404 59.5524 177.6 57.1159C177.888 56.5259 178.16 55.926 178.42 55.3208C180.482 50.5253 181.632 45.2471 181.632 39.6946C181.632 17.771 163.86 -0.00240912 141.935 -0.00240912Z" fill="white"/>
<path d="M27.2812 22.983H28.1756L36.9896 34.0972V22.983H37.9013V35.7578H37.1896L28.1926 24.4065V35.7578H27.2812V22.983Z" fill="white"/>
<path d="M50.3474 31.3234L46.9883 23.9336L43.6128 31.3234H50.3474ZM46.5508 22.8927H47.4636L53.4125 35.7578H52.3723L50.7481 32.1813H43.2108L41.5869 35.7578H40.6016L46.5508 22.8927Z" fill="white"/>
<path d="M58.0068 23.8607H53.5547V22.9833H63.4089V23.8607H58.9546V35.7578H58.0068V23.8607Z" fill="white"/>
<path d="M66.418 22.983H67.3658V35.7578H66.418V22.983Z" fill="white"/>
<path d="M82.5843 29.4076V29.3708C82.5843 26.214 80.2848 23.6218 77.1285 23.6218C73.9714 23.6218 71.7076 26.1772 71.7076 29.3347V29.3708C71.7076 32.5271 74.0075 35.1186 77.1642 35.1186C80.3217 35.1186 82.5843 32.5639 82.5843 29.4076ZM70.7227 29.4076V29.3708C70.7227 25.8852 73.2961 22.7646 77.1642 22.7646C81.0334 22.7646 83.57 25.8484 83.57 29.3347C83.587 29.3527 83.587 29.3527 83.57 29.3708C83.57 32.8559 80.9973 35.9766 77.1285 35.9766C73.2596 35.9766 70.7227 32.8924 70.7227 29.4076" fill="white"/>
<path d="M86.8008 22.983H87.6955L96.5091 34.0972V22.983H97.4209V35.7578H96.7095L87.7125 24.4065V35.7578H86.8008V22.983Z" fill="white"/>
<path d="M109.864 31.3234L106.505 23.9336L103.128 31.3234H109.864ZM106.066 22.8927H106.978L112.929 35.7578H111.889L110.265 32.1813H102.726L101.103 35.7578H100.117L106.066 22.8927V22.8927Z" fill="white"/>
<path d="M115.629 22.983H116.577V34.8815H124.078V35.7578H115.629V22.983Z" fill="white"/>
<path d="M6.63552 48.1018C8.56269 48.1018 9.78906 47.0941 9.78906 45.54V45.4954C9.78906 43.8532 8.60657 42.9542 6.61323 42.9542H2.69378V48.1018H6.63552ZM0 40.5025H6.83302C8.75947 40.5025 10.2711 41.0727 11.2565 42.0333C12.067 42.8682 12.5271 44.0068 12.5271 45.3408V45.3868C12.5271 47.9036 11.0154 49.4142 8.86919 50.0293L13.0081 55.832H9.8333L6.06569 50.4884H6.02287H2.69378V55.832H0V40.5025V40.5025Z" fill="white"/>
<path d="M15.832 40.5025H27.1975V42.9107H18.5255V46.8959H26.2115V49.3066H18.5255V53.4239H27.3069V55.832H15.832V40.5025Z" fill="white"/>
<path d="M29.4727 53.5987L31.093 51.6702C32.5607 52.9415 34.0285 53.6628 35.933 53.6628C37.5972 53.6628 38.6484 52.898 38.6484 51.7371V51.6932C38.6484 50.5977 38.0357 50.0077 35.189 49.3501C31.9254 48.5609 30.0853 47.5971 30.0853 44.7717V44.7285C30.0853 42.1002 32.2765 40.2838 35.32 40.2838C37.5543 40.2838 39.3279 40.9626 40.8827 42.2099L39.4373 44.2461C38.0573 43.2186 36.6777 42.6704 35.2754 42.6704C33.7 42.6704 32.7802 43.4812 32.7802 44.4878V44.5324C32.7802 45.7131 33.4809 46.2401 36.415 46.942C39.6564 47.7288 41.3421 48.89 41.3421 51.4298V51.4737C41.3421 54.3434 39.0865 56.0508 35.8675 56.0508C33.5238 56.0508 31.3128 55.2399 29.4727 53.5987Z" fill="white"/>
<path d="M47.955 42.9992H43.0938V40.5025H55.5316V42.9992H50.6704V55.832H47.955V42.9992Z" fill="white"/>
<path d="M65.6883 49.743L63.0385 43.6118L60.4119 49.743H65.6883ZM61.8347 40.3924H64.331L71.0763 55.832H68.2292L66.674 52.1303H59.4252L57.8491 55.832H55.0898L61.8347 40.3924V40.3924Z" fill="white"/>
<path d="M72.918 49.3258V40.5001H75.6128V49.2157C75.6128 52.062 77.0795 53.5963 79.4894 53.5963C81.8753 53.5963 83.3427 52.1502 83.3427 49.3258V40.5001H86.0365V49.1945C86.0365 53.7708 83.4517 56.0703 79.4455 56.0703C75.4588 56.0703 72.918 53.7708 72.918 49.3258Z" fill="white"/>
<path d="M96.3699 48.1018C98.2964 48.1018 99.5234 47.0941 99.5234 45.54V45.4954C99.5234 43.8532 98.3413 42.9542 96.3483 42.9542H92.4282V48.1018H96.3699ZM89.7344 40.5025H96.5667C98.4938 40.5025 100.005 41.0727 100.99 42.0333C101.8 42.8682 102.261 44.0068 102.261 45.3408V45.3868C102.261 47.9036 100.75 49.4142 98.6043 50.0293L102.744 55.832H99.567L95.8001 50.4884H95.7572H92.4282V55.832H89.7344V40.5025V40.5025Z" fill="white"/>
<path d="M114.85 49.743L112.2 43.6118L109.572 49.743H114.85ZM110.996 40.3924H113.493L120.237 55.832H117.391L115.837 52.1303H108.587L107.01 55.832H104.25L110.996 40.3924V40.3924Z" fill="white"/>
<path d="M122.863 40.5025H125.358L133.571 51.1024V40.5025H136.22V55.832H133.966L125.512 44.9263V55.832H122.863V40.5025Z" fill="white"/>
<path d="M143.926 42.9992H139.066V40.5025H151.504V42.9992H146.642V55.832H143.926V42.9992Z" fill="white"/>
<path d="M20.3471 69.6441L16.989 62.2529L13.6128 69.6441H20.3471ZM16.5512 61.212H17.4636L23.4129 74.0781H22.3726L20.7484 70.5006H13.2122L11.5873 74.0781H10.6016L16.5512 61.212V61.212Z" fill="white"/>
<path d="M25.0195 72.2149L25.6389 71.5024C27.044 72.7989 28.3405 73.4024 30.2202 73.4024C32.1364 73.4024 33.4491 72.325 33.4491 70.8632V70.8282C33.4491 69.4765 32.7388 68.6926 29.8358 68.1082C26.7701 67.4885 25.5295 66.4501 25.5295 64.5148V64.4765C25.5295 62.5795 27.2638 61.1181 29.6355 61.1181C31.4965 61.1181 32.7204 61.6302 34.0161 62.6711L33.4123 63.4197C32.2086 62.3791 31.0042 61.9771 29.5991 61.9771C27.7204 61.9771 26.4795 63.0534 26.4795 64.3849V64.422C26.4795 65.7744 27.1721 66.5945 30.2015 67.2149C33.1586 67.8148 34.3987 68.8756 34.3987 70.7348V70.7719C34.3987 72.8354 32.6287 74.2578 30.1654 74.2578C28.121 74.2578 26.5517 73.5836 25.0195 72.2149Z" fill="white"/>
<path d="M36.5117 72.2149L37.1322 71.5024C38.5373 72.7989 39.8334 73.4024 41.7124 73.4024C43.6289 73.4024 44.9431 72.325 44.9431 70.8632V70.8282C44.9431 69.4765 44.2313 68.6926 41.3302 68.1082C38.264 67.4885 37.0224 66.4501 37.0224 64.5148V64.4765C37.0224 62.5795 38.7567 61.1181 41.1288 61.1181C42.9897 61.1181 44.2133 61.6302 45.5087 62.6711L44.9066 63.4197C43.7015 62.3791 42.4974 61.9771 41.0927 61.9771C39.2129 61.9771 37.9717 63.0534 37.9717 64.3849V64.422C37.9717 65.7744 38.665 66.5945 41.6947 67.2149C44.6504 67.8148 45.8923 68.8756 45.8923 70.7348V70.7719C45.8923 72.8354 44.1216 74.2578 41.6579 74.2578C39.6139 74.2578 38.045 73.5836 36.5117 72.2149Z" fill="white"/>
<path d="M60.3074 67.7265V67.6897C60.3074 64.534 58.0079 61.9418 54.8518 61.9418C51.693 61.9418 49.4307 64.4972 49.4307 67.6532V67.6897C49.4307 70.8471 51.7302 73.4389 54.8872 73.4389C58.044 73.4389 60.3074 70.886 60.3074 67.7265ZM48.4453 67.7265V67.6897C48.4453 64.2059 51.0184 61.0856 54.8872 61.0856C58.7561 61.0856 61.2934 64.1695 61.2934 67.6532C61.3115 67.6727 61.3115 67.6727 61.2934 67.6897C61.2934 71.177 58.72 74.2969 54.8518 74.2969C50.9816 74.2969 48.4453 71.2124 48.4453 67.7265" fill="white"/>
<path d="M63.957 67.7265V67.6897C63.957 64.0771 66.6582 61.0856 70.3448 61.0856C72.6259 61.0856 73.9946 61.9248 75.308 63.1296L74.6327 63.8226C73.5192 62.7459 72.2429 61.9418 70.3268 61.9418C67.2599 61.9418 64.9431 64.4434 64.9431 67.6532V67.6897C64.9431 70.92 67.2971 73.4389 70.3448 73.4389C72.1877 73.4389 73.447 72.7279 74.7431 71.4491L75.3813 72.0713C74.0314 73.4043 72.5707 74.2969 70.3087 74.2969C66.6582 74.2969 63.957 71.3953 63.957 67.7265Z" fill="white"/>
<path d="M78.6055 61.3022H79.5533V74.0781H78.6055V61.3022Z" fill="white"/>
<path d="M91.6404 69.6441L88.2812 62.2529L84.9058 69.6441H91.6404ZM87.8445 61.212H88.7566L94.7051 74.0781H93.6649L92.0411 70.5006H84.5048L82.8799 74.0781H81.8945L87.8445 61.212V61.212Z" fill="white"/>
<path d="M99.3015 62.18H94.8477V61.3026H104.703V62.18H100.249V74.0781H99.3015V62.18Z" fill="white"/>
<path d="M107.711 61.3022H108.662V74.0781H107.711V61.3022Z" fill="white"/>
<path d="M123.881 67.7265V67.6897C123.881 64.534 121.581 61.9418 118.423 61.9418C115.267 61.9418 113.005 64.4972 113.005 67.6532V67.6897C113.005 70.8471 115.303 73.4389 118.462 73.4389C121.618 73.4389 123.881 70.886 123.881 67.7265ZM112.02 67.7265V67.6897C112.02 64.2059 114.592 61.0856 118.462 61.0856C122.33 61.0856 124.868 64.1695 124.868 67.6532C124.885 67.6727 124.885 67.6727 124.868 67.6897C124.868 71.177 122.293 74.2969 118.423 74.2969C114.555 74.2969 112.02 71.2124 112.02 67.7265" fill="white"/>
<path d="M128.09 61.3022H128.984L137.798 72.4189V61.3022H138.712V74.0781H138.001L129.003 62.7254V74.0781H128.09V61.3022Z" fill="white"/>
<path d="M193.452 78.6176H193.975L194.748 79.8301L195.52 78.6176H196.026V81.1758H195.554V79.3569L194.764 80.5861H194.714L193.925 79.3569V81.1758H193.452V78.6176ZM191.625 79.066H190.836V78.6176H192.904V79.066H192.115V81.1758H191.625V79.066V79.066Z" fill="white"/>
</g>
<defs>
<clipPath id="clip0">
<rect width="197.494" height="83.1341" fill="white"/>
</clipPath>
</defs>
</svg>
