<svg width="72" height="59" viewBox="0 0 72 59" fill="none" xmlns="http://www.w3.org/2000/svg">
<path d="M70.7324 24.8451H67.7747V15.5493C67.7747 15.2113 67.6056 14.9577 67.4366 14.7042L65.7465 12.8451C65.2394 12.338 64.3944 12.338 63.8873 12.8451L63.0423 13.6901L62.1972 12.8451C61.9437 12.5915 61.6056 12.4225 61.2676 12.4225C60.9296 12.4225 60.5916 12.5915 60.338 12.8451L59.5775 13.6901L58.8169 12.8451C58.3099 12.338 57.4648 12.338 56.9578 12.8451L56.1127 13.6901L55.2676 12.8451C55.0141 12.5915 54.6761 12.4225 54.338 12.4225C54 12.4225 53.662 12.5915 53.4085 12.8451L51.7183 14.7042C51.5493 14.9577 51.3803 15.2113 51.3803 15.5493V24.8451H48.4225C47.7465 24.8451 47.1549 25.4366 47.1549 26.1127V41.493H32.3662V37.4366H41.5775C42.2535 37.4366 42.8451 36.8451 42.8451 36.169V1.26761C42.8451 0.59155 42.2535 0 41.5775 0H1.26761C0.591549 0 0 0.59155 0 1.26761V36.169C0 36.8451 0.591549 37.4366 1.26761 37.4366H10.4789V41.493H1.26761C0.591549 41.493 0 42.0845 0 42.7606V57.5493C0 58.2254 0.591549 58.8169 1.26761 58.8169H70.7324C71.4085 58.8169 72 58.2254 72 57.5493V26.1127C72 25.4366 71.4085 24.8451 70.7324 24.8451ZM53.9155 16.0563L54.338 15.5493L55.1831 16.3944C55.4366 16.6479 55.7747 16.8169 56.1127 16.8169C56.4507 16.8169 56.7887 16.6479 57.0423 16.3944L57.8028 15.5493L58.5634 16.3944C58.8169 16.6479 59.1549 16.8169 59.493 16.8169C59.831 16.8169 60.169 16.6479 60.4225 16.3944L61.1831 15.5493L62.0282 16.3944C62.2817 16.6479 62.6197 16.8169 62.9578 16.8169C63.2958 16.8169 63.6338 16.6479 63.8873 16.3944L64.6479 15.5493L65.0704 16.0563V24.8451H53.9155V16.0563ZM2.53521 34.9014V2.53521H40.3099V34.9014H2.53521ZM29.831 37.4366V41.493H12.9296V37.4366H29.831ZM69.4648 56.2817H2.53521V44.0282H69.4648V56.2817ZM69.4648 41.493H49.6901V27.3803H69.4648V41.493Z" fill="white"/>
<path d="M35.9979 54.5075C33.5472 54.5075 31.6035 52.5638 31.6035 50.1131C31.6035 47.6624 33.5472 45.7188 35.9979 45.7188C38.4486 45.7188 40.3923 47.6624 40.3923 50.1131C40.3923 52.5638 38.4486 54.5075 35.9979 54.5075ZM35.9979 48.3385C34.9838 48.3385 34.1387 49.1835 34.1387 50.1976C34.1387 51.2117 34.9838 52.0568 35.9979 52.0568C37.012 52.0568 37.857 51.2117 37.857 50.1976C37.857 49.1835 37.012 48.3385 35.9979 48.3385Z" fill="white"/>
<path d="M13.0132 13.4368H7.09768C6.42163 13.4368 5.83008 12.8452 5.83008 12.1692V6.92972C5.83008 6.25366 6.42163 5.66211 7.09768 5.66211H13.0132C13.6892 5.66211 14.2808 6.25366 14.2808 6.92972V12.1692C14.2808 12.8452 13.6892 13.4368 13.0132 13.4368ZM8.28078 10.9015H11.6611V8.19732H8.28078V10.9015Z" fill="white"/>
<path d="M13.0132 22.6477H7.09768C6.42163 22.6477 5.83008 22.0561 5.83008 21.3801V16.1407C5.83008 15.4646 6.42163 14.873 7.09768 14.873H13.0132C13.6892 14.873 14.2808 15.4646 14.2808 16.1407V21.3801C14.2808 22.0561 13.6892 22.6477 13.0132 22.6477ZM8.28078 20.1125H11.6611V17.4083H8.28078V20.1125Z" fill="white"/>
<path d="M13.0132 31.7746H7.09768C6.42163 31.7746 5.83008 31.1831 5.83008 30.507V25.2676C5.83008 24.5915 6.42163 24 7.09768 24H13.0132C13.6892 24 14.2808 24.5915 14.2808 25.2676V30.507C14.2808 31.2676 13.6892 31.7746 13.0132 31.7746ZM8.28078 29.2394H11.6611V26.5352H8.28078V29.2394Z" fill="white"/>
<path d="M35.9974 13.4368H18.4199C17.7439 13.4368 17.1523 12.8452 17.1523 12.1692V6.92972C17.1523 6.25366 17.7439 5.66211 18.4199 5.66211H35.9974C36.6735 5.66211 37.265 6.25366 37.265 6.92972V12.1692C37.265 12.8452 36.6735 13.4368 35.9974 13.4368ZM19.6876 10.9015H34.7298V8.19732H19.6876V10.9015Z" fill="white"/>
<path d="M35.9974 22.6477H18.4199C17.7439 22.6477 17.1523 22.0561 17.1523 21.3801V16.1407C17.1523 15.4646 17.7439 14.873 18.4199 14.873H35.9974C36.6735 14.873 37.265 15.4646 37.265 16.1407V21.3801C37.265 22.0561 36.6735 22.6477 35.9974 22.6477ZM19.6876 20.1125H34.7298V17.4083H19.6876V20.1125Z" fill="white"/>
<path d="M35.9974 31.7746H18.4199C17.7439 31.7746 17.1523 31.1831 17.1523 30.507V25.2676C17.1523 24.5915 17.7439 24 18.4199 24H35.9974C36.6735 24 37.265 24.5915 37.265 25.2676V30.507C37.265 31.2676 36.6735 31.7746 35.9974 31.7746ZM19.6876 29.2394H34.7298V26.5352H19.6876V29.2394Z" fill="white"/>
<path d="M66.5037 37.522H52.6446C51.9685 37.522 51.377 36.9305 51.377 36.2544V32.7051C51.377 32.029 51.9685 31.4375 52.6446 31.4375H66.4192C67.0953 31.4375 67.6868 32.029 67.6868 32.7051V36.2544C67.7713 36.9305 67.1798 37.522 66.5037 37.522ZM53.9122 34.9868H65.1516V33.9727H53.9122V34.9868Z" fill="white"/>
</svg>
