<svg width="72" height="71" viewBox="0 0 72 71" fill="none" xmlns="http://www.w3.org/2000/svg">
<path d="M1.16318 0C0.515077 0 0 0.514969 0 1.16324V21.7071C0 22.3552 0.523777 22.8702 1.16318 22.8702H21.6899C22.3293 22.8702 22.8531 22.3553 22.8531 21.7071V1.16324C22.8531 0.515139 22.3293 0 21.6899 0H1.16318ZM49.8458 0C49.2065 0 48.6826 0.514969 48.6826 1.16324V21.7071C48.6826 22.3552 49.2065 22.8702 49.8458 22.8702H70.3726C71.0119 22.8702 71.5529 22.3553 71.5529 21.7071V1.16324C71.5529 0.515139 71.0119 0 70.3726 0H49.8458ZM26.5822 1.16324V8.091H33.4586V14.9504H26.5822V21.8781V28.7888H19.6886V33.356H14.9503H14.4372H8.07388V26.4967H1.16318V33.4073H8.02258V39.2404V40.2838V46.1511H14.9504V40.2838H21.365V35.7166H26.5993V28.7888H33.51V32.2613H47.2629V49.4525H40.4206V42.6444H33.5442V35.7509H26.6164V42.6615H33.51V49.4867H26.6677V69.6371H33.5784V63.0172H40.4206V56.3631H47.3484V49.5208H54.1736V39.2233H61.0671V46.1168H70.3726V39.189H61.1014V32.2954H54.1907V32.2604H47.3484V25.3327H33.51V21.8774V14.9496H38.4706H40.3693H45.3984V8.02185H40.3693H38.4706H33.51V1.16241H26.5822V1.16324ZM2.32639 2.34348H20.5268V20.5439H2.32639V2.34348ZM51.009 2.34348H69.2094V20.5439H51.009V2.34348ZM4.94348 4.96066V17.9097H17.9096V4.96066H4.94348ZM53.6433 4.96066V17.9097H66.5922V4.96066H53.6433ZM61.0842 25.3334V32.2613H67.9949V25.3334H61.0842ZM1.16318 47.9471C0.515077 47.9471 0 48.4621 0 49.1104V69.6371C0 70.2764 0.523777 70.8002 1.16318 70.8002H21.6899C22.3293 70.8002 22.8531 70.2765 22.8531 69.6371V49.1104C22.8531 48.471 22.3293 47.9471 21.6899 47.9471H1.16318ZM33.5955 49.5551H40.4377V56.1064H33.5955V49.5551ZM2.32639 50.2733H20.5268V68.4736H2.32639V50.2733ZM50.1708 52.6338V59.5615H56.6539V69.9447H63.4619H63.5816H70.3726V63.017H63.5816V52.668H57.0986V52.6329H50.1708V52.6338ZM4.94348 52.8904V65.8565H17.9096V52.8904H4.94348ZM40.4377 63.017V69.9448H47.3484V63.017H40.4377Z" fill="white"/>
</svg>
