<svg width="77" height="52" viewBox="0 0 77 52" fill="none" xmlns="http://www.w3.org/2000/svg">
<path d="M71.3398 6.34143V26.9511H53.2667C51.9984 26.9511 50.8887 28.0608 50.8887 29.3291C50.8887 30.5974 51.9984 31.7071 53.2667 31.7071H72.9251C74.669 31.7071 76.0958 30.2803 76.0958 28.5364V0C73.4007 0 71.3398 2.85364 71.3398 6.34143Z" fill="white"/>
<path d="M57.2313 33.293H54.0605V51.8416H57.2313V33.293Z" fill="white"/>
<path d="M72.7684 33.293H69.5977V51.8416H72.7684V33.293Z" fill="white"/>
<path d="M69.5963 46.293H57.2305V48.671H69.5963V46.293Z" fill="white"/>
<path d="M22.8291 26.9511H4.75607V6.34143C4.75607 2.85364 2.69511 0 0 0V28.5364C0 30.2803 1.42682 31.7071 3.17071 31.7071H22.8291C24.0974 31.7071 25.2072 30.5974 25.2072 29.3291C25.2072 28.0608 24.0974 26.9511 22.8291 26.9511Z" fill="white"/>
<path d="M18.8658 46.2929H6.5V48.6709H18.8658V51.8416H22.0365V33.293H18.8658V46.2929Z" fill="white"/>
<path d="M6.49884 33.293H3.32812V51.8416H6.49884V33.293Z" fill="white"/>
<path d="M59.451 8.24414H16.6464C13.6342 8.24414 11.0977 10.7807 11.0977 13.7929H64.9998C64.9998 10.7807 62.4632 8.24414 59.451 8.24414Z" fill="white"/>
<path d="M40.4246 17.1228H51.205C51.9977 17.1228 52.7904 16.3301 52.7904 15.5374V15.3789H23.3027V15.5374C23.3027 16.3301 23.9369 17.1228 24.8881 17.1228H35.6685V47.8787L27.4247 52.0006H48.6684L40.4246 47.8787V17.1228Z" fill="white"/>
</svg>
