<svg width="72" height="72" viewBox="0 0 72 72" fill="none" xmlns="http://www.w3.org/2000/svg">
<path d="M35.9995 13.5625C19.8078 13.5625 6.67969 26.0119 6.67969 41.3682H65.3194C65.3194 26.0119 52.1927 13.5625 35.9995 13.5625Z" stroke="white" stroke-width="3" stroke-miterlimit="10" stroke-linecap="round" stroke-linejoin="round"/>
<path d="M36.0011 13.5628C39.27 13.5628 41.9201 10.9743 41.9201 7.78138C41.9201 4.58841 39.27 2 36.0011 2C32.7321 2 30.082 4.58841 30.082 7.78138C30.082 10.9743 32.7321 13.5628 36.0011 13.5628Z" stroke="white" stroke-width="3" stroke-miterlimit="10" stroke-linecap="round" stroke-linejoin="round"/>
<path d="M61.9551 55.4615C61.9551 55.4615 52.9257 66.1831 44.9422 65.9119C36.9617 65.6393 26.1255 63.7294 23.2743 69.9999H5.0293C5.0293 69.9999 14.3438 53.7353 22.2298 52.4625C30.1172 51.1927 45.4578 51.3334 46.1787 51.2816C47.6989 51.1719 50.6373 55.0644 45.1343 56.0971C39.8114 57.0958 32.0186 58.1863 32.0186 58.1863C32.0186 58.1863 43.0424 60.9497 47.4123 58.7716C51.7837 56.592 55.3056 55.6956 57.2971 53.2819C58.7227 51.5542 64.4252 51.7364 61.9551 55.4615Z" stroke="white" stroke-width="3" stroke-miterlimit="10" stroke-linecap="round" stroke-linejoin="round"/>
<path d="M2 46.0488H70" stroke="white" stroke-width="3" stroke-miterlimit="10" stroke-linecap="round" stroke-linejoin="round"/>
</svg>
