<svg width="65" height="73" viewBox="0 0 65 73" fill="none" xmlns="http://www.w3.org/2000/svg">
<path d="M14.4839 52.1016H1.50391V72.3116H14.4839V52.1016Z" fill="#FFF1EE"/>
<path d="M31.3416 44.8516H18.3516V72.3116H31.3416V44.8516Z" fill="#FFF1EE"/>
<path d="M47.8032 34.1797H34.8242V72.3097H47.8032V34.1797Z" fill="#FFF1EE"/>
<path d="M64.6648 22.5H51.6758V72.311H64.6648V22.5Z" fill="#FFF1EE"/>
<path d="M60.675 2.5V11.16C60.675 12.54 59.554 13.66 58.175 13.66C56.794 13.66 55.675 12.54 55.675 11.16V9.16C31.364 35.74 4.46496 44.5 3.25496 44.88C3.00496 44.96 2.75496 45 2.50496 45C1.44496 45 0.454956 44.32 0.114956 43.25C-0.295044 41.94 0.424957 40.53 1.74496 40.11C2.03496 40.02 29.075 31.18 52.695 5H49.506C48.125 5 47.006 3.88 47.006 2.5C47.006 1.12 48.125 0 49.506 0H58.176C58.295 0 58.405 0.00999973 58.526 0.0299997C58.576 0.0299997 58.626 0.0400002 58.666 0.0500002C59.815 0.28 60.675 1.29 60.675 2.5Z" fill="#FFF1EE"/>
</svg>
