<svg width="68" height="73" viewBox="0 0 68 73" fill="none" xmlns="http://www.w3.org/2000/svg">
<path d="M32.3011 57.3853L24.297 69.7171C23.7723 70.519 23.096 71.2078 22.3071 71.7437C21.5182 72.2797 20.6324 72.6523 19.7007 72.84C19.2548 72.9305 18.8013 72.9764 18.3466 72.9771C17.0054 72.9816 15.6943 72.5754 14.5853 71.8118C13.8103 71.2807 13.1508 70.5948 12.6473 69.7961C12.1439 68.9975 11.8071 68.103 11.6577 67.1676C11.5084 66.2323 11.5495 65.2759 11.7787 64.3573C12.0079 63.4387 12.4203 62.5773 12.9905 61.826L24.0111 47.3538C24.3822 46.871 24.9276 46.5573 25.5271 46.4815C26.1267 46.4058 26.7314 46.5744 27.2083 46.9501C27.6851 47.3259 27.995 47.878 28.0698 48.4851C28.1445 49.0922 27.9781 49.7045 27.607 50.1873L16.5863 64.6595C16.3924 64.9171 16.2525 65.2121 16.1753 65.5264C16.0981 65.8408 16.0852 66.1677 16.1373 66.4873C16.1894 66.8069 16.3055 67.1123 16.4785 67.3848C16.6514 67.6572 16.8775 67.8911 17.143 68.0719C17.6422 68.4034 18.2508 68.5212 18.8356 68.3994C19.1785 68.3296 19.5044 68.1921 19.7948 67.9948C20.0853 67.7974 20.3344 67.5441 20.5282 67.2492L28.5323 54.8717C28.684 54.5984 28.8896 54.3596 29.1364 54.1702C29.3832 53.9808 29.6658 53.8449 29.9667 53.7708C30.2676 53.6968 30.5803 53.6862 30.8854 53.7398C31.1905 53.7934 31.4815 53.91 31.7402 54.0824C31.9988 54.2547 32.2197 54.4791 32.3891 54.7416C32.5584 55.0041 32.6726 55.2991 32.7245 55.6082C32.7764 55.9173 32.7649 56.2339 32.6908 56.5383C32.6167 56.8428 32.4815 57.1285 32.2936 57.3777L32.3011 57.3853ZM63.7533 1.7818C60.7443 -0.404253 56.652 -0.587059 52.2963 1.27909C47.9487 3.29043 44.2225 6.46032 41.5164 10.4499C37.5971 16.0178 35.7691 22.4237 36.6266 27.5879C36.7874 28.61 36.697 29.6564 36.3634 30.6347C36.1837 31.205 36.2322 31.8239 36.4985 32.3583C36.7648 32.8928 37.2276 33.3001 37.7874 33.4927C38.3471 33.6853 38.9592 33.6478 39.4919 33.3882C40.0247 33.1287 40.4355 32.6678 40.6362 32.1048C41.2116 30.4092 41.364 28.5959 41.0801 26.8262C40.4256 22.8883 42.0053 17.6326 45.195 13.1158C47.4203 9.80887 50.4911 7.17616 54.0792 5.49886C55.7342 4.79049 58.8561 3.8536 61.158 5.49886C63.46 7.14411 63.6029 10.4575 63.4825 12.2703C63.0811 16.2551 61.6171 20.0543 59.2473 23.2615C56.0577 27.8317 51.6569 31.0232 47.7677 31.6782C46.0434 31.966 44.4142 32.6744 43.0209 33.7424C42.6465 34.0326 42.2898 34.3455 41.9527 34.6793C41.5476 35.1074 41.3228 35.6782 41.3256 36.2711C41.3284 36.864 41.5587 37.4325 41.9679 37.8567C42.377 38.2808 42.9329 38.5273 43.5182 38.5442C44.1035 38.561 44.6724 38.3469 45.1047 37.9469C45.311 37.743 45.5296 37.5523 45.7592 37.3757C46.5546 36.7561 47.4864 36.3406 48.4748 36.1646C53.5526 35.3039 58.9765 31.4649 62.8958 25.8894C65.7494 21.9894 67.4996 17.3759 67.9585 12.5445C68.2745 7.7687 66.7775 3.93739 63.7533 1.75134V1.7818ZM31.2404 29.8045C31.9097 28.1976 32.1615 26.444 31.9719 24.7107C31.7823 22.9773 31.1575 21.322 30.1572 19.9025L16.7367 0.936325C16.3854 0.451714 15.8597 0.126794 15.2734 0.0319774C14.6871 -0.062839 14.0876 0.0800865 13.6046 0.429781C13.1217 0.779475 12.7943 1.30777 12.6935 1.90017C12.5926 2.49258 12.7263 3.10137 13.0657 3.59463L26.4711 22.576C27.0297 23.3679 27.376 24.2929 27.4762 25.2608C27.5764 26.2286 27.4271 27.2063 27.0428 28.0983C26.7332 28.7887 26.6138 29.5511 26.6972 30.3047C26.7807 31.0583 27.0638 31.775 27.5167 32.379L52.3415 64.888C52.5159 65.1189 52.6427 65.3829 52.7144 65.6644C52.7861 65.9459 52.8012 66.2391 52.7589 66.5266C52.7166 66.8141 52.6177 67.0901 52.468 67.3382C52.3184 67.5863 52.121 67.8014 51.8877 67.9708C51.6544 68.1402 51.3899 68.2604 51.1098 68.3243C50.8297 68.3882 50.5398 68.3945 50.2573 68.3429C49.9748 68.2912 49.7054 68.1826 49.4651 68.0235C49.2248 67.8645 49.0185 67.6581 48.8585 67.4168L26.3657 33.2168C25.9446 32.589 25.3636 32.0882 24.6841 31.7677C24.0047 31.4472 23.2523 31.3189 22.5066 31.3964C21.5463 31.4898 20.5785 31.3282 19.6986 30.9275C18.8187 30.5268 18.0572 29.9008 17.489 29.1113L4.07611 10.1299C3.7248 9.64534 3.19904 9.32042 2.61276 9.2256C2.02648 9.13078 1.42692 9.27371 0.944002 9.6234C0.461083 9.9731 0.13371 10.5014 0.0328275 11.0938C-0.0680549 11.6862 0.06568 12.295 0.405051 12.7883L13.833 31.7696C14.8415 33.1843 16.1908 34.3141 17.7525 35.0514C19.3142 35.7887 21.0363 36.109 22.7549 35.9818L45.1047 69.9913C45.5978 70.747 46.2375 71.3933 46.985 71.8909C47.7325 72.3885 48.5721 72.727 49.4528 72.8857C49.8548 72.961 50.2626 72.9992 50.6714 73C51.9156 72.9994 53.1347 72.6459 54.1905 71.9795C55.2464 71.313 56.0966 70.3603 56.6449 69.2295C57.1931 68.0986 57.4174 66.8348 57.2924 65.5814C57.1673 64.3281 56.6979 63.1353 55.9373 62.1383L31.2404 29.8045ZM20.8817 26.7577C21.2964 26.7567 21.7029 26.6401 22.0564 26.4206C22.41 26.2011 22.697 25.8872 22.8858 25.5133C23.0747 25.1395 23.1582 24.7202 23.1271 24.3014C23.0961 23.8827 22.9517 23.4807 22.7097 23.1396L10.4704 5.40746C10.1272 4.9105 9.60312 4.57193 9.01342 4.46623C8.42372 4.36052 7.8167 4.49634 7.3259 4.8438C6.83509 5.19127 6.50071 5.72191 6.39632 6.31901C6.29192 6.9161 6.42606 7.53072 6.76922 8.02768L19.0312 25.7599C19.2394 26.0612 19.5163 26.3071 19.8385 26.4768C20.1607 26.6466 20.5185 26.7351 20.8817 26.7348V26.7577Z" fill="white"/>
</svg>
