<svg viewBox="0 0 1151 2168" fill="none" xmlns="http://www.w3.org/2000/svg">
<path d="M201.941 390.679C202.512 390.325 202.936 389.778 203.137 389.138C203.839 387.082 204.721 385.091 205.771 383.188C204.37 385.704 203.093 388.201 201.941 390.679Z" fill="#D2D2D8"/>
<path d="M388.951 771.356C388.951 771.356 350.452 717.363 441.571 694.677C511.283 677.305 654.751 674.27 694.81 709.452C723.763 734.903 696.22 785.795 647.475 806.426C598.731 827.058 429.214 837.378 388.951 771.356Z" fill="#D2D2D8"/>
<path d="M408.023 644.468C408.023 644.468 429.215 724.929 416.494 760.009C403.774 795.089 393.145 809.509 395.302 828.095C397.46 846.681 458.878 916.822 547.877 916.822C636.875 916.822 700.46 826.04 700.46 826.04C700.46 826.04 675.028 751.762 672.908 716.682C670.788 681.602 681.388 627.955 681.388 627.955C622.053 673.346 605.101 675.41 541.516 677.455C492.763 679.062 408.023 644.468 408.023 644.468Z" fill="#BD7969"/>
<path d="M42.4268 973.653C45.7891 967.993 47.7597 963.024 53.569 956.645C77.9645 929.906 123.337 898.16 155.839 884.832C196.103 868.329 297.804 833.259 327.495 822.938C357.186 812.618 371.99 808.499 371.99 794.051C371.99 779.602 373.755 751.088 380.47 729.747C391.062 711.18 418.259 700.504 418.259 700.504L418.614 704.296C405.893 709.115 398.842 713.879 392.463 721.108C385.187 729.42 385.15 741.02 388.941 746.558C397.413 758.933 467.349 781.638 488.531 785.785C509.714 789.932 526.684 794.041 530.915 818.801C535.146 843.56 535.155 893.079 535.155 893.079L566.911 874.512C566.911 874.512 564.8 825.012 566.911 812.608C569.021 800.205 579.631 789.913 600.814 779.593C621.996 769.272 674.262 747.838 685.582 738.33C706.774 720.454 693.567 704.885 678.035 699.393C672.786 697.525 673.58 694.667 673.58 694.667C673.58 694.667 703.953 701.532 706.773 725.955C708.641 742.486 713.134 779.593 713.134 779.593C713.134 779.593 738.566 804.362 759.758 816.737C780.95 829.112 891.141 868.32 933.478 882.759C975.815 897.198 1004.15 914.439 1020.34 930.214C1030.94 940.534 1033.06 948.79 1033.06 948.79C1033.06 948.79 956.762 1000.37 939.81 1035.44C939.81 1035.44 895.315 1091.16 884.705 1177.81C874.095 1264.46 878.354 1450.17 895.306 1540.95C912.258 1631.74 944.041 1899.96 948.281 1970.12C952.522 2040.28 958.882 2164.21 958.882 2164.21H126.176C126.176 2164.21 124.056 1914.41 141.008 1819.5C157.96 1724.59 204.584 1590.47 213.064 1522.38C221.545 1454.28 210.935 1286.13 191.872 1202.58C166.431 1091.16 65.7108 977.781 42.4268 973.653Z" fill="#FDD2C9"/>
<path d="M208.815 1796.81C210.935 1751.42 200.343 1703.97 225.776 1654.45C251.208 1604.93 344.391 1532.72 355.038 1493.51C365.685 1454.3 382.59 1357.33 378.388 1318.13C374.185 1278.93 359.316 1239.67 344.475 1229.4C329.634 1219.13 323.292 1223.21 302.1 1208.76C280.908 1194.31 255.476 1122.11 230.053 1095.28C204.63 1068.46 223.693 1117.98 240.645 1155.12C257.596 1192.27 257.596 1223.21 257.596 1223.21C247.323 1247.95 226.233 1263.99 203.967 1274.39C214.942 1360.74 219.546 1470.52 213.102 1522.38C204.621 1590.47 157.997 1724.59 141.045 1819.5C124.094 1914.41 126.214 2164.21 126.214 2164.21H200.091C198.149 2113.28 207.264 1830.05 208.815 1796.81Z" fill="#FF9985"/>
<path d="M948.394 1970.13C944.154 1899.97 912.371 1631.76 895.419 1540.96C878.467 1450.17 874.218 1264.51 884.818 1177.82C890.143 1135.19 904.042 1094.07 925.68 1056.95C924.821 1057.32 923.915 1057.7 922.962 1058.16C869.987 1082.92 840.324 1171.64 821.252 1217.03C802.18 1262.42 778.868 1285.12 715.292 1303.69C651.716 1322.26 571.189 1283.05 513.974 1272.74C456.758 1262.43 365.63 1299.56 365.63 1299.56C365.63 1299.56 340.207 1363.52 382.591 1363.52C424.975 1363.52 783.099 1446.05 831.834 1524.46C880.569 1602.87 891.169 1650.32 912.361 1831.89C929.005 1974.52 935.711 2118.83 939.904 2164.22H958.985C958.985 2164.22 952.634 2040.28 948.394 1970.13Z" fill="#FF9985"/>
<path d="M456.758 1077.75C456.758 1092 444.896 1103.54 430.27 1103.54C415.644 1103.54 403.811 1092 403.811 1077.75C403.811 1063.51 415.672 1051.97 430.298 1051.97C444.924 1051.97 456.758 1063.52 456.758 1077.75Z" fill="#FF4A1F"/>
<path fill-rule="evenodd" clip-rule="evenodd" d="M466.294 1077.75C466.294 1097.5 449.92 1113.08 430.27 1113.08C410.607 1113.08 394.273 1097.49 394.273 1077.75C394.273 1058 410.648 1042.43 430.298 1042.43C449.963 1042.43 466.294 1058.03 466.294 1077.75ZM430.27 1103.54C444.896 1103.54 456.758 1091.99 456.758 1077.75C456.758 1063.52 444.924 1051.96 430.298 1051.96C415.672 1051.96 403.81 1063.51 403.81 1077.75C403.81 1091.99 415.644 1103.54 430.27 1103.54Z" fill="#FF4A1F"/>
<path d="M459.585 1931.37C459.585 1945.61 447.724 1957.16 433.097 1957.16C418.471 1957.16 406.638 1945.61 406.638 1931.37C406.638 1917.13 418.499 1905.58 433.125 1905.58C447.752 1905.58 459.585 1917.14 459.585 1931.37Z" fill="#FF4A1F"/>
<path fill-rule="evenodd" clip-rule="evenodd" d="M469.122 1931.37C469.122 1951.12 452.747 1966.69 433.097 1966.69C413.434 1966.69 397.101 1951.11 397.101 1931.37C397.101 1911.62 413.476 1896.05 433.125 1896.05C452.791 1896.05 469.122 1911.64 469.122 1931.37ZM433.097 1957.16C447.723 1957.16 459.585 1945.61 459.585 1931.37C459.585 1917.14 447.751 1905.58 433.125 1905.58C418.499 1905.58 406.637 1917.13 406.637 1931.37C406.637 1945.61 418.471 1957.16 433.097 1957.16Z" fill="#FF4A1F"/>
<path d="M673.21 1926.6C673.21 1940.84 661.349 1952.39 646.722 1952.39C632.096 1952.39 620.263 1940.84 620.263 1926.6C620.263 1912.36 632.124 1900.81 646.75 1900.81C661.377 1900.81 673.21 1912.37 673.21 1926.6Z" fill="#FF4A1F"/>
<path fill-rule="evenodd" clip-rule="evenodd" d="M682.748 1926.6C682.748 1946.35 666.373 1961.93 646.723 1961.93C627.06 1961.93 610.727 1946.34 610.727 1926.6C610.727 1906.85 627.102 1891.28 646.751 1891.28C666.416 1891.28 682.748 1906.88 682.748 1926.6ZM646.723 1952.39C661.349 1952.39 673.211 1940.85 673.211 1926.6C673.211 1912.37 661.377 1900.82 646.751 1900.82C632.125 1900.82 620.263 1912.36 620.263 1926.6C620.263 1940.85 632.097 1952.39 646.723 1952.39Z" fill="#FF4A1F"/>
<path d="M670.787 1077.75C670.787 1092 658.926 1103.54 644.3 1103.54C629.673 1103.54 617.803 1092 617.803 1077.75C617.803 1063.51 629.673 1051.97 644.3 1051.97C658.926 1051.97 670.787 1063.52 670.787 1077.75Z" fill="#FF4A1F"/>
<path fill-rule="evenodd" clip-rule="evenodd" d="M680.326 1077.75C680.326 1097.5 663.951 1113.08 644.301 1113.08C624.656 1113.08 608.268 1097.51 608.268 1077.75C608.268 1058 624.656 1042.43 644.301 1042.43C663.953 1042.43 680.326 1058.01 680.326 1077.75ZM644.301 1103.54C658.927 1103.54 670.789 1091.99 670.789 1077.75C670.789 1063.52 658.927 1051.96 644.301 1051.96C629.675 1051.96 617.804 1063.51 617.804 1077.75C617.804 1091.99 629.675 1103.54 644.301 1103.54Z" fill="#FF4A1F"/>
<path d="M454.638 1282.02C454.638 1296.26 442.777 1307.81 428.151 1307.81C413.525 1307.81 401.663 1296.26 401.663 1282.02C401.663 1267.78 413.525 1256.23 428.151 1256.23C442.777 1256.23 454.638 1267.78 454.638 1282.02Z" fill="#FF4A1F"/>
<path fill-rule="evenodd" clip-rule="evenodd" d="M464.175 1282.02C464.175 1301.77 447.8 1317.35 428.15 1317.35C408.501 1317.35 392.126 1301.77 392.126 1282.02C392.126 1262.27 408.501 1246.7 428.15 1246.7C447.8 1246.7 464.175 1262.27 464.175 1282.02ZM428.15 1307.81C442.776 1307.81 454.638 1296.27 454.638 1282.02C454.638 1267.78 442.776 1256.24 428.15 1256.24C413.524 1256.24 401.663 1267.78 401.663 1282.02C401.663 1296.27 413.524 1307.81 428.15 1307.81Z" fill="#FF4A1F"/>
<path d="M670.787 1286.14C670.787 1300.39 658.926 1311.94 644.3 1311.94C629.673 1311.94 617.803 1300.39 617.803 1286.14C617.803 1271.89 629.673 1260.35 644.3 1260.35C658.926 1260.35 670.787 1271.91 670.787 1286.14Z" fill="#FF4A1F"/>
<path fill-rule="evenodd" clip-rule="evenodd" d="M680.326 1286.14C680.326 1305.9 663.953 1321.47 644.301 1321.47C624.654 1321.47 608.268 1305.9 608.268 1286.14C608.268 1266.37 624.658 1250.82 644.301 1250.82C663.953 1250.82 680.326 1266.4 680.326 1286.14ZM644.301 1311.94C658.927 1311.94 670.789 1300.39 670.789 1286.14C670.789 1271.91 658.927 1260.35 644.301 1260.35C629.675 1260.35 617.804 1271.89 617.804 1286.14C617.804 1300.39 629.675 1311.94 644.301 1311.94Z" fill="#FF4A1F"/>
<path d="M452.517 1721.51C452.517 1735.74 440.656 1747.3 426.03 1747.3C411.404 1747.3 399.542 1735.74 399.542 1721.51C399.542 1707.28 411.404 1695.71 426.03 1695.71C440.656 1695.71 452.517 1707.27 452.517 1721.51Z" fill="#FF4A1F"/>
<path fill-rule="evenodd" clip-rule="evenodd" d="M462.055 1721.51C462.055 1741.25 445.682 1756.83 426.03 1756.83C406.379 1756.83 390.006 1741.25 390.006 1721.51C390.006 1701.77 406.374 1686.18 426.03 1686.18C445.684 1686.18 462.055 1701.76 462.055 1721.51ZM426.03 1747.3C440.656 1747.3 452.518 1735.74 452.518 1721.51C452.518 1707.27 440.656 1695.71 426.03 1695.71C411.404 1695.71 399.543 1707.28 399.543 1721.51C399.543 1735.74 411.404 1747.3 426.03 1747.3Z" fill="#FF4A1F"/>
<path d="M668.667 1725.63C668.667 1739.87 656.806 1751.42 642.18 1751.42C627.554 1751.42 615.692 1739.87 615.692 1725.63C615.692 1711.39 627.554 1699.84 642.18 1699.84C656.806 1699.84 668.667 1711.39 668.667 1725.63Z" fill="#FF4A1F"/>
<path fill-rule="evenodd" clip-rule="evenodd" d="M678.204 1725.63C678.204 1745.37 661.834 1760.96 642.18 1760.96C622.525 1760.96 606.155 1745.37 606.155 1725.63C606.155 1705.88 622.53 1690.3 642.18 1690.3C661.829 1690.3 678.204 1705.88 678.204 1725.63ZM642.18 1751.42C656.806 1751.42 668.667 1739.87 668.667 1725.63C668.667 1711.39 656.806 1699.84 642.18 1699.84C627.553 1699.84 615.692 1711.39 615.692 1725.63C615.692 1739.87 627.553 1751.42 642.18 1751.42Z" fill="#FF4A1F"/>
<path d="M338.087 2164.22C336.331 2164.22 334.911 2165.93 334.911 2164.22C334.911 2163.73 334.986 2012.48 341.281 1938.92C347.277 1868.81 370.935 1528.42 370.935 1446.05C370.935 1369.09 362.529 1220.03 354.002 1145.16C353.413 1140.03 352.787 1134.73 352.134 1129.35C347.744 1092 342.794 1049.65 345.661 1023.82C347.128 1010.82 352.825 1001.47 363.612 994.359C403.381 968.208 546.027 883.273 563.483 872.878C561.989 860.503 556.721 807.846 573.271 793.752C583.031 785.43 609.78 772.7 635.642 760.391C655.853 750.78 674.944 741.711 683.742 735.762C693.212 729.383 697.257 722.341 695.463 715.392C693.418 707.547 682.873 700.635 672.628 699.515C672.712 697.535 672.842 695.984 672.973 693.154C685.89 694.546 698.938 703.512 701.618 713.851C703.057 719.38 703.103 730.223 687.366 740.824C678.176 747.035 658.88 756.216 638.444 765.938C614.161 777.501 586.58 790.605 577.455 798.394C564.604 809.331 567.742 856.729 570.04 874.045C570.114 874.643 570.013 875.25 569.747 875.791C569.482 876.332 569.064 876.783 568.545 877.09C566.948 878.024 409.181 971.766 367.133 999.44C357.887 1005.53 353.198 1013.23 351.947 1024.44C349.145 1049.55 354.058 1091.53 358.41 1128.57C359.045 1133.95 359.671 1139.25 360.278 1144.38C368.842 1219.45 377.248 1368.82 377.248 1445.97C377.248 1528.48 353.581 1869.18 347.576 1939.36C341.309 2012.64 341.225 2163.65 341.225 2164.14C341.234 2165.93 339.842 2164.22 338.087 2164.22Z" fill="#FF4A1F"/>
<path fill-rule="evenodd" clip-rule="evenodd" d="M675.345 693.493C687.449 695.648 699.102 704.144 701.619 713.85C703.057 719.38 703.104 730.223 687.366 740.823C678.176 747.034 658.88 756.215 638.445 765.938L637.846 766.223C613.709 777.715 586.506 790.668 577.456 798.393C564.604 809.33 567.743 856.729 570.04 874.045C570.115 874.643 570.013 875.249 569.748 875.79C569.482 876.331 569.064 876.783 568.546 877.089C566.949 878.023 409.181 971.766 367.134 999.439C357.887 1005.53 353.199 1013.23 351.947 1024.44C349.145 1049.55 354.058 1091.53 358.41 1128.57C359.045 1133.95 359.671 1139.25 360.278 1144.38C368.843 1219.44 377.249 1368.82 377.249 1445.97C377.249 1528.48 353.582 1869.18 347.576 1939.36C341.309 2012.64 341.225 2163.65 341.225 2164.14C341.231 2165.23 340.713 2165.02 339.908 2164.69C339.396 2164.48 338.769 2164.22 338.087 2164.22C337.393 2164.22 336.751 2164.49 336.229 2164.7C335.43 2165.04 334.912 2165.25 334.912 2164.22C334.912 2163.73 334.986 2012.48 341.281 1938.92C347.277 1868.81 370.935 1528.42 370.935 1446.05C370.935 1369.09 362.529 1220.03 354.002 1145.16C353.414 1140.03 352.788 1134.73 352.134 1129.35C347.744 1092 342.794 1049.65 345.662 1023.82C347.128 1010.82 352.825 1001.47 363.613 994.358C403.214 968.317 544.829 883.986 563.256 873.012L563.484 872.877C561.989 860.502 556.722 807.845 573.272 793.751C583.026 785.434 609.751 772.714 635.599 760.411L635.941 760.248C656.042 750.69 674.988 741.681 683.742 735.761C693.213 729.382 697.257 722.34 695.464 715.392C693.418 707.546 682.874 700.635 672.628 699.514C672.628 699.514 672.628 699.514 672.628 699.514C672.669 698.554 672.721 697.694 672.778 696.741C672.801 696.359 672.825 695.963 672.849 695.539C672.89 694.838 672.932 694.062 672.974 693.154C673.764 693.239 674.555 693.352 675.345 693.493ZM693.155 715.987C692.329 712.828 689.681 709.566 685.777 706.9C681.909 704.26 677.081 702.4 672.369 701.884L670.151 701.642L670.246 699.413C670.288 698.43 670.341 697.55 670.398 696.6L670.403 696.509C670.463 695.523 670.527 694.441 670.592 693.044L670.709 690.512L673.229 690.783C680.119 691.526 686.994 694.275 692.517 698.204C698.013 702.114 702.4 707.364 703.927 713.252C704.741 716.383 705.15 720.991 703.165 726.274C701.18 731.558 696.887 737.284 688.701 742.799C679.36 749.112 659.966 758.339 639.722 767.97L639.469 768.091L639.469 768.091L638.888 768.367C626.907 774.072 614.212 780.116 603.356 785.701C592.242 791.418 583.32 796.522 579.004 800.207L579.001 800.209C576.393 802.428 574.323 806.801 572.873 812.941C571.446 818.979 570.714 826.297 570.45 833.91C569.921 849.127 571.268 865.169 572.404 873.731L572.405 873.74L572.406 873.749C572.538 874.808 572.358 875.883 571.888 876.841C571.418 877.799 570.677 878.599 569.759 879.142L569.754 879.145L569.749 879.148C568.14 880.089 410.431 973.798 368.445 1001.43C359.802 1007.12 355.491 1014.19 354.317 1024.71C351.553 1049.47 356.41 1091.11 360.778 1128.29C361.413 1133.67 362.039 1138.97 362.646 1144.1L362.647 1144.11L362.647 1144.11C371.222 1219.27 379.633 1368.74 379.633 1445.97C379.633 1528.59 355.956 1869.4 349.952 1939.56C343.709 2012.56 343.61 2162.99 343.609 2164.13C343.611 2164.47 343.584 2164.93 343.433 2165.39C343.269 2165.89 342.913 2166.54 342.193 2166.96C341.507 2167.36 340.829 2167.36 340.433 2167.32C340.044 2167.28 339.709 2167.16 339.513 2167.09C339.33 2167.03 339.137 2166.95 338.998 2166.89L338.948 2166.87C338.784 2166.8 338.656 2166.75 338.531 2166.71C338.278 2166.62 338.148 2166.6 338.087 2166.6C338.026 2166.6 337.894 2166.62 337.64 2166.71C337.516 2166.75 337.387 2166.8 337.225 2166.87L337.159 2166.9C337.023 2166.96 336.841 2167.03 336.672 2167.09C336.481 2167.17 336.164 2167.28 335.799 2167.33C335.439 2167.38 334.786 2167.42 334.096 2167.07C333.339 2166.7 332.93 2166.06 332.734 2165.52C332.558 2165.03 332.527 2164.56 332.527 2164.22C332.527 2163.77 332.6 2012.4 338.906 1938.71C344.903 1868.59 368.551 1528.3 368.551 1446.05C368.551 1369.17 360.15 1220.21 351.633 1145.43C351.045 1140.31 350.42 1135.02 349.767 1129.64L349.767 1129.64L349.766 1129.63C345.392 1092.4 340.387 1049.73 343.292 1023.55L343.292 1023.55C344.837 1009.86 350.914 999.87 362.301 992.368L362.303 992.366C401.253 966.753 538.617 884.911 560.935 871.62C560.124 864.507 558.699 849.302 559.228 833.877C559.514 825.554 560.37 817.075 562.239 809.732C564.092 802.453 567.026 795.939 571.726 791.936C576.845 787.572 586.211 782.196 597.324 776.449C608.486 770.676 621.65 764.41 634.548 758.27L634.618 758.237L634.619 758.237L634.631 758.231C654.942 748.573 673.802 739.605 682.407 733.786L682.41 733.784C691.613 727.585 694.559 721.428 693.155 715.987Z" fill="#FF4A1F"/>
<path d="M535.165 896.18H535.053C534.222 896.161 533.432 895.813 532.856 895.212C532.28 894.612 531.965 893.808 531.98 892.977C532.074 890.66 532.186 888.176 532.289 885.57C533.494 858.065 535.492 812.048 517.485 800.224C508.893 794.62 487.757 788.848 465.397 782.778C426.011 772.102 385.29 761.063 380.574 743.775C373.046 716.139 416.718 700.028 418.484 699.402C418.614 701.588 418.876 703.39 419.137 705.847C418.764 705.977 380.676 719.987 386.719 742.197C390.502 756.048 432.97 767.563 467.097 776.81C490.97 783.282 511.592 788.876 521.053 795.097C541.983 808.854 539.985 855.179 538.649 885.823C538.537 888.428 538.425 890.894 538.35 893.201C538.307 894.013 537.951 894.776 537.357 895.331C536.764 895.887 535.978 896.191 535.165 896.18Z" fill="#FF4A1F"/>
<path fill-rule="evenodd" clip-rule="evenodd" d="M535.025 898.564L534.997 898.563C533.535 898.529 532.147 897.917 531.135 896.862C530.123 895.807 529.57 894.395 529.596 892.933L529.597 892.907L529.598 892.88C529.64 891.836 529.685 890.776 529.731 889.689C529.789 888.331 529.849 886.932 529.906 885.476L529.906 885.471L529.906 885.466C530.51 871.682 531.3 853.472 529.718 837.248C528.927 829.137 527.554 821.637 525.323 815.493C523.084 809.326 520.073 804.777 516.178 802.218C512.188 799.617 505.051 796.855 495.883 793.948C486.787 791.064 475.965 788.117 464.773 785.078C464.773 785.078 464.772 785.078 464.772 785.078L464.69 785.056C445.065 779.737 424.926 774.278 409.101 767.97C401.177 764.812 394.214 761.395 388.894 757.602C383.608 753.834 379.663 749.496 378.273 744.402L378.273 744.401C374.092 729.053 384.271 717.219 394.623 709.544C405.103 701.774 416.723 697.496 417.687 697.155L420.674 696.096L420.863 699.259C420.95 700.717 421.094 701.96 421.265 703.431C421.341 704.092 421.423 704.8 421.508 705.594L421.708 707.472L419.925 708.097C419.925 708.096 419.924 708.097 419.921 708.098C419.867 708.118 419.283 708.333 418.297 708.739C417.265 709.164 415.809 709.792 414.088 710.611C410.637 712.253 406.163 714.642 401.907 717.682C393.156 723.933 386.439 732.084 389.019 741.569C389.713 744.108 392.381 747.01 397.343 750.129C402.19 753.176 408.747 756.136 416.366 758.997C431.595 764.716 450.626 769.877 467.72 774.508C479.641 777.74 490.822 780.772 500.206 783.777C509.535 786.764 517.334 789.798 522.362 793.104C528.133 796.897 532.184 802.842 535.03 809.872C537.876 816.904 539.581 825.176 540.569 833.857C542.544 851.207 541.697 870.64 541.031 885.925L541.031 885.926C541.012 886.365 540.993 886.8 540.974 887.23C540.882 889.359 540.795 891.372 540.733 893.277L540.732 893.302L540.731 893.327C540.655 894.754 540.029 896.096 538.986 897.072C537.947 898.044 536.573 898.578 535.151 898.564H535.025ZM535.165 896.18C535.978 896.191 536.763 895.886 537.357 895.331C537.951 894.776 538.307 894.012 538.35 893.2C538.412 891.28 538.5 889.25 538.593 887.12C538.611 886.691 538.63 886.259 538.649 885.822C539.984 855.179 541.983 808.854 521.053 795.096C511.591 788.876 490.969 783.282 467.097 776.809C432.969 767.563 390.501 756.047 386.719 742.196C380.676 719.987 418.763 705.977 419.137 705.846C419.058 705.105 418.979 704.423 418.904 703.773C418.828 703.116 418.755 702.491 418.69 701.867C418.606 701.063 418.535 700.262 418.483 699.402C418.269 699.478 417.437 699.782 416.155 700.307C406.871 704.108 373.959 719.493 380.573 743.775C385.29 761.062 426.011 772.102 465.397 782.777C487.756 788.848 508.892 794.62 517.485 800.224C535.492 812.048 533.493 858.064 532.288 885.57C532.231 887.021 532.171 888.434 532.113 889.801C532.067 890.89 532.021 891.95 531.98 892.976C531.965 893.808 532.28 894.612 532.856 895.212C533.431 895.812 534.221 896.16 535.053 896.18H535.165Z" fill="#FF4A1F"/>
<path d="M382.564 1436.34C382.564 1436.34 500.161 1422.41 552.604 1422.41C605.047 1422.41 711.529 1419.32 740.137 1406.94C768.745 1394.56 795.765 1498.24 795.765 1498.24C795.765 1498.24 698.818 1558.58 671.807 1577.15C644.797 1595.71 546.253 1659.16 403.214 1669.99C260.176 1680.83 314.225 1450.26 382.564 1436.34Z" fill="#C28375"/>
<path d="M671.805 1577.15C698.816 1558.58 795.763 1498.23 795.763 1498.23C795.763 1498.23 792.475 1485.62 786.983 1469.71C759.076 1485.59 685.282 1524.39 597.106 1544.65C484.617 1570.5 360.062 1564.04 313.793 1560.32C308.918 1619.16 330.829 1675.47 403.212 1669.99C546.251 1659.16 644.776 1595.72 671.805 1577.15Z" fill="#C28375"/>
<path d="M257.008 1337.3C257.008 1337.3 344.419 1300.16 430.232 1300.16C516.046 1300.16 622.538 1331.11 660.682 1340.39C698.825 1349.68 724.248 1352.78 724.248 1352.78C724.248 1352.78 717.897 1444.07 722.651 1487.4C727.405 1530.73 743.32 1623.56 743.32 1623.56C743.32 1623.56 686.105 1637.5 584.395 1563.22C482.685 1488.94 442.953 1465.73 393.686 1440.98C365.545 1426.84 274.492 1433.24 274.492 1433.24C274.492 1433.24 236.348 1369.8 257.008 1337.3Z" fill="#C28375"/>
<path d="M743.321 1623.57C743.321 1623.57 727.443 1530.73 722.652 1487.4C722.092 1482.22 721.718 1476.36 721.401 1470.06C629.273 1471.56 468.667 1416.63 384.142 1400.75C341.001 1392.64 288.876 1396.72 259.045 1400.35C263.257 1411.73 268.424 1422.73 274.493 1433.24C274.493 1433.24 365.546 1426.84 393.687 1440.98C442.954 1465.73 482.686 1488.95 584.396 1563.22C686.106 1637.49 743.321 1623.57 743.321 1623.57Z" fill="#BD7969"/>
<path d="M53.5695 956.645C53.5695 956.645 32.91 975.212 28.1467 995.33C23.3834 1015.45 20.1986 1174.83 18.6109 1199.59C17.0231 1224.35 20.1986 1280.05 18.6109 1331.12C17.35 1371.8 -5.23354 1507.52 1.12684 1538.46C7.48722 1569.4 37.6825 1626.66 131.454 1654.52C225.225 1682.38 298.318 1691.65 320.575 1697.84C342.831 1704.03 412.749 1710.22 412.749 1710.22C412.749 1710.22 425.46 1666.89 434.996 1615.83C444.532 1564.77 447.708 1470.38 447.708 1470.38C447.708 1470.38 396.834 1440.98 372.99 1436.34C349.145 1431.7 287.176 1425.51 287.176 1425.51C285.812 1403.7 283.158 1382 279.228 1360.51C272.867 1326.47 274.464 1317.18 274.464 1317.18C274.464 1317.18 295.124 1283.15 296.712 1256.84C298.299 1230.53 255.393 1184.11 242.681 1145.43C229.97 1106.74 220.424 1081.98 196.589 1054.13C172.754 1026.28 86.9405 950.453 53.5695 956.645Z" fill="#FDD2C9"/>
<path d="M253.824 1564.78C215.764 1567.58 150.694 1591.73 101.249 1603.47C73.8279 1610 49.4883 1603.88 29.6787 1593.36C49.5444 1616.48 81.4677 1639.68 131.482 1654.53C225.235 1682.37 298.346 1691.66 320.603 1697.85C342.86 1704.04 412.777 1710.23 412.777 1710.23C412.777 1710.23 425.488 1666.9 435.024 1615.84C437.826 1600.84 440.077 1582.11 441.861 1563.12C415.374 1562.67 306.294 1560.88 253.824 1564.78Z" fill="#FF9985"/>
<path d="M35.7305 1600.03C55.8296 1620.88 86.2586 1641.12 131.454 1654.56C225.206 1682.4 298.318 1691.7 320.575 1697.89C342.831 1704.08 412.749 1710.26 412.749 1710.26C412.749 1710.26 417.148 1695.32 422.705 1672.53C364.107 1673.28 235.415 1650.75 131.454 1628.26C88.4908 1618.93 57.3614 1608.84 35.7305 1600.03Z" fill="#FF9985"/>
<path d="M869.987 1365.6C865.747 1336.71 869.987 1235.61 874.218 1190.22C878.449 1144.83 899.65 1097.37 922.962 1058.18C950.571 1011.75 997.129 928.186 1020.44 930.222C1043.75 932.258 1064.95 998.318 1069.19 1021.01C1073.43 1043.71 1109.44 1252.11 1113.69 1274.8C1117.94 1297.5 1139.11 1446.05 1145.44 1468.75C1151.78 1491.44 1153.92 1526.52 1134.85 1551.28C1115.79 1576.04 967.438 1563.66 912.343 1505.89C857.248 1448.13 869.987 1365.6 869.987 1365.6Z" fill="#FDD2C9"/>
<path d="M766.193 1380.02C766.193 1380.02 802.217 1309.87 829.769 1270.67C857.321 1231.47 861.524 1227.35 889.105 1206.71C916.685 1186.07 954.801 1159.25 961.152 1169.57C967.503 1179.89 956.351 1194.7 948.44 1202.59C940.529 1210.48 906.056 1233.53 897.576 1247.98C891.91 1257.93 886.954 1268.28 882.744 1278.93C882.744 1278.93 906.094 1247.98 920.888 1233.53C935.682 1219.08 948.44 1214.96 961.152 1206.71C973.863 1198.45 1005.66 1181.95 1007.78 1192.27C1009.89 1202.59 995.064 1217.03 982.353 1225.28C969.641 1233.54 944.2 1256.23 935.729 1268.61L914.528 1299.56C914.528 1299.56 948.44 1264.48 961.152 1254.17C973.863 1243.86 981.83 1242.29 992.43 1236.09C1003.03 1229.89 1034.07 1221.54 1026.85 1235.59C1014.14 1260.35 992.944 1270.67 980.223 1280.99C967.503 1291.31 944.2 1316.06 944.2 1316.06C944.2 1316.06 965.392 1309.87 973.872 1301.63C982.353 1293.38 1009.9 1270.67 1009.9 1283.05C1009.9 1295.42 1003.54 1307.81 992.944 1318.13C982.353 1328.45 954.8 1353.21 954.8 1353.21C954.8 1353.21 800.05 1355.26 766.193 1380.02Z" fill="#C28375"/>
<path d="M704.7 1349.08C704.7 1349.08 689.859 1417.17 685.619 1452.24C681.379 1487.31 675.028 1582.23 679.268 1606.99C683.508 1631.75 696.22 1703.97 696.22 1703.97C696.22 1703.97 742.834 1693.7 772.507 1685.39C802.179 1677.09 884.808 1662.7 908.157 1660.63C931.507 1658.57 1024.71 1631.76 1052.26 1621.41C1079.81 1611.06 1115.83 1582.18 1128.55 1565.7C1141.27 1549.21 1153.97 1516.2 1147.62 1489.35C1141.27 1462.51 1105.24 1410.9 1062.85 1375.88C1020.47 1340.85 959.022 1332.54 959.022 1332.54C959.022 1332.54 895.446 1349.05 853.062 1349.05C810.678 1349.05 715.291 1344.95 704.7 1349.08Z" fill="#FDD2C9"/>
<path d="M1062.83 1528.58C1024.68 1536.84 918.731 1538.85 836.084 1536.84C770.705 1535.21 704.066 1537.44 679.026 1538.45C677.625 1567.84 677.252 1595.28 679.269 1606.99C683.509 1631.76 696.221 1703.97 696.221 1703.97C696.221 1703.97 742.836 1693.7 772.508 1685.39C802.18 1677.09 884.809 1662.7 908.159 1660.63C931.508 1658.57 1024.71 1631.76 1052.26 1621.41C1079.81 1611.06 1115.83 1582.18 1128.55 1565.7C1141.27 1549.21 1155.81 1513.62 1149.46 1486.79C1134.6 1513.65 1100.98 1520.33 1062.83 1528.58Z" fill="#FF9985"/>
<path d="M376.725 501.683C376.725 501.683 372.383 482.359 359.326 484.778C346.269 487.197 344.531 497.657 345.4 507.324C346.268 516.99 354.105 532.28 359.326 549.184C364.546 566.089 362.482 578.137 363.939 585.478C365.733 594.463 373.279 592.661 373.279 592.661L383.721 578.165C378.588 566.803 376.201 554.392 376.754 541.937C377.659 520.978 376.725 501.683 376.725 501.683Z" fill="#BD7969"/>
<path d="M701.339 499.233C701.339 499.233 705.692 479.91 718.749 482.329C731.805 484.748 733.533 495.208 732.665 504.875C731.796 514.541 723.96 529.83 718.749 546.735C713.537 563.64 715.302 575.501 713.565 582.749C713.111 584.773 712.012 586.596 710.434 587.943C708.856 589.29 706.884 590.089 704.814 590.221L694.372 575.735C699.511 564.371 701.898 551.956 701.339 539.497C700.471 518.557 701.339 499.233 701.339 499.233Z" fill="#BD7969"/>
<path d="M393.733 347.473C380.059 363.78 365.013 415.102 366.321 435.631C367.628 456.159 372.859 532.25 372.859 555.178C372.859 578.107 372.858 625.226 388.521 655.403C401.7 680.797 419.408 706.939 442.907 728.672C454.936 739.805 488.149 781.18 540.367 780.199C604.326 778.985 633.046 752.423 650.007 727.057C665.445 703.988 699.171 665.069 705.7 627.626C710.183 601.896 704.392 539.469 703.085 515.326C701.777 491.183 709.174 441.244 703.953 414.682C698.732 388.119 675.682 331.755 603.887 307.602C532.092 283.45 452.471 277.435 393.733 347.473Z" fill="#C28375"/>
<path d="M364.274 530.806C366.518 533.445 368.064 536.825 368.718 540.52C369.607 546.347 372.891 556.062 376.446 550.235C380.001 544.408 380.272 520.11 380.272 504.58C380.272 489.05 388.289 472.517 390.067 463.772C391.844 455.026 392.724 444.342 396.288 419.086C399.852 393.83 406.074 378.289 422.09 362.736C438.106 347.184 445.207 343.307 457.64 339.419C470.073 335.53 514.567 333.592 527.009 337.48C539.452 341.368 548.348 338.449 559.023 334.561C569.697 330.673 603.488 328.735 618.616 340.388C633.743 352.041 655.101 379.258 662.193 399.657C669.284 420.055 673.756 446.281 679.098 464.741C684.439 483.201 685.31 489.997 690.651 502.631C695.993 515.264 697.78 516.233 697.78 525.948C697.78 535.663 701.316 558 701.316 558C701.316 558 704.881 546.347 707.547 541.49C710.213 536.632 712 532.755 712 532.755C712 532.755 704.881 489.028 704.881 471.537C704.881 454.046 701.316 429.77 699.548 424.913C697.78 420.055 697.771 405.483 695.993 399.657C694.216 393.83 685.31 359.817 682.653 352.052C679.996 344.287 664.878 326.796 660.415 322.897C655.953 318.997 642.64 294.722 635.511 291.814C628.383 288.906 604.387 284.038 596.378 280.161C590.738 277.407 584.687 276.084 578.603 276.273C575.058 276.273 575.048 273.354 565.263 271.415C555.477 269.477 536.814 265.589 528.777 267.527C520.741 269.466 518.103 272.385 514.548 272.385H510.993C502.096 272.385 479.868 280.161 472.749 281.13C465.629 282.099 459.408 277.242 454.974 285.987C450.539 294.733 449.641 296.683 444.299 298.621C438.957 300.56 438.078 296.671 435.412 300.56C432.746 304.448 418.535 324.869 414.999 324.869C411.462 324.869 405.204 322.919 404.324 329.726C403.445 336.533 402.538 333.614 398.983 337.503C395.428 341.391 393.65 344.265 392.752 348.187C391.854 352.109 383.864 368.585 381.198 375.381C378.629 381.503 376.828 388.051 375.856 394.811C374.977 401.573 371.422 387.045 371.422 406.475C371.422 425.904 370.486 432.7 369.635 436.588C368.784 440.477 366.969 446.303 366.969 451.161C366.969 456.018 366.969 459.906 366.033 463.794C365.098 467.682 364.256 493.908 363.367 498.731C362.478 503.555 363.367 508.446 364.302 512.334C365.238 516.222 364.274 530.806 364.274 530.806Z" fill="#3E2625"/>
<path d="M709.626 555.51C754.556 563.32 795.626 555.511 838.556 534.021C895.796 505.401 973.346 384.581 908.886 293.741C844.426 202.901 898.126 194.391 879.576 132.581C853.206 44.6806 779.956 9.51055 668.576 0.720549C557.196 -8.06945 540.876 66.7206 492.766 53.4706C453.696 42.7206 422.446 53.4706 385.326 76.9106C314.326 121.771 340.396 173.601 331.606 217.561C322.816 261.521 295.536 267.931 299.366 311.331C308.156 410.951 360.926 403.951 366.816 453.161C410.716 425.601 453.546 384.441 586.526 408.021C719.506 431.601 709.626 555.51 709.626 555.51Z" fill="#FDD2C9"/>
<path d="M736.566 324.99C762.946 316.2 792.686 319.16 819.876 299.74C860.876 270.44 866.756 296.81 866.756 296.81C866.756 296.81 866.757 326.11 828.667 331.97C790.577 337.83 772.997 323.18 761.267 329.05C749.537 334.92 736.566 324.99 736.566 324.99Z" fill="#FF9985"/>
<path d="M761.266 343.7C761.266 343.7 767.136 340.77 796.436 349.56C825.736 358.35 863.826 337.84 860.896 355.42C857.966 373 828.666 381.79 805.226 375.93C781.786 370.07 761.266 343.7 761.266 343.7Z" fill="#FF9985"/>
<path d="M867.856 255.65C844.416 235.14 847.346 214.65 859.066 176.54C869.636 142.18 868.287 129.26 863.627 94.8203C870.372 106.761 875.74 119.429 879.627 132.58C898.177 194.39 844.467 202.91 908.937 293.74C912.025 298.09 914.882 302.6 917.497 307.25C908.627 291.33 888.246 273.49 867.856 255.65Z" fill="#FF9985"/>
<path d="M626.186 202.511C629.106 179.071 664.275 108.751 719.945 123.401C752.005 131.831 719.945 146.841 687.715 152.701C655.485 158.561 626.186 202.511 626.186 202.511Z" fill="#FF9985"/>
<path d="M652.557 211.3C652.557 211.3 652.556 182 690.646 167.35C728.736 152.7 760.967 161.49 758.037 176.14C755.107 190.79 743.387 184.93 714.037 187.86C684.687 190.79 652.557 211.3 652.557 211.3Z" fill="#FF9985"/>
<path d="M331.686 217.56C336.106 195.43 326.796 168.72 336.566 139.42C342.436 157 348.826 174.42 363.916 197.05C393.216 241 372.706 226.35 369.776 255.65L358.056 270.3C339.956 263.51 321.866 266.35 306.126 273.22C313.936 257.33 326.246 244.48 331.686 217.56Z" fill="#FF9985"/>
<path d="M543.426 183.64C560.906 157.86 588.336 127.17 567.656 125.8C549.166 124.59 532.296 141.12 529.596 153.94C526.896 166.76 514.596 212.39 514.596 212.39C514.596 212.39 509.306 178.68 499.146 164.94C480.386 139.56 454.876 146.24 442.146 155.62C429.416 165 453.746 176.81 472.376 190.11C491.006 203.41 514.606 212.41 514.606 212.41L543.426 183.64Z" fill="#FF9985"/>
<path d="M366.847 453.16C362.577 417.48 333.666 411.32 314.736 372.66C336.736 366.74 378.237 347.37 395.557 304.07L460.557 308.39L478.137 346.49C478.137 346.49 478.136 380.34 477.986 403.43C424.126 411.04 395.687 435.04 366.847 453.16Z" fill="#FF9985"/>
<path d="M379.447 453C379.447 453 374.101 440.79 368.735 412.3C363.369 383.809 359.392 292.529 423.36 234.633C487.327 176.736 609.55 172.417 673.05 197.669C736.551 222.922 766.668 278.904 772.815 287.673C787.666 325.719 780.22 402.744 767.054 440.642C765.329 424.824 773.485 402.716 749.535 357.049C726.945 313.934 681.47 251.486 540.064 268.109C418.176 282.437 376.241 419.089 379.447 453Z" fill="#FDD2C9"/>
<path d="M655.347 221.811C671.727 239.451 679.957 267.461 683.907 295.161C719.517 315.761 737.817 346.551 749.687 371.401C773.297 420.811 765.257 444.671 766.957 461.771C779.957 420.771 783.426 329.831 768.796 288.701C762.726 279.231 736.897 226.401 674.287 199.101C617.287 174.251 512.386 175.901 446.446 223.591C435.156 233.051 428.137 239.041 428.137 239.041C428.137 239.041 599.057 161.191 655.347 221.811Z" fill="#FF9985"/>
</svg>
