<svg id="_ëîé_2" data-name="—ëîé_2" xmlns="http://www.w3.org/2000/svg" xmlns:xlink="http://www.w3.org/1999/xlink" viewBox="0 0 2180.28 1717.3"><defs><style>.cls-1{opacity:0.35;fill:url(#linear-gradient);}.cls-2{fill:#ffc0af;}.cls-3{fill:#ffb4a2;}.cls-4{fill:#a92000;}.cls-5{fill:#7c1400;}.cls-6{fill:#ff8e73;}.cls-7{fill:#ff6d4a;}.cls-8{fill:#f68895;}.cls-9{fill:#2795f8;}.cls-10{fill:url(#linear-gradient-2);}.cls-11{fill:#0386e9;}.cls-12{fill:#0577e7;}.cls-13,.cls-16{fill:#ff4a1f;}.cls-14{fill:#f17785;}.cls-15{fill:#fb446c;}.cls-16{opacity:0.5;}.cls-17{fill:url(#linear-gradient-3);}.cls-18{fill:url(#linear-gradient-4);}.cls-19{fill:url(#Áåçûìÿííûé_ãðàäèåíò_14);}.cls-20{fill:url(#Áåçûìÿííûé_ãðàäèåíò_14-2);}.cls-21{fill:#4625ac;}.cls-22{fill:#fbd5e2;}.cls-23{fill:#c5205c;}.cls-24{fill:#e03c1b;}.cls-25{fill:#006eb2;}.cls-26{fill:url(#Áåçûìÿííûé_ãðàäèåíò_14-3);}.cls-27{fill:url(#Áåçûìÿííûé_ãðàäèåíò_49);}.cls-28{fill:#fff;}.cls-29{fill:url(#Áåçûìÿííûé_ãðàäèåíò_49-2);}.cls-30{fill:url(#Áåçûìÿííûé_ãðàäèåíò_49-3);}</style><linearGradient id="linear-gradient" x1="395.03" y1="1013.16" x2="2252.39" y2="1013.16" gradientUnits="userSpaceOnUse"><stop offset="0" stop-color="#ffd2c7"/><stop offset="1" stop-color="#ffd2c7"/></linearGradient><linearGradient id="linear-gradient-2" x1="1859.07" y1="1313.78" x2="1486.83" y2="1809.52" gradientUnits="userSpaceOnUse"><stop offset="0" stop-color="#ff4a1f"/><stop offset="0.08" stop-color="#ff4f26"/><stop offset="0.39" stop-color="#ff603a"/><stop offset="0.7" stop-color="#ff6a46"/><stop offset="1" stop-color="#ff6d4a"/></linearGradient><linearGradient id="linear-gradient-3" x1="1911.15" y1="1026.17" x2="1912.97" y2="1210.42" gradientUnits="userSpaceOnUse"><stop offset="0" stop-color="#ff6d4a"/><stop offset="0.06" stop-color="#ff714f"/><stop offset="0.37" stop-color="#ff8163"/><stop offset="0.69" stop-color="#ff8b6f"/><stop offset="1" stop-color="#ff8e73"/></linearGradient><linearGradient id="linear-gradient-4" x1="1959.32" y1="952.41" x2="1784.33" y2="1023.5" xlink:href="#linear-gradient-3"/><linearGradient id="Áåçûìÿííûé_ãðàäèåíò_14" x1="1860.25" y1="900.32" x2="1867.68" y2="993.25" gradientUnits="userSpaceOnUse"><stop offset="0" stop-color="#f17785"/><stop offset="0.14" stop-color="#f37e8c"/><stop offset="0.42" stop-color="#f58693"/><stop offset="1" stop-color="#f68895"/></linearGradient><linearGradient id="Áåçûìÿííûé_ãðàäèåíò_14-2" x1="1843.35" y1="834.07" x2="1864.52" y2="954.05" xlink:href="#Áåçûìÿííûé_ãðàäèåíò_14"/><linearGradient id="Áåçûìÿííûé_ãðàäèåíò_14-3" x1="707.94" y1="1212.47" x2="838.65" y2="1334.01" xlink:href="#Áåçûìÿííûé_ãðàäèåíò_14"/><linearGradient id="Áåçûìÿííûé_ãðàäèåíò_49" x1="812.19" y1="920.18" x2="843.34" y2="1092.49" gradientUnits="userSpaceOnUse"><stop offset="0" stop-color="#f17785"/><stop offset="0.1" stop-color="#f27b89"/><stop offset="0.5" stop-color="#f58592"/><stop offset="1" stop-color="#f68895"/></linearGradient><linearGradient id="Áåçûìÿííûé_ãðàäèåíò_49-2" x1="866.58" y1="978.73" x2="820.34" y2="858.83" xlink:href="#Áåçûìÿííûé_ãðàäèåíò_49"/><linearGradient id="Áåçûìÿííûé_ãðàäèåíò_49-3" x1="817.83" y1="1054.84" x2="764.78" y2="935.76" gradientTransform="translate(67.22 -104.25) rotate(3.39)" xlink:href="#Áåçûìÿííûé_ãðàäèåíò_49"/></defs><path class="cls-1" d="M1734.58,1838.15a328.8,328.8,0,0,1,66.4-124.29,2790.09,2790.09,0,0,0,411.95-650.14c32.1-70.71,60.32-156.87,18.28-222.16-27.81-43.19-80.47-65.61-107.92-109-26-41.18-24.71-94-15.06-141.77s26.72-94.31,29.43-143c4-72.27-26-145.72-79.46-194.5s-129.37-71.93-201-61.3c-130.36,19.34-231.57,140.31-363.15,147.7-90.63,5.09-173.71-45-254.55-86.32-91.28-46.64-188.75-84.27-290.74-94.63s-209.32,8.47-293.73,66.65S513,384.29,520.27,486.54c5,70.73,39.34,140.83,23.24,209.89C523.39,782.76,431.73,835.93,403.7,920c-22.17,66.52.52,141.43,41.9,198S545,1216.49,602,1257.34c182.18,130.56,265.84,372.24,319.11,589.94,267.58,6.35,539.88,16.66,807.46,23C1729.3,1859.32,1731.66,1848.68,1734.58,1838.15Z" transform="translate(-233.57 -156.04)"/><path class="cls-2" d="M1677.36,1846.13c115.51-96.36,172.23-264.58,137.45-410.92-11.8-49.66-33.09-98.25-31.18-149.26s38.51-106.37,89.53-104.8c23.71.74,46.43,13.57,70,10.81,35.3-4.14,56.85-40.28,69.88-73.35,21-53.36,34.45-110.61,30.92-167.85s-25.22-114.57-66.45-154.43c-36.35-35.14-84.81-54.51-132.53-71.22s-96.91-32-138.15-61.25-74-75.81-72.16-126.34c2.42-65.17,64-117.37,128.65-125.75s129.38,18.51,182.81,55.9C2031.18,527.2,2096.06,615,2128,713.83c6.94,21.5,12.57,43.92,25.3,62.58s34.75,33.1,57,29.33c25.95-4.4,42.4-31.5,46.2-57.54s-1.44-52.53-.81-78.84c.36-15.34,3.46-32,15.08-42,20.69-17.85,53.33-3.64,72.72,15.63,45.35,45,62.15,111.45,67.8,175.13,19.22,216.94-70.61,433-206.23,603.39S1859.21,1726.27,1677.36,1846.13Z" transform="translate(-233.57 -156.04)"/><path class="cls-2" d="M970.06,1846.13c-115.5-96.36-172.23-264.58-137.45-410.92,11.8-49.66,33.09-98.25,31.19-149.26s-38.51-106.37-89.53-104.8c-23.71.74-46.44,13.57-70,10.81-35.31-4.14-56.86-40.28-69.88-73.35-21-53.36-34.45-110.61-30.93-167.85s25.22-114.57,66.46-154.43c36.35-35.14,84.8-54.51,132.52-71.22s96.91-32,138.16-61.25,74-75.81,72.15-126.34c-2.41-65.17-64-117.37-128.65-125.75s-129.37,18.51-182.8,55.9C616.25,527.2,551.37,615,519.46,713.83c-6.94,21.5-12.56,43.92-25.29,62.58s-34.75,33.1-57,29.33c-25.95-4.4-42.4-31.5-46.21-57.54s1.45-52.53.82-78.84c-.37-15.34-3.47-32-15.08-42C356,609.48,323.35,623.69,304,643c-45.35,45-62.15,111.45-67.79,175.13-19.22,216.94,70.6,433,206.23,603.39S788.22,1726.27,970.06,1846.13Z" transform="translate(-233.57 -156.04)"/><ellipse class="cls-3" cx="1090.14" cy="1700.24" rx="711.19" ry="17.06"/><path class="cls-4" d="M1290.33,1755.21c18.2-49.09,17.26-102.9,16.12-155.24-1.32-60.87-2.7-122.07-14-181.89-7.4-39.34-19.31-78.3-37.46-113.85a302.7,302.7,0,0,0-33.66-52.36c36.13-1.75,67-1.51,97.49-3.69,30.44,2.18,61.34,1.94,97.48,3.69-38.17,47.43-59.87,106.39-71.12,166.21-.77,4.13-1.5,8.25-2.18,12.39-9.26,55.87-10.53,112.82-11.77,169.5-1.15,52.34-2.08,106.15,16.12,155.24s60.17,93.08,112.32,97.58H1178C1230.17,1848.29,1272.14,1804.31,1290.33,1755.21Z" transform="translate(-233.57 -156.04)"/><path class="cls-5" d="M1416.35,1251.87c-38.17,47.43-59.87,106.39-71.12,166.21-.77,4.13-1.5,8.25-2.18,12.39-.08-3.71-.27-7.44-.54-11.16-2.12-28.88-10.49-58-28.57-80.65-14.55-18.2-36.06-31.52-58.9-34.43a302.7,302.7,0,0,0-33.66-52.36c36.13-1.75,67-1.51,97.49-3.69C1349.31,1250.36,1380.21,1250.12,1416.35,1251.87Z" transform="translate(-233.57 -156.04)"/><path class="cls-4" d="M1629.31,1242.74a11.4,11.4,0,0,1-.19,2,15.58,15.58,0,0,1-4.26,7.6c-25,26.76-152.47,47.12-306,47.12-120.89,0-225.64-12.63-276.9-31.06-21.45-7.7-33.54-16.43-33.54-25.67a11.14,11.14,0,0,1,.75-4c11.16-29.49,145.55-52.76,309.69-52.76,93.56,0,177.44,7.56,234.36,19.52q4.79,1,9.33,2.06C1604.35,1217.24,1629.31,1229.46,1629.31,1242.74Z" transform="translate(-233.57 -156.04)"/><path class="cls-6" d="M1284.24,1161.71c0,29.28-19.22,53-42.91,53s-42.91-23.75-42.91-53c0-.39,0-.79,0-1.18a232.05,232.05,0,0,1,85.8,0C1284.24,1160.92,1284.24,1161.32,1284.24,1161.71Z" transform="translate(-233.57 -156.04)"/><path class="cls-7" d="M1281,1162.25c-3.54.69-7.64,1.29-12.17,1.77a254.36,254.36,0,0,1-25.85,1.25,240.84,240.84,0,0,1-30.32-1.78c-2.8-.37-5.38-.78-7.72-1.24,2.08-.41,4.37-.78,6.82-1.11a236.66,236.66,0,0,1,31.22-1.9c7.44,0,14.52.28,20.93.8A157.45,157.45,0,0,1,1281,1162.25Z" transform="translate(-233.57 -156.04)"/><path class="cls-6" d="M1208.23,1193.8l-.36-1.51-1.85,0a88.24,88.24,0,0,1-13.3-.8,24.32,24.32,0,0,1-6.9-2.18,10,10,0,0,1-4.85-4.36c-.81-1.69-.64-4,.14-6.24a18.2,18.2,0,0,1,3.45-6,10.77,10.77,0,0,1,4.79-3.28,10.63,10.63,0,0,1,5.15-.23,17.36,17.36,0,0,1,7.41,3.69c1.6,1.31,2.46,2.23,2.86,2s.21-1.53-1-3.58a15.74,15.74,0,0,0-8-6.32,14.47,14.47,0,0,0-7.59-.53,15.47,15.47,0,0,0-7.66,4.32,22.51,22.51,0,0,0-5,7.86,17.31,17.31,0,0,0-1.11,5.09,12.31,12.31,0,0,0,1,5.76,13,13,0,0,0,3.51,4.54,18.52,18.52,0,0,0,4.33,2.71,27.92,27.92,0,0,0,8.72,2.36,55.43,55.43,0,0,0,12.7-.29,15.48,15.48,0,0,1,.5,6.43c-.29,2-.82,3.11-.45,3.39s1.55-.42,2.72-2.62A15.08,15.08,0,0,0,1208.23,1193.8Z" transform="translate(-233.57 -156.04)"/><path class="cls-8" d="M1662.94,1295.19c-13.86-6.22-29-10.08-44.18-9.19s-30.32,10.18-40.68,21.29c21.46,13.94,49.57,14.9,73.48,5.8C1654.76,1307.72,1659.73,1300.56,1662.94,1295.19Z" transform="translate(-233.57 -156.04)"/><path class="cls-9" d="M1809.62,1195.05a251.81,251.81,0,0,1-7.9,45c-5.91,21.82-5.76,51.1-24.36,64-16.49,11.41-47.32,6.68-67.29,8.71a534.78,534.78,0,0,1-63.91,2.69c-2.11-23.64.54-26,.54-26,35.78-15.24,75.22-24.69,114.08-26.51a537,537,0,0,0-.75-155.46q-2.12-14.13-5-28.11c12.64,1.25,26.18,2,38.83,3.27A256.49,256.49,0,0,1,1809.62,1195.05Z" transform="translate(-233.57 -156.04)"/><path class="cls-4" d="M1901.88,1861.5c1-.24.53-6.73-.83-18.3q-.52-4.34-1.19-9.6c-.39-3.51-.83-7.33-1.29-11.43-.91-8.19-2.15-17.48-3.1-27.8q-.78-7.72-1.65-16.16c-.57-5.62-1-11.48-1.52-17.53-1.14-12.09-1.9-25.06-2.86-38.65-.47-6.8-.73-13.79-1.13-20.9-.2-3.56-.39-7.15-.59-10.78s-.26-7.3-.39-11-.29-7.43-.43-11.19l-.23-5.65c0-1.9-.09-3.8-.13-5.71q-.3-11.44-.59-23.2c-.1-7.82-.2-15.56-.29-23.18l-.09-5.69v-5.65c0-3.75,0-7.46,0-11.15s-.06-7.34-.09-11,0-7.2.07-10.74c.06-7.09-.06-14,0-20.79.17-13.54,0-26.4.15-38.44q-.06-9-.11-17.45t-.16-16.12c-.31-10.29-.46-19.6-1-27.84-.25-4.11-.61-8-1-11.5s-.69-6.79-1.14-9.73c-1.79-11.75-4.62-18.52-8.24-18.93s-7.66,5.62-11.6,17c-1,2.84-2,6-3,9.51s-1.79,7.32-2.66,11.43c-1.7,8.23-3.46,17.63-4.68,28.1q-1,7.85-1.85,16.44c-.57,5.73-.91,11.7-1.32,17.88-.87,12.36-1.1,25.6-1.25,39.53-.06,7,.16,14.11.29,21.4.1,3.64.19,7.33.29,11s.38,7.46.58,11.25.43,7.6.65,11.45q.17,2.88.35,5.79c.15,1.93.31,3.88.47,5.83q1,11.69,2.09,23.7,1.4,12,2.75,23.62c.24,1.94.47,3.87.71,5.79s.55,3.83.82,5.74q.82,5.71,1.64,11.32t1.64,11.12c.62,3.65,1.24,7.28,1.85,10.86,1.26,7.16,2.39,14.18,3.72,21,2.69,13.61,5.2,26.53,8,38.52,1.37,6,2.61,11.81,4,17.36s2.72,10.85,4,15.92c2.47,10.15,5.11,19.23,7.34,27.21,1.13,4,2.16,7.7,3.18,11.1s2,6.47,2.94,9.25C1898.61,1855.7,1900.91,1861.74,1901.88,1861.5Z" transform="translate(-233.57 -156.04)"/><path class="cls-4" d="M2002,1857.83c.94-.33-.12-6.76-2.59-18.13q-1-4.28-2.12-9.44l-2.4-11.25c-1.7-8.07-3.83-17.19-5.77-27.38-1-5.07-2.1-10.39-3.21-15.92s-2.09-11.33-3.21-17.3c-2.31-11.93-4.33-24.76-6.6-38.19-1.12-6.72-2.06-13.65-3.15-20.69q-.81-5.28-1.63-10.67t-1.46-10.92q-.75-5.49-1.51-11.09l-.78-5.6c-.22-1.89-.45-3.77-.68-5.67q-1.39-11.36-2.84-23-1.27-11.67-2.53-23c-.22-1.89-.43-3.77-.65-5.65s-.36-3.76-.54-5.62q-.57-5.6-1.12-11.1c-.38-3.66-.77-7.3-1.15-10.89s-.65-7.17-1-10.7c-.63-7.06-1.42-14-2-20.69-1.15-13.49-2.53-26.28-3.58-38.28q-.95-9-1.8-17.35t-1.73-16c-1.31-10.21-2.36-19.46-3.71-27.6-.65-4.08-1.38-7.87-2.07-11.36s-1.35-6.7-2.08-9.58c-2.92-11.52-6.4-18-10-18s-7.07,6.33-9.9,18c-.7,2.92-1.38,6.18-2,9.75s-1.07,7.45-1.54,11.63c-.89,8.35-1.74,17.89-1.93,28.42q-.21,7.9-.25,16.55c0,5.75.23,11.72.42,17.92.33,12.39,1.39,25.59,2.59,39.47.62,6.94,1.52,14,2.37,21.26q.66,5.43,1.35,11t1.67,11.14q.87,5.63,1.75,11.33c.3,1.91.61,3.82.91,5.73s.69,3.83,1,5.76l4.38,23.39q2.53,11.76,5,23.24.64,2.87,1.27,5.7t1.37,5.63q1.38,5.6,2.73,11.11t2.71,10.9q1.47,5.37,2.9,10.64c1.95,7,3.75,13.87,5.74,20.52,4,13.29,7.74,25.91,11.7,37.57,2,5.84,3.74,11.5,5.64,16.89s3.75,10.53,5.51,15.46c3.44,9.86,7,18.64,9.94,26.37,1.51,3.86,2.89,7.45,4.24,10.74s2.67,6.24,3.82,8.93C1998.14,1852.37,2001,1858.16,2002,1857.83Z" transform="translate(-233.57 -156.04)"/><path class="cls-4" d="M1707.23,1861.5c-1-.24-.54-6.73.82-18.3q.54-4.34,1.19-9.6c.4-3.51.83-7.33,1.3-11.43.91-8.19,2.14-17.48,3.09-27.8q.8-7.72,1.65-16.16c.57-5.62,1-11.48,1.52-17.53,1.14-12.09,1.91-25.06,2.87-38.65.46-6.8.72-13.79,1.13-20.9.19-3.56.39-7.15.58-10.78s.26-7.3.4-11,.28-7.43.43-11.19l.22-5.65c0-1.9.09-3.8.14-5.71q.29-11.44.59-23.2c.1-7.82.19-15.56.29-23.18l.09-5.69v-5.65c0-3.75,0-7.46,0-11.15s.06-7.34.1-11-.05-7.2-.08-10.74c0-7.09.06-14,0-20.79-.16-13.54,0-26.4-.14-38.44q0-9,.1-17.45t.16-16.12c.32-10.29.47-19.6,1-27.84.26-4.11.61-8,1-11.5s.7-6.79,1.15-9.73c1.78-11.75,4.62-18.52,8.24-18.93s7.65,5.62,11.6,17c1,2.84,2,6,2.94,9.51s1.8,7.32,2.67,11.43c1.7,8.23,3.46,17.63,4.67,28.1q1,7.85,1.85,16.44c.57,5.73.92,11.7,1.32,17.88.88,12.36,1.11,25.6,1.25,39.53.06,7-.15,14.11-.29,21.4-.09,3.64-.19,7.33-.28,11s-.39,7.46-.58,11.25-.43,7.6-.65,11.45c-.12,1.92-.23,3.85-.35,5.79s-.32,3.88-.47,5.83l-2.1,23.7q-1.38,12-2.74,23.62-.36,2.91-.71,5.79t-.82,5.74q-.83,5.71-1.64,11.32t-1.64,11.12c-.63,3.65-1.24,7.28-1.86,10.86-1.26,7.16-2.38,14.18-3.72,21-2.69,13.61-5.19,26.53-8,38.52-1.37,6-2.61,11.81-4,17.36s-2.72,10.85-4,15.92c-2.46,10.15-5.11,19.23-7.33,27.21-1.13,4-2.16,7.7-3.19,11.1l-2.93,9.25C1710.5,1855.7,1708.19,1861.74,1707.23,1861.5Z" transform="translate(-233.57 -156.04)"/><path class="cls-5" d="M1704.56,1803.61a165.79,165.79,0,0,0-70.72,53.6c52.72,17,110.25,16.11,161.2-5.59-2.73-17.95-8.3-34.94-18.82-49.73C1751.49,1800,1727.63,1794.5,1704.56,1803.61Z" transform="translate(-233.57 -156.04)"/><path class="cls-5" d="M1462.51,1779a185.1,185.1,0,0,0-86.56,48.33c55.68,27,119.46,34.94,179.2,18.83-.22-20.28-3.76-39.94-13.1-57.94C1515,1782.26,1489.44,1772.51,1462.51,1779Z" transform="translate(-233.57 -156.04)"/><path class="cls-4" d="M1606.22,1857.83c-.93-.33.13-6.76,2.6-18.13.64-2.85,1.34-6,2.12-9.44s1.53-7.22,2.39-11.25c1.7-8.07,3.83-17.19,5.78-27.38,1-5.07,2.09-10.39,3.21-15.92s2.09-11.33,3.21-17.3c2.3-11.93,4.33-24.76,6.6-38.19,1.12-6.72,2.06-13.65,3.15-20.69q.81-5.28,1.63-10.67t1.45-10.92q.75-5.49,1.52-11.09.38-2.79.77-5.6l.69-5.67q1.4-11.36,2.84-23,1.27-11.67,2.53-23c.21-1.89.43-3.77.64-5.65s.37-3.76.55-5.62q.55-5.6,1.11-11.1c.39-3.66.78-7.3,1.16-10.89s.65-7.17,1-10.7c.63-7.06,1.41-14,2-20.69,1.15-13.49,2.53-26.28,3.58-38.28q.93-9,1.8-17.35t1.72-16c1.31-10.21,2.36-19.46,3.71-27.6.66-4.08,1.38-7.87,2.07-11.36s1.36-6.7,2.09-9.58c2.91-11.52,6.39-18,10-18s7.07,6.33,9.89,18c.71,2.92,1.38,6.18,2,9.75s1.08,7.45,1.55,11.63c.89,8.35,1.73,17.89,1.93,28.42q.21,7.9.24,16.55c0,5.75-.22,11.72-.42,17.92-.33,12.39-1.38,25.59-2.59,39.47-.61,6.94-1.52,14-2.36,21.26q-.68,5.43-1.35,11-.84,5.52-1.67,11.14t-1.76,11.33q-.45,2.87-.91,5.73c-.34,1.92-.68,3.83-1,5.76L1677.3,1638q-2.55,11.76-5,23.24-.63,2.87-1.26,5.7t-1.37,5.63q-1.38,5.6-2.73,11.11t-2.71,10.9q-1.47,5.37-2.9,10.64c-2,7-3.75,13.87-5.74,20.52-4,13.29-7.74,25.91-11.7,37.57-1.95,5.84-3.74,11.5-5.64,16.89s-3.76,10.53-5.51,15.46c-3.44,9.86-7,18.64-9.94,26.37-1.52,3.86-2.9,7.45-4.25,10.74l-3.82,8.93C1610,1852.37,1607.16,1858.16,1606.22,1857.83Z" transform="translate(-233.57 -156.04)"/><path class="cls-4" d="M1801.66,1010.67c.11,1.73,8.87,2.82,24.42,3.66,7.77.44,17.23.84,28.07,1.57s23.06,1.75,36.13,4c6.55,1,13.29,2.43,20.13,4.21a154.76,154.76,0,0,1,20.5,6.73c13.58,5.57,27.2,13.28,38.17,23.66a76.81,76.81,0,0,1,13.88,17.34c.9,1.59,1.65,3.24,2.51,4.86s1.35,3.36,2.06,5c.56,1.73,1,3.5,1.6,5.25.38,1.81.76,3.62,1.14,5.45,2.42,14.77-.37,31.25-5.33,48.34-2.47,8.58-5.38,17.14-8.26,25.77-.72,2.17-1.43,4.33-2.15,6.49s-1.37,4.36-2,6.53c-1.35,4.35-2.73,8.65-3.89,13a494.11,494.11,0,0,0-11.59,50c-2.83,16-4.82,31.39-6,45.77-.32,3.6-.5,7.14-.73,10.61-.11,1.74-.21,3.45-.32,5.16s-.12,3.39-.18,5.06c-.11,3.34-.2,6.62-.3,9.82s0,6.34,0,9.4c.12,24.49,2.32,44.22,4.82,57.72a102.92,102.92,0,0,0,3.78,15.46c1.23,3.5,2.34,5.29,3.33,5.22s1.8-2,2.44-5.59,1.05-8.83,1.6-15.56c.94-13.44,1.85-32.8,4.3-56.53.3-3,.62-6,.94-9.1s.77-6.26,1.18-9.49c.19-1.61.4-3.24.6-4.89s.48-3.3.72-5c.5-3.34.92-6.76,1.49-10.21,2.16-13.84,4.95-28.56,8.38-43.94s7.69-31.41,12.77-47.86c1.2-4.13,2.62-8.24,4-12.41q1-3.12,2.07-6.27t2.2-6.37c3-8.57,6-17.45,8.71-26.74a176.56,176.56,0,0,0,6-28.53,100,100,0,0,0-.72-29.5c-.55-2.44-1.1-4.87-1.71-7.28-.78-2.38-1.51-4.77-2.37-7.11s-1.94-4.64-3-6.89-2.34-4.42-3.64-6.54a98.65,98.65,0,0,0-19.12-22.26,127.6,127.6,0,0,0-23.28-16,162,162,0,0,0-24.62-10.74,168.7,168.7,0,0,0-24.39-6.37,212.23,212.23,0,0,0-22.77-3c-3.63-.35-7.17-.48-10.61-.68s-6.79-.23-10-.21h-4.79l-4.63.1c-3,.05-6,.21-8.8.34-11.3.59-20.9,1.62-28.69,2.67C1810,1006.81,1801.55,1009,1801.66,1010.67Z" transform="translate(-233.57 -156.04)"/><ellipse class="cls-4" cx="1581.68" cy="1249.39" rx="171.89" ry="38.63"/><path class="cls-10" d="M1911.93,1339.4c-1.94,24.57-7,51.67-24.24,68.23a50.6,50.6,0,0,1-7.08,5.7c-17.44,11.69-40.1,11.28-61,9.51a713,713,0,0,1-134.24-24.48c-7.27-2-14.53-4.24-21.73-6.53,0,0,1.21,11.78,4.69,33.28,10,62.13,38.92,205.4,111.67,379.69,0,0-24.51,15.28-99.19,9.87,0,0-39.47-65.16-64.39-186.46a972.13,972.13,0,0,1-17.62-132.33s-6.31,23.8-14.46,59.27c-14.55,63.29-34.94,163.72-35.73,232.49,0,0-46.52,3.25-77.12-17.55,0,0-6.13-282.78,106.5-467.64,0,0,31.61-9.76,121.25-6.06,41.16,1.69,94.55,6.24,162.75,15.86Z" transform="translate(-233.57 -156.04)"/><path class="cls-11" d="M2022.33,1157a183.45,183.45,0,0,1-32.18-4.67,615.19,615.19,0,0,1-33,113.21,629.84,629.84,0,0,1-48.28,96.35c-42.37-31-94.29-52.15-145.92-61.76,4-8.14,7.73-16.47,11.07-24.91a343,343,0,0,0,23.31-134.92,349.54,349.54,0,0,0-4.84-49.08c-27.61,3.15-36.79-6.63-36.79-6.63a174,174,0,0,1-3.76-40.41,60.85,60.85,0,0,1,46.44-57.24l.39-.09c3.46-.84,7-1.61,10.52-2.33a335,335,0,0,1,65.72-6.33q13.43,0,26.31,1,10.34.78,20.24,2.13a8.32,8.32,0,0,1,.85.13c1.59.21,3.16.43,4.74.68h.06a135.72,135.72,0,0,1,14,4.15,112,112,0,0,1,74,53.13C2031.54,1067.81,2034.23,1126.4,2022.33,1157Z" transform="translate(-233.57 -156.04)"/><path class="cls-12" d="M1957.2,1265.5a630.86,630.86,0,0,1-48.28,96.36c-42.37-31-94.3-52.15-145.92-61.76,4-8.14,7.74-16.47,11.07-24.91A513.18,513.18,0,0,1,1957.2,1265.5Z" transform="translate(-233.57 -156.04)"/><path class="cls-13" d="M1911.93,1339.4c-1.94,24.57-7,51.67-24.24,68.23-4-21.42-16.1-41.65-32.36-56.52-23.62-21.6-53.55-42.54-85.39-39.08-12.55,1.36-25.27,2.72-37.77,1s-24.92-6.93-33-16.61c41.16,1.69,94.55,6.24,162.75,15.86Z" transform="translate(-233.57 -156.04)"/><path class="cls-14" d="M1956.24,1140.91a189.34,189.34,0,0,0,65.18,16c0,.72-.1,1.43-.16,2.15h0c-.14,1.59-.3,3.19-.46,4.8l-.27,2.46c-.2,1.62-.4,3.27-.62,4.92s-.47,3.32-.75,5q-.86,5.29-1.84,10.76c-.66,3.65-1.6,7.29-2.45,11-.45,1.85-.89,3.71-1.35,5.61s-.92,3.76-1.51,5.63-1.11,3.79-1.69,5.68-1.15,3.81-1.75,5.73c-1.13,3.87-2.57,7.68-4,11.55-.36,1-.73,1.93-1.08,2.9-.72,2-1.44,3.9-2.19,5.85-.38,1-.76,2-1.16,2.93-.84,1.93-1.69,3.87-2.52,5.82s-1.71,3.91-2.58,5.87c-1.74,3.92-3.57,7.82-5.61,11.7-1,1.94-2,3.91-3,5.86-.51,1-1,2-1.51,2.94l-1.62,2.91c-2.21,3.84-4.42,7.71-6.67,11.61-1.08,2-2.34,3.84-3.55,5.77s-2.46,3.8-3.7,5.72-2.48,3.81-3.71,5.74-2.66,3.74-4,5.61l-.32.44c-1.42,1.94-2.82,3.9-4.22,5.84l-2.25,3.11c-.77,1-1.58,2-2.37,3l-4.74,5.92-4.72,5.9-15.1,18.85-13-8.74c18.4-16.34,36.4-33.28,50.55-53.36,16.19-23,27.14-50.71,25.11-78.72-1.81-25-15.51-49.89-37.13-62l1.25-6q.63-3,1.23-5.81Z" transform="translate(-233.57 -156.04)"/><path class="cls-15" d="M2021.42,1156.91c.09-.86.14-1.73.2-2.58-.06.86-.11,1.71-.19,2.58Z" transform="translate(-233.57 -156.04)"/><path class="cls-12" d="M1773,1278.42c-.24-.11.61-2.9,2.36-7.83.44-1.25.93-2.62,1.47-4.1s1-3.17,1.6-4.93c1.12-3.54,2.56-7.52,3.78-12q1-3.37,2-7c.71-2.45,1.29-5,2-7.7,1.43-5.3,2.56-11.06,3.86-17.09a337.48,337.48,0,0,0,6.21-79.82c-.34-6.16-.57-12-1.17-17.48-.27-2.73-.44-5.38-.76-7.91s-.63-5-.93-7.27c-.51-4.65-1.31-8.8-1.87-12.47-.3-1.83-.54-3.55-.82-5.12s-.57-3-.82-4.28c-1-5.14-1.37-8-1.11-8.1s1.15,2.71,2.55,7.78l1.15,4.23c.39,1.55.73,3.26,1.13,5.08.77,3.66,1.76,7.82,2.44,12.48q.57,3.5,1.19,7.3c.4,2.54.64,5.21,1,8,.74,5.5,1.09,11.41,1.54,17.63a304.88,304.88,0,0,1-6.28,80.7c-1.41,6.08-2.67,11.87-4.25,17.18-.76,2.67-1.42,5.26-2.2,7.71l-2.3,7c-1.4,4.5-3,8.45-4.34,12-.68,1.74-1.29,3.37-1.91,4.85l-1.79,4C1774.52,1275.93,1773.2,1278.52,1773,1278.42Z" transform="translate(-233.57 -156.04)"/><path class="cls-16" d="M1685.35,1398.36c-7.27-2-14.53-4.24-21.73-6.53,0,0,1.21,11.78,4.69,33.28-29.88,39.8-45,89.82-50,139.61a492.92,492.92,0,0,0-1.9,63.49,972.13,972.13,0,0,1-17.62-132.33s-6.31,23.8-14.46,59.27q-1.24-5.85-2.38-11.71,1.85-8.18,3.86-16.47c7-28.15,15-55,24.48-79.39a428,428,0,0,1,31.29-65.12l1.35-2.27,2.3,1.23a218.36,218.36,0,0,0,20.8,9.67c6.71,2.72,13.2,5,19.4,6.84C1685.4,1398.08,1685.37,1398.22,1685.35,1398.36Z" transform="translate(-233.57 -156.04)"/><path class="cls-13" d="M1746.91,1410.18c0,.28-2.66.41-7.65.33s-12.31-.54-21.62-1.7a241,241,0,0,1-33.16-6.54l-.2,0c-6.39-1.71-13.1-3.85-20.07-6.48-6.22-2.33-12.64-5.08-19.15-8.29a454.24,454.24,0,0,0-28.75,62.43c-9.18,24.15-17,50.76-23.88,78.71-2.57,10.49-4.93,20.87-7.15,31.1-5.18,23.87-9.56,46.87-13.68,68.39-5.9,30.72-10.94,58.42-14.53,81.77s-5.94,42.34-7.4,55.48-2.17,20.41-2.68,20.41-.59-7.37,0-20.63,2.23-32.4,5.28-55.93,7.56-51.42,13.12-82.25c4.68-26,9.85-54.17,16.52-83.5q1.85-8.18,3.86-16.47c7-28.15,15-55,24.48-79.39a428,428,0,0,1,31.29-65.12l1.35-2.27,2.3,1.23a218.36,218.36,0,0,0,20.8,9.67c6.71,2.72,13.2,5,19.4,6.84l.09,0a275.89,275.89,0,0,0,32.6,7.74C1736.36,1408.85,1746.91,1409.51,1746.91,1410.18Z" transform="translate(-233.57 -156.04)"/><path class="cls-12" d="M1793.89,1030.38s26.17,44.32,82.74,30.69c0,0,17,49-4.22,136.69h29.27v-158Z" transform="translate(-233.57 -156.04)"/><path class="cls-17" d="M1871.73,1024.17c24,54.46,24.3,118.94.68,173.59,20.85,10,47.12,10.76,68.31,1.47,6-31.76,10.56-64.72,11.43-97s-3.65-65.3-17.79-94.37c-7.6,8-18.11,13-28.58,16.46S1882.62,1022.52,1871.73,1024.17Z" transform="translate(-233.57 -156.04)"/><path class="cls-18" d="M1945.8,931.8c14.92,13.32,19.71,35.72,14.8,55.1s-18.3,35.81-34.33,47.77c-25.38,18.92-58.94,27.68-89.7,20.18s-57.47-32.38-64-63.36c-2.93-13.89-1-30.31,10.15-39.1,6.73-5.3,15.72-6.9,24.29-6.78s17.07,1.75,25.63,2.14c22.73,1,40.87-8,60.18-18.53C1910.19,919.76,1929.74,917.47,1945.8,931.8Z" transform="translate(-233.57 -156.04)"/><path class="cls-5" d="M1907.62,839a3.1,3.1,0,0,1,4.43,3.83c-2.79,6.71-3.12,14.66-2.39,22,1,10.58,3.82,21.16,2.51,31.72a42.2,42.2,0,0,1-23.93,32.58c3.72-11.29,2-23.18,1.29-35s-1.48-24,1.69-35.44C1893.5,850.47,1899.94,843.45,1907.62,839Z" transform="translate(-233.57 -156.04)"/><path class="cls-19" d="M1898.74,968.45l-.63.25c-2.6,1.12-5.51,2-8.55,3a119.37,119.37,0,0,1-20.54,4.11A122.42,122.42,0,0,1,1848,976c-3.21-.34-6.27-.63-9.09-1.19-1.41-.26-2.78-.45-4.06-.75l-1.73-.43c.26-1.65.5-3.31.73-5,0-.37.11-.75.16-1.12h0c.11-.71.21-1.41.27-2.13q.67-4.76,1.21-9.56c.38-3.25.7-6.51,1-9.78.12-1.25.21-2.51.32-3.76.74-8.91,1.24-17.87,1.43-26.83,0-1.11.06-2.21.08-3.32,1.45-1.06,2.88-2.12,4.32-3.16A286.56,286.56,0,0,1,1886,882.68c2.1,14.81,4.16,29.68,6.34,44.53,1.76,11.94,3.56,23.82,5.52,35.67,0,.11,0,.22,0,.33.2,1.19.39,2.39.6,3.58C1898.56,967.34,1898.64,967.9,1898.74,968.45Z" transform="translate(-233.57 -156.04)"/><path class="cls-14" d="M1899.15,970.83c-8.1-4.63-17.47-7.32-26.7-9-12.29-2.26-24.87-3.08-37-5.93q.55-4.86,1-9.77c.12-1.24.22-2.51.33-3.76.74-8.9,1.23-17.87,1.42-26.84,0-1.1.07-2.2.08-3.3l4.32-3.17A284.86,284.86,0,0,1,1886,882.68c2.08,14.81,4.15,29.67,6.34,44.54q2.63,18,5.55,36c.2,1.18.39,2.38.6,3.57C1898.69,968.14,1898.91,969.49,1899.15,970.83Z" transform="translate(-233.57 -156.04)"/><path class="cls-8" d="M1896,871.84a14.23,14.23,0,0,1,6.8-11.54l.07,0a11.67,11.67,0,0,1,8.61-1.54c3.78,1,6.54,4.37,7.88,8a18.78,18.78,0,0,1-25.86,23.3A91.7,91.7,0,0,0,1896,871.84Z" transform="translate(-233.57 -156.04)"/><path class="cls-5" d="M1816.33,818a51.27,51.27,0,0,0-15.46,36.72c.05,9.58,3.66,20.08,12.2,24.42a70.66,70.66,0,0,1,14.7-33.28c2.91-3.57,6.43-7.81,5.07-12.21-.67-2.19-2.46-3.85-4.29-5.22C1824.28,825.26,1821.54,819.21,1816.33,818Z" transform="translate(-233.57 -156.04)"/><path class="cls-20" d="M1900.53,889.88c-2.12,22.59-11.72,41.91-24.78,53.25-8.76,7.6-19.09,11.61-29.77,10.6-21.87-2.05-38.38-24.5-41.58-53.41a95.92,95.92,0,0,1-.13-19.49c3.55-37.77,28-66.36,54.56-63.87S1904.08,852.1,1900.53,889.88Z" transform="translate(-233.57 -156.04)"/><path class="cls-5" d="M1870.32,836.58c-2.16,2.49-5.42,3.72-8.59,4.6a62.09,62.09,0,0,1-77.62-48.89c-1.93-10.83,0-23.72,9.18-29.71,5.29-3.44,12.18-3.89,18.23-2.1s11.34,5.63,15.76,10.15c5.18,5.3,9.28,11.57,14.25,17.07s11.16,10.39,18.47,11.66,14.94-1.3,22.36-2.76c6.39-1.27,13.06-1.68,19.39-.11s12.28,5.3,15.6,10.91c4.63,7.84,3.4,18-.28,26.29s-9.53,15.48-14.28,23.26-8.49,16.75-7.24,25.77c-8.76-3.52-16.71-10-21-18.4S1869.26,846,1870.32,836.58Z" transform="translate(-233.57 -156.04)"/><path class="cls-21" d="M1914.81,963.09c-.52.39-1.1.82-1.75,1.27s-1.41.88-2.21,1.35a55.83,55.83,0,0,1-5.62,3l-3.39,1.57c-1,.45-2.06.83-3.15,1.25l-.64.24c-2.62,1.06-5.54,1.91-8.61,2.83a120.21,120.21,0,0,1-20.62,3.67,122.29,122.29,0,0,1-21.07-.23c-3.21-.41-6.25-.76-9.07-1.38-1.4-.28-2.76-.51-4-.84l-1.71-.46-2-.52c-2.34-.6-4.38-1.4-6.17-2-.89-.33-1.72-.63-2.47-1s-1.4-.66-2-1c-2.38-1.22-3.57-2.08-3.38-2.51s1.77-.39,4.38,0c.65.11,1.36.23,2.15.4l2.56.4c1.83.28,3.87.73,6.18,1l1.55.23,2,.3c1.26.18,2.57.27,3.92.43,2.69.35,5.58.47,8.61.7a167.32,167.32,0,0,0,19.74-.3,165,165,0,0,0,19.45-2.94c2.93-.71,5.75-1.3,8.3-2.09l2.06-.57c.58-.16,1.14-.32,1.69-.49l3.42-1.1c2.2-.64,4.11-1.42,5.85-2l2.43-.81c.73-.27,1.41-.53,2-.73,2.48-.84,4-1.14,4.29-.76S1916.88,961.51,1914.81,963.09Z" transform="translate(-233.57 -156.04)"/><path class="cls-8" d="M1783.75,1284.28c-13.86-6.22-29-10.08-44.18-9.19s-30.32,10.18-40.67,21.3c21.45,13.93,49.56,14.89,73.47,5.79C1775.58,1296.81,1780.54,1289.65,1783.75,1284.28Z" transform="translate(-233.57 -156.04)"/><path class="cls-9" d="M1928,1356.53l-.71-.47c-6.89-4.56-64.11-40.73-156.09-50.46-1.55-.17-3.12-.33-4.7-.47l8.75-25.63c9.07-1,19-1.73,29.61-2.14,6.09-.19,12.28-.37,19-.21,3.32,0,6.68.23,10.1.36s6.88.42,10.4.78c7,.62,14.22,1.59,21.56,2.85s14.84,2.87,22.4,4.86,15.31,4.33,23,7.13l.31-.67c.9-2,1.8-4.11,2.73-6.18.8-1.83,1.62-3.66,2.42-5.48s1.48-3.71,2.2-5.54l2.2-5.47c.74-1.82,1.51-3.59,2.13-5.44,1.32-3.64,2.62-7.26,3.93-10.86l1-2.67.87-2.7c.6-1.8,1.17-3.58,1.76-5.36,2.46-7,4.34-14.15,6.49-21,1-3.43,1.83-6.87,2.77-10.23s1.92-6.68,2.64-10,1.62-6.57,2.44-9.78c.45-1.6.79-3.2,1.13-4.8s.71-3.19,1.06-4.75c.71-3.15,1.53-6.21,2.15-9.26s1.26-6.08,1.9-9c.74-3.48,1.46-6.87,2.15-10.22.42-2,.85-4,1.26-6s.81-3.91,1.21-5.82c.07-.34.15-.68.22-1l73.43-26.83S2041.05,1236.11,1928,1356.53Z" transform="translate(-233.57 -156.04)"/><path class="cls-12" d="M1911.4,1294.76c-.42-.2.42-3.16,2.29-8.32l1.6-4.27c.56-1.58,1.18-3.28,1.83-5.11,1.32-3.66,2.94-7.78,4.5-12.41l2.56-7.23c.88-2.52,1.71-5.17,2.62-7.89,1.87-5.43,3.61-11.31,5.53-17.47,3.65-12.38,7.34-26.08,10.62-40.6s5.72-28.49,7.69-41.24c.89-6.39,1.83-12.46,2.45-18.17.33-2.85.72-5.6,1-8.25s.53-5.2.78-7.63c.56-4.86.85-9.28,1.22-13.15q.27-2.89.51-5.4c.14-1.65.26-3.17.38-4.55.5-5.47,1-8.5,1.48-8.5s.86,3,1.17,8.56c.07,1.39.14,2.92.22,4.59s0,3.5.05,5.46c0,3.92,0,8.39-.22,13.31-.11,2.47-.23,5.06-.34,7.75s-.4,5.48-.61,8.38c-.38,5.79-1.11,12-1.85,18.45-1.65,13-4,27.15-7.26,41.88s-7.25,28.56-11.28,41c-2.1,6.19-4.07,12.08-6.19,17.49-1,2.71-2,5.34-3,7.83s-2,4.87-3,7.15c-1.87,4.57-3.81,8.59-5.47,12.14-.85,1.77-1.62,3.42-2.37,4.92s-1.5,2.83-2.16,4.06C1913.48,1292.38,1911.83,1295,1911.4,1294.76Z" transform="translate(-233.57 -156.04)"/><path class="cls-22" d="M1900.32,891.86c-.38-.05-1.17,4.38-3.21,11.32a121.13,121.13,0,0,1-4.14,12,82.45,82.45,0,0,1-7,13.68,53.48,53.48,0,0,1-9.87,11.59l-.51.43c-.14-1.45-.3-2.9-.48-4.32a113.49,113.49,0,0,0-3.14-17.7,31.66,31.66,0,0,0,6.7-5.1,43.07,43.07,0,0,0,6.88-9,64.53,64.53,0,0,0,7.21-19c1.08-5.09,1.12-8.34.76-8.38s-1.09,3-2.6,7.89a87.37,87.37,0,0,1-7.7,18.13,42.67,42.67,0,0,1-11.86,13.48,40.14,40.14,0,0,0-4.22-9.09c-6.51-10.12-17.74-15.74-28.84-19.32-6.83-2.18-10-2.24-16.72.38-5.73,2.24-11.35,5.1-15.57,9.67-.55.6-1.07,1.2-1.57,1.84,3.2,28.91,19.71,51.36,41.58,53.41,8.86.84,17.48-1.79,25.16-7.05a39.3,39.3,0,0,0,6.52-4.37,51.19,51.19,0,0,0,10.54-12,74.14,74.14,0,0,0,7.08-14.23,89.6,89.6,0,0,0,3.68-12.39C1900.55,896.47,1900.68,891.89,1900.32,891.86Z" transform="translate(-233.57 -156.04)"/><path class="cls-4" d="M835.61,1010.67c-.11,1.73-8.86,2.82-24.41,3.66-7.77.44-17.24.84-28.07,1.57s-23.07,1.75-36.14,4c-6.55,1-13.29,2.43-20.13,4.21a155.24,155.24,0,0,0-20.5,6.73c-13.57,5.57-27.2,13.28-38.16,23.66a76.54,76.54,0,0,0-13.88,17.34c-.91,1.59-1.66,3.24-2.52,4.86s-1.34,3.36-2,5-1,3.5-1.6,5.25c-.38,1.81-.76,3.62-1.14,5.45-2.43,14.77.36,31.25,5.32,48.34,2.47,8.58,5.38,17.14,8.26,25.77q1.08,3.26,2.15,6.49t2,6.53c1.35,4.35,2.73,8.65,3.89,13a491.42,491.42,0,0,1,11.59,50c2.83,16,4.82,31.39,6,45.77.32,3.6.49,7.14.73,10.61.1,1.74.21,3.45.31,5.16s.13,3.39.19,5.06c.1,3.34.2,6.62.3,9.82v9.4c-.12,24.49-2.32,44.22-4.82,57.72a101.7,101.7,0,0,1-3.78,15.46c-1.22,3.5-2.34,5.29-3.32,5.22s-1.8-2-2.45-5.59-1-8.83-1.6-15.56c-.94-13.44-1.85-32.8-4.29-56.53-.31-3-.62-6-.94-9.1s-.78-6.26-1.18-9.49q-.3-2.42-.6-4.89c-.24-1.64-.48-3.3-.73-5-.5-3.34-.92-6.76-1.48-10.21-2.16-13.84-5-28.56-8.39-43.94s-7.68-31.41-12.77-47.86c-1.2-4.13-2.61-8.24-4-12.41q-1-3.12-2.07-6.27c-.72-2.12-1.46-4.24-2.19-6.37-3-8.57-6-17.45-8.72-26.74a175.48,175.48,0,0,1-6-28.53,99.37,99.37,0,0,1,.72-29.5c.54-2.44,1.09-4.87,1.7-7.28.78-2.38,1.52-4.77,2.37-7.11,1-2.31,2-4.64,3-6.89s2.35-4.42,3.65-6.54a98.15,98.15,0,0,1,19.12-22.26,127.6,127.6,0,0,1,23.28-16A161.54,161.54,0,0,1,697,1011.86a168.24,168.24,0,0,1,24.38-6.37,212.4,212.4,0,0,1,22.78-3c3.62-.35,7.16-.48,10.6-.68s6.79-.23,10-.21h4.79l4.63.1c3,.05,6,.21,8.79.34,11.3.59,20.9,1.62,28.7,2.67C827.29,1006.81,835.72,1009,835.61,1010.67Z" transform="translate(-233.57 -156.04)"/><path class="cls-23" d="M766.77,856.23c-1.08,10.94,1.29,22.06-.4,32.92-2.47,15.93-13.31,29.28-25.11,40.26S716.18,950,706.37,962.8a82.75,82.75,0,0,0,28.49,124.32c20.83,10.48,45,11.69,68.34,10.71,18.38-.78,37-2.88,54-9.94s32.34-19.64,39.39-36.64c5.58-13.43,5.64-28.43,5.61-43q-.06-41.49-.14-83c0-22.88-.2-46.45-9-67.59-9.28-22.38-28.31-39.52-50.1-49.54-19.66-9-41.57-.44-57.51,12.79A53.12,53.12,0,0,0,766.77,856.23Z" transform="translate(-233.57 -156.04)"/><path class="cls-8" d="M1185.44,1246.81c-11.26,3.65-25.59,5.83-41.19,5.86a157.91,157.91,0,0,1-21.13-1.38c-6.71.76-13.86,1.46-21.4,2-5.23.37-10.63.77-16.2,1l-8.48.38-8.72.25c-5.89.2-11.91.16-18.08.21s-12.48-.09-18.89-.35c-12.81-.36-26.07-1.21-39.62-2.41l-6.14-.58c-2.05-.21-4.08-.39-6.09-.64-4-.46-8-.94-12-1.41l-10.18-1.19-6-11.27h0q-6.09-11-11.3-21.93c-1.67-3.46-3.26-6.89-4.78-10.32-4.75-10.59-8.72-21-12.08-31a279.68,279.68,0,0,1-8-28.87,213,213,0,0,1-4-25.67c-.35-4-.58-7.72-.62-11.31s0-7,.24-10.16.52-6.15,1-8.9a69,69,0,0,1,1.72-7.55,30.87,30.87,0,0,1,5.19-10.69,11,11,0,0,1,7-4.35,11.48,11.48,0,0,1,7.95,2.29,33.25,33.25,0,0,1,8,8.43,67.61,67.61,0,0,1,3.91,6.28c1.28,2.31,2.6,4.83,3.85,7.55s2.54,5.64,3.79,8.75,2.49,6.39,3.73,9.85q1.17,3.35,2.36,6.88c1.69,5,3.39,10.32,5.05,15.94,2.56,8.22,5,17.09,7.71,26.44s5.38,19.27,8.37,29.56c2.05,7.1,4.19,14.41,6.44,21.88,1.39.23,2.79.45,4.18.69l5.84,1c12.89,2.1,25.48,4.15,37.7,5.88,6.09.93,12.1,1.67,18,2.52s11.66,1.56,17.31,2.19l8.36,1,8.15.9c5.35.63,10.56,1.13,15.62,1.65q10.3,1,19.65,1.83a60,60,0,0,1,22.58-4.24C1165.44,1223.75,1182.94,1233.81,1185.44,1246.81Z" transform="translate(-233.57 -156.04)"/><path class="cls-14" d="M933.12,1143.41c-4.79,14-3.56,29.34-.72,43.86a204.75,204.75,0,0,0,7.6,28.12c-1.67-3.46-3.26-6.89-4.78-10.32-4.75-10.59-8.72-21-12.08-31a279.68,279.68,0,0,1-8-28.87,213,213,0,0,1-4-25.67c-.35-4-.58-7.72-.62-11.31s0-7,.24-10.16.52-6.15,1-8.9a69,69,0,0,1,1.72-7.55,30.87,30.87,0,0,1,5.19-10.69,11,11,0,0,1,7-4.35,11.48,11.48,0,0,1,7.95,2.29,33.25,33.25,0,0,1,8,8.43,67.61,67.61,0,0,1,3.91,6.28c1.28,2.31,2.6,4.83,3.85,7.55s2.54,5.64,3.79,8.75,2.49,6.39,3.73,9.85q1.17,3.35,2.36,6.88C947,1120.1,937.3,1131.12,933.12,1143.41Z" transform="translate(-233.57 -156.04)"/><path class="cls-4" d="M735.39,1861.5c-1-.24-.53-6.73.83-18.3q.54-4.34,1.19-9.6c.4-3.51.83-7.33,1.3-11.43.91-8.19,2.14-17.48,3.09-27.8q.8-7.72,1.65-16.16c.57-5.62,1-11.48,1.52-17.53,1.14-12.09,1.91-25.06,2.86-38.65.47-6.8.73-13.79,1.14-20.9.19-3.56.39-7.15.58-10.78s.26-7.3.39-11,.29-7.43.43-11.19c.08-1.87.16-3.76.23-5.65s.09-3.8.14-5.71q.28-11.44.59-23.2c.1-7.82.19-15.56.29-23.18l.09-5.69v-5.65c0-3.75,0-7.46,0-11.15s.06-7.34.09-11,0-7.2-.07-10.74c0-7.09.06-14,0-20.79-.16-13.54,0-26.4-.15-38.44q.06-9,.11-17.45t.16-16.12c.32-10.29.46-19.6,1-27.84.26-4.11.61-8,1-11.5s.7-6.79,1.15-9.73c1.78-11.75,4.62-18.52,8.24-18.93s7.65,5.62,11.6,17c1,2.84,2,6,2.94,9.51s1.8,7.32,2.67,11.43c1.69,8.23,3.46,17.63,4.67,28.1q1,7.85,1.85,16.44c.57,5.73.92,11.7,1.32,17.88.87,12.36,1.1,25.6,1.25,39.53.06,7-.15,14.11-.29,21.4-.09,3.64-.19,7.33-.29,11s-.38,7.46-.57,11.25-.44,7.6-.65,11.45q-.18,2.88-.35,5.79c-.16,1.93-.32,3.88-.47,5.83l-2.1,23.7q-1.38,12-2.74,23.62-.36,2.91-.71,5.79t-.82,5.74q-.82,5.71-1.64,11.32t-1.64,11.12c-.63,3.65-1.25,7.28-1.86,10.86-1.26,7.16-2.38,14.18-3.72,21-2.69,13.61-5.19,26.53-8,38.52-1.38,6-2.61,11.81-4,17.36s-2.72,10.85-4,15.92c-2.46,10.15-5.11,19.23-7.33,27.21-1.13,4-2.16,7.7-3.19,11.1l-2.93,9.25C738.67,1855.7,736.36,1861.74,735.39,1861.5Z" transform="translate(-233.57 -156.04)"/><path class="cls-4" d="M635.31,1857.83c-.93-.33.13-6.76,2.6-18.13q1-4.28,2.11-9.44l2.4-11.25c1.7-8.07,3.83-17.19,5.78-27.38,1-5.07,2.09-10.39,3.21-15.92s2.09-11.33,3.21-17.3c2.3-11.93,4.32-24.76,6.59-38.19,1.13-6.72,2.06-13.65,3.16-20.69.53-3.52,1.08-7.08,1.62-10.67s1-7.25,1.46-10.92,1-7.36,1.51-11.09l.78-5.6c.23-1.89.46-3.77.68-5.67q1.41-11.36,2.84-23t2.54-23c.21-1.89.43-3.77.64-5.65s.36-3.76.54-5.62q.57-5.6,1.12-11.1c.39-3.66.77-7.3,1.15-10.89s.65-7.17,1-10.7c.63-7.06,1.41-14,2-20.69,1.15-13.49,2.53-26.28,3.58-38.28q.93-9,1.8-17.35t1.72-16c1.31-10.21,2.36-19.46,3.71-27.6.65-4.08,1.38-7.87,2.07-11.36s1.35-6.7,2.08-9.58c2.92-11.52,6.4-18,10-18s7.08,6.33,9.9,18c.71,2.92,1.38,6.18,2,9.75s1.08,7.45,1.55,11.63c.88,8.35,1.73,17.89,1.92,28.42q.23,7.9.25,16.55c0,5.75-.22,11.72-.42,17.92-.33,12.39-1.38,25.59-2.59,39.47-.61,6.94-1.52,14-2.36,21.26q-.68,5.43-1.36,11t-1.66,11.14q-.87,5.63-1.76,11.33-.45,2.87-.91,5.73c-.34,1.92-.69,3.83-1,5.76L706.39,1638q-2.55,11.76-5,23.24-.63,2.87-1.27,5.7t-1.37,5.63q-1.37,5.6-2.73,11.11t-2.71,10.9q-1.46,5.37-2.9,10.64c-1.94,7-3.74,13.87-5.73,20.52-4,13.29-7.74,25.91-11.7,37.57-2,5.84-3.74,11.5-5.64,16.89l-5.52,15.46c-3.43,9.86-6.95,18.64-9.93,26.37-1.52,3.86-2.9,7.45-4.25,10.74l-3.82,8.93C639.13,1852.37,636.25,1858.16,635.31,1857.83Z" transform="translate(-233.57 -156.04)"/><path class="cls-4" d="M930.05,1861.5c1-.24.53-6.73-.83-18.3-.36-2.89-.75-6.09-1.19-9.6s-.83-7.33-1.29-11.43c-.91-8.19-2.15-17.48-3.1-27.8q-.78-7.72-1.65-16.16c-.57-5.62-1-11.48-1.52-17.53-1.14-12.09-1.9-25.06-2.86-38.65-.47-6.8-.73-13.79-1.14-20.9q-.29-5.34-.58-10.78t-.39-11c-.14-3.7-.29-7.43-.43-11.19l-.23-5.65c-.05-1.9-.09-3.8-.13-5.71q-.3-11.44-.6-23.2c-.09-7.82-.19-15.56-.28-23.18,0-1.9-.07-3.8-.1-5.69s0-3.77,0-5.65c0-3.75,0-7.46,0-11.15s-.06-7.34-.09-11,0-7.2.07-10.74c.06-7.09-.06-14,0-20.79.17-13.54,0-26.4.15-38.44q-.06-9-.11-17.45t-.16-16.12c-.32-10.29-.46-19.6-1-27.84-.25-4.11-.61-8-1-11.5s-.7-6.79-1.14-9.73c-1.79-11.75-4.63-18.52-8.25-18.93s-7.65,5.62-11.6,17c-1,2.84-2,6-2.94,9.51s-1.8,7.32-2.67,11.43c-1.69,8.23-3.46,17.63-4.67,28.1q-1,7.85-1.85,16.44c-.57,5.73-.92,11.7-1.32,17.88-.87,12.36-1.1,25.6-1.25,39.53-.06,7,.16,14.11.29,21.4.1,3.64.19,7.33.29,11s.38,7.46.58,11.25.43,7.6.65,11.45q.16,2.88.35,5.79c.15,1.93.31,3.88.47,5.83q1,11.69,2.09,23.7,1.39,12,2.75,23.62.35,2.91.71,5.79t.82,5.74q.83,5.71,1.64,11.32t1.64,11.12c.62,3.65,1.24,7.28,1.85,10.86,1.26,7.16,2.39,14.18,3.72,21,2.69,13.61,5.19,26.53,8,38.52,1.37,6,2.6,11.81,4,17.36s2.72,10.85,4,15.92c2.46,10.15,5.11,19.23,7.33,27.21,1.14,4,2.16,7.7,3.19,11.1s2,6.47,2.94,9.25C926.78,1855.7,929.08,1861.74,930.05,1861.5Z" transform="translate(-233.57 -156.04)"/><path class="cls-4" d="M1031.05,1857.83c.94-.33-.13-6.76-2.6-18.13-.63-2.85-1.34-6-2.11-9.44l-2.4-11.25c-1.7-8.07-3.83-17.19-5.78-27.38l-3.2-15.92c-1.11-5.53-2.09-11.33-3.22-17.3-2.3-11.93-4.32-24.76-6.59-38.19-1.13-6.72-2.06-13.65-3.16-20.69q-.79-5.28-1.62-10.67t-1.46-10.92q-.75-5.49-1.51-11.09l-.78-5.6c-.23-1.89-.45-3.77-.68-5.67q-1.41-11.36-2.84-23t-2.54-23q-.31-2.84-.64-5.65c-.18-1.88-.36-3.76-.54-5.62q-.57-5.6-1.12-11.1c-.39-3.66-.77-7.3-1.15-10.89s-.65-7.17-1-10.7c-.63-7.06-1.42-14-2-20.69-1.15-13.49-2.52-26.28-3.58-38.28q-.93-9-1.8-17.35t-1.72-16c-1.31-10.21-2.36-19.46-3.71-27.6-.65-4.08-1.38-7.87-2.07-11.36s-1.35-6.7-2.08-9.58c-2.92-11.52-6.4-18-10-18s-7.07,6.33-9.9,18c-.71,2.92-1.38,6.18-2,9.75s-1.08,7.45-1.54,11.63c-.89,8.35-1.74,17.89-1.93,28.42q-.21,7.9-.25,16.55c0,5.75.22,11.72.42,17.92.33,12.39,1.39,25.59,2.59,39.47.61,6.94,1.52,14,2.36,21.26q.68,5.43,1.36,11t1.67,11.14q.87,5.63,1.75,11.33c.3,1.91.61,3.82.91,5.73s.69,3.83,1,5.76q2.16,11.54,4.38,23.39,2.55,11.76,5,23.24c.42,1.91.85,3.81,1.27,5.7s.91,3.76,1.37,5.63q1.38,5.6,2.73,11.11t2.71,10.9q1.45,5.37,2.9,10.64c1.95,7,3.75,13.87,5.73,20.52,4,13.29,7.74,25.91,11.71,37.57,1.94,5.84,3.74,11.5,5.64,16.89s3.75,10.53,5.51,15.46c3.43,9.86,6.95,18.64,9.94,26.37,1.51,3.86,2.89,7.45,4.24,10.74s2.67,6.24,3.82,8.93C1027.23,1852.37,1030.11,1858.16,1031.05,1857.83Z" transform="translate(-233.57 -156.04)"/><ellipse class="cls-4" cx="588.45" cy="1249.39" rx="171.89" ry="38.63"/><path class="cls-24" d="M1066.92,1378.68a53.76,53.76,0,0,0-16-19.46,53.15,53.15,0,0,0-23.23-10,47.64,47.64,0,0,0-6.09-.67c-1-.06-2-.09-3-.11H1008c-17.13.14-33.09.42-47.65,1.27a360.8,360.8,0,0,0-39.32,4,143.35,143.35,0,0,0-29.68,7.8c-8.15,3.27-14.47,7.24-18.76,11.73s-6.54,9.53-6.54,14.71,2.25,10.21,6.54,14.71,10.61,8.47,18.76,11.73a143.35,143.35,0,0,0,29.68,7.8,360.64,360.64,0,0,0,39.32,4.06c6.24.36,12.75.61,19.49.8-.83,2-1.64,4-2.47,6-2,4.86-4,9.73-5.94,14.74s-3.68,10.1-5.54,15.22c-3.83,10.19-7,20.82-10.47,31.5-.84,2.68-1.69,5.36-2.54,8.06s-1.53,5.45-2.31,8.19L946,1527.36c-2.94,11.13-5.51,22.21-8.13,33.08-2.25,11-4.53,21.73-6.56,32.34q-1.4,8-2.75,15.82c-.87,5.23-1.84,10.37-2.49,15.53s-1.46,10.21-2.18,15.23-1.43,10-1.91,14.89-1.08,9.75-1.6,14.54-1.11,9.48-1.42,14.15c-.71,9.33-1.51,18.34-2.08,27.07s-.84,17.16-1.24,25.27-.35,15.89-.49,23.3,0,14.47.14,21.14.16,12.94.49,18.82c.69,11.75,1.29,21.83,2.26,30.06,2,16.46,4.18,25.46,6.58,25.45s4.76-9,7.16-25.14c.53-4,1.4-8.5,2.14-13.39s1.58-10.18,2.39-15.87,1.92-11.75,3-18.17,2.13-13.19,3.58-20.26,2.78-14.48,4.25-22.19l5.27-23.87c1.9-8.22,4.15-16.65,6.31-25.35,1-4.35,2.33-8.72,3.57-13.16l3.82-13.46c1.23-4.55,2.71-9.1,4.16-13.71s2.89-9.26,4.37-14,3.16-9.4,4.79-14.15l5-14.36c3.44-9.62,7.25-19.3,10.93-29.15q3-7.3,6-14.71c2-4.92,3.88-10,6.15-14.85,8.6-19.76,17.14-38.9,26.12-57l6.54-13.5c2.17-4.44,4.47-8.77,6.65-13.1l6.49-12.82,6.58-12.4q3.18-6.15,6.28-12.15l.8-1.63c.46-1,.89-1.93,1.3-2.92a53.18,53.18,0,0,0,3.5-12.51,46.48,46.48,0,0,0,.59-6.55A54.12,54.12,0,0,0,1066.92,1378.68Z" transform="translate(-233.57 -156.04)"/><path class="cls-13" d="M1289.49,1823.46c-2.5,1.76-10.81-5-24.12-18.73-6.63-6.88-14.29-15.61-23.15-25.82-4.38-5.15-8.92-10.75-13.76-16.68L1221,1753c-2.52-3.17-5-6.48-7.62-9.85-5.15-6.75-10.68-13.78-16.14-21.3l-17-23.5-17.57-25.65q-8.73-13.47-18-27.69-8.92-14.4-18.12-29.64c-5.92-10.25-12.06-20.69-18-31.48-11.85-21.61-23.71-44.27-34.8-68-2.86-6.12-5.73-12.21-8.5-18.29s-5.31-12.22-7.92-18.25-5.22-12.06-7.57-18.09-4.75-12-7.1-17.94-4.46-11.86-6.59-17.75c-1.28-3.57-2.51-7.09-3.77-10.62-4.73,1.18-9.42,2.28-14.06,3.23-8.08,1.73-16,3-23.79,4-7.78.9-15.38,1.71-22.77,2q-8.06.42-15.74.32l-1.36,1.36c-60,1.6-138.41.35-198.17-5.22-12.32-1.16-24.86-2.51-36.25-7.35a56.17,56.17,0,0,1-7.12-3.64c-8.38-5.12-15.35-12.61-18.18-21.9-3.73-12.24.13-25.42,4.74-37.35,7.68-19.89,15.43-38.92,25.79-56.64a184.2,184.2,0,0,1,19.42-27.45c35.42-1,78.84-13,108.53,6.34,12.17,7.91,31.24,15.35,53.67,21.85,33.57,9.75,74.64,17.42,111.28,21.51,29.74,3.3,56.57,4.25,74.06,2l9.9,30.1q2.57,7.86,5.22,15.93t5.24,16.36l5.52,16.67c1.85,5.62,3.61,11.33,5.61,17l5.81,17.32c1.88,5.86,4,11.69,6,17.6s4.07,11.88,6.13,17.87,4.29,12,6.45,18.06c8.29,23.5,16.92,46.28,25.35,68.34,4.34,11,8.6,21.78,12.76,32.35q6.48,15.79,12.71,30.91,6.42,15,12.51,29.31,6.27,14.2,12.18,27.57,6.07,13.31,11.72,25.65c3.74,8.26,7.57,16.06,11.07,23.62q2.64,5.65,5.17,11l5,10.42c3.24,6.78,6.3,13.19,9.15,19.18,5.88,11.91,10.72,22.35,14.65,30.93C1288.54,1811.47,1292,1821.69,1289.49,1823.46Z" transform="translate(-233.57 -156.04)"/><path class="cls-13" d="M907,1294.58c0,2.26,0,4.5-.08,6.74-24.67-4.16-49.47-8.33-74.48-8.5s-50.48,3.84-72.74,15.26-41.08,30.82-48.37,54.74a72.43,72.43,0,0,0,1.7,46.91c-8.38-5.12-15.35-12.61-18.18-21.9-3.73-12.24.13-25.42,4.74-37.35,7.68-19.89,15.43-38.92,25.79-56.64a184.2,184.2,0,0,1,19.42-27.45c35.42-1,78.84-13,108.53,6.34C865.54,1280.64,884.61,1288.08,907,1294.58Z" transform="translate(-233.57 -156.04)"/><path class="cls-11" d="M957.3,1248.59S916,1196.43,914.08,1131c-1.93,3.88-3.8,7.76-5.64,11.68q-1.58,3.35-3.08,6.73a537.69,537.69,0,0,0-35.15,106.18q-1.74,8-3.25,16.11c-.55,2.93-1.06,5.85-1.57,8.78a207.58,207.58,0,0,1-62.21,1.66c-6.54-.82-13-1.91-19.27-3.28l-1.92-.43a203,203,0,0,1-38.78-13c.2-3,.42-5.93.59-8.9q1.41-23.21.77-46.45c-.12-4.24-.27-8.47-.5-12.71-.25-4.89-.55-9.78-.94-14.64a535.16,535.16,0,0,0-9.75-68.29l-29.87,123.78c-22.17,35.94-48,33.78-48,33.78C634.77,1189.15,689,1080,689,1080c16.28-33.52,50.44-57.6,87.4-62h0l.84-.27q.75-.24,1.53-.45,2.39-.74,4.8-1.36c16.65-4.34,34.43-6.82,52.6-4.58,14.8,1.82,39.09,11.95,46.44,15.06,1.35.57,2.12.9,2.17.9,2.53.8,5,1.73,7.45,2.74,33.41,13.82,59.46,44.69,66.93,80.13l27.61,100.18S987.25,1223.55,957.3,1248.59Z" transform="translate(-233.57 -156.04)"/><path class="cls-25" d="M870.22,1255.56q-1.76,8-3.25,16.11c-.55,2.93-1.07,5.85-1.57,8.78a207.66,207.66,0,0,1-62.22,1.66c-6.53-.81-13-1.9-19.26-3.28l-1.92-.43a202.86,202.86,0,0,1-38.79-13c.21-3,.42-5.93.6-8.89q1.41-23.2.77-46.46-.17-6.36-.5-12.71c4,12.78,10.66,24.89,20.68,33.71,12.08,10.65,28,15.7,43.81,19A260,260,0,0,0,870.22,1255.56Z" transform="translate(-233.57 -156.04)"/><path class="cls-26" d="M909.16,1301c-19.53-1.89-40.91-8.4-59.26-18l-4.1.79c-3,.51-6.2.94-9.68,1.46s-7.23.87-11.22,1.28-8.19.72-12.64,1c-8.87.63-18.64.89-29.2,1s-21.84-.28-33.76-1.2-24.48-2-37.45-4-26.44-4.34-40.12-7.53l-16.25-3.8s25.86,2.16,48-33.78q8.65,3,17.16,5.61c8,2.49,15.8,4.7,23.44,6.74h0q5.29,1.4,10.44,2.71c10.9,2.75,21.35,4.89,31.18,6.9,9.84,1.86,19,3.47,27.5,4.77,4.2.65,8.24,1.28,12,1.78s7.44,1.09,10.81,1.5c1.85.27,3.61.52,5.31.75a51.16,51.16,0,0,1,26.78-3.67,49.14,49.14,0,0,1,10.34,2.54A50.6,50.6,0,0,1,909.16,1301Z" transform="translate(-233.57 -156.04)"/><path class="cls-27" d="M882.69,1026.42c-6.63,39.19-27.09,67.73-51.28,67.73-26,0-47.75-33.06-52.56-76.85q2.39-.74,4.81-1.36a175.87,175.87,0,0,1,17.82-3.74c1.14-5.41,2.12-10.9,2.95-16.37a295.18,295.18,0,0,0,3.17-36.49c.07-3.38.08-6.76,0-10.13,0-1.48,0-2.92-.07-4.4a98.54,98.54,0,0,0,16.23-26.73c10.79,6.62,20.84,14.2,29.15,23.81q-.19,10.13.36,20.17c0,1.21.12,2.44.2,3.67a272,272,0,0,0,4.16,33.21c1.22,6.44,2.65,12.85,4.34,19.2C862,1018.14,878.89,1024.8,882.69,1026.42Z" transform="translate(-233.57 -156.04)"/><path class="cls-14" d="M857.69,998.93a140.22,140.22,0,0,0-50.09-39.58c.08-3.38.09-6.76,0-10.14,0-1.48,0-2.92-.07-4.4a98.26,98.26,0,0,0,16.22-26.73c10.8,6.62,20.86,14.21,29.15,23.81-.12,6.76,0,13.47.37,20.18,0,1.2.12,2.43.19,3.66A269.89,269.89,0,0,0,857.69,998.93Z" transform="translate(-233.57 -156.04)"/><path class="cls-6" d="M939.42,1529.5c-1.9,7.38-3.66,14.75-5.38,21.92l-1.85,7.74-1.63,7.93c-1.76,8.48-3.42,16.47-5,24.69l-2.74,15.86-.67,3.93c-.67,3.85-1.36,7.84-1.85,11.73l-2.39,16.77c-.64,4.45-1.29,9-1.72,13.54l-1.92,17.4c-.42,3.76-.87,7.67-1.12,11.49-.25,3.33-.52,6.63-.79,9.89-.48,6-.92,11.6-1.29,17.34l-1.24,25.35c-.23,6.15-.32,12.08-.41,17.81,0,1.88-.06,3.74-.1,5.53s-.07,3.42-.08,5.09c-7.31,23.79-7.24,50.59-.74,74.23,2.19,8,5.32,16,11.34,21.7,9.07,8.53,22.56,9.84,35,10.69,5.85.41,12.81.31,16.13-4.52,2.87-4.17,1.42-10.07-1.59-14.14s-7.31-7-10.84-10.63c-9.34-9.65-12.59-23.78-12.74-37.21-.17-13.94,4.07-29.27,3.28-43.49l3.82-19.93,5.25-23.73c1.21-5.31,2.57-10.63,4-16.27.76-3,1.52-6,2.28-9s1.67-6.39,2.63-9.77c.29-1.05.59-2.1.87-3.15l3.84-13.52c1-3.73,2.18-7.44,3.42-11.36l.67-2.14,4.4-14c1-3.2,2.07-6.35,3.24-9.7.5-1.41,1-2.83,1.47-4.23L989.9,1609c2.17-6,4.54-12.29,6.84-18.31q2-5.31,4-10.66l6-14.61q1-2.55,2.07-5.13c1.26-3.16,2.56-6.42,4-9.5l.05-.12a4.52,4.52,0,0,1,.23-.5A140.71,140.71,0,0,0,939.42,1529.5Z" transform="translate(-233.57 -156.04)"/><path class="cls-6" d="M1330.43,1808.45c-4.78-1.68-10-1.68-14.93-2.72-13.15-2.76-23.75-12.65-31.41-23.69-7.18-10.36-12-23.66-19.25-34.51l-.9-1.88-1.88-3.94-5-10.35-5.15-11c-1.49-3.22-3-6.48-4.62-9.8-2.12-4.46-4.3-9.06-6.44-13.8q-5-10.9-10.3-22.54l-1.4-3q-3.8-8.6-7.75-17.56l-4.39-9.94-12.49-29.24-12.68-30.83c-4.16-10.57-8.41-21.39-12.73-32.3-7.39-19.32-15.89-41.71-24.09-64.82a127.51,127.51,0,0,0-79.87,45.84c8.15,16.74,17.34,34.38,28.33,54.43,4.63,8.38,9.39,16.58,14,24.52,1.38,2.36,2.74,4.73,4.15,7.16,6.24,10.33,12.35,20.33,18.16,29.7l3,4.59q7.69,11.85,15,23.2l17.66,25.78,17.08,23.63c4,5.42,7.9,10.58,11.73,15.56,1.52,2,3,3.92,4.52,5.88l2.56,3.33c1.72,2.24,3.4,4.43,5.14,6.62l7.46,9.2,1.67,2.06c3.22,3.94,6.3,7.71,9.32,11.33a137,137,0,0,0,37.41,51.87c6.28,5.37,13.39,10.31,21.55,11.62,12.3,2,24.2-4.49,35-10.74,5.07-2.94,10.78-6.92,10.82-12.78C1339.71,1814.21,1335.21,1810.14,1330.43,1808.45Z" transform="translate(-233.57 -156.04)"/><path class="cls-28" d="M780.74,1018.14c0,.27-1.51.78-4.3,1.46l-2.33.55c-.84.21-1.75.49-2.73.75-2,.57-4.21,1.07-6.63,1.92l-3.81,1.21c-1.33.43-2.67,1-4.07,1.5-2.84,1-5.75,2.32-8.84,3.65a135.93,135.93,0,0,0-36.25,24.14c-2.42,2.34-4.78,4.51-6.77,6.74-1,1.11-2,2.12-3,3.18l-2.6,3c-1.71,1.9-3.05,3.79-4.32,5.38-.62.8-1.23,1.53-1.75,2.23l-1.4,1.93c-1.71,2.32-2.77,3.54-3,3.41s.39-1.62,1.72-4.22l1.13-2.15c.44-.77,1-1.57,1.52-2.45,1.12-1.74,2.33-3.78,3.94-5.83.78-1,1.6-2.15,2.46-3.29s1.86-2.22,2.85-3.4c1.95-2.39,4.28-4.71,6.69-7.19a120,120,0,0,1,37.3-24.83c3.21-1.27,6.25-2.53,9.21-3.4,1.46-.46,2.86-1,4.24-1.32l4-1c2.52-.69,4.86-1,6.9-1.38,1-.17,2-.35,2.85-.45l2.42-.22C779.09,1017.87,780.7,1017.88,780.74,1018.14Z" transform="translate(-233.57 -156.04)"/><path class="cls-28" d="M738.49,1249.91c.25-1.08,23.09,3.52,51.33,8.69s51.2,9,51.06,10.14-23.43-1.07-51.77-6.3S738.24,1250.93,738.49,1249.91Z" transform="translate(-233.57 -156.04)"/><path class="cls-29" d="M884.47,923.29c0,2-.06,4-.17,5.91-1.32,23.43-10.52,44.19-26.37,48.42-9.63,2.59-20.2-1.37-29.89-9.29l-.51-.43c-13.27-11.06-24.82-29.54-30-48.75l0-.08a11.72,11.72,0,0,1,4.28-12.25,98.31,98.31,0,0,0,32.87-45.9c9.77,12.48,25.24,20.08,41.12,21.59a76.78,76.78,0,0,1,5.27,14.3A102.43,102.43,0,0,1,884.47,923.29Z" transform="translate(-233.57 -156.04)"/><path class="cls-30" d="M799.34,916.6c-2.76-2-6.2-4-9.32-2.7-2.39,1-3.58,3.73-4,6.29a19.6,19.6,0,0,0,24.1,22.45C803.67,935.82,801.7,925.65,799.34,916.6Z" transform="translate(-233.57 -156.04)"/><path class="cls-22" d="M870.75,914.29c-3.19-1.75-6.56-3.53-10.2-3.44-4.29.09-8,2.77-11.48,5.35-7.22,5.4-14.68,11.07-18.87,19.06a33.78,33.78,0,0,0-3.13,8.91,82.63,82.63,0,0,1-7.59-5.62,146,146,0,0,1-17-16.72c-4-4.6-6.38-7.6-6.7-7.4s1.5,3.62,5.22,8.61a102.72,102.72,0,0,0,16.74,17.6,72.36,72.36,0,0,0,8.83,6.28,67.73,67.73,0,0,0,.66,19.23c-1-.84-2-1.72-3-2.67a100.7,100.7,0,0,1-12-14.05c-2.79-3.87-4.38-6.38-4.72-6.22s.68,3,3.12,7.25a68.05,68.05,0,0,0,11.77,15,51,51,0,0,0,8.38,6.47,36.87,36.87,0,0,0,7.84,3.68,28.91,28.91,0,0,0,3,.82,26.5,26.5,0,0,0,16.32,1.21c15.85-4.23,25.05-25,26.37-48.42.11-2,.17-3.93.17-5.91C880.44,919.59,875.56,916.91,870.75,914.29Z" transform="translate(-233.57 -156.04)"/><image width="150" height="150" transform="translate(1050.66 1041.9) scale(1 0.69)" xlink:href="qr.png"/></svg>