<svg viewBox="0 0 482 380" fill="none" xmlns="http://www.w3.org/2000/svg">
<g clip-path="url(#clip0)">
<path opacity="0.35" d="M331.833 372.214C334.683 362.092 339.691 352.709 346.512 344.711C383.363 301.199 414.012 252.785 437.583 200.85C444.68 185.203 450.918 166.138 441.624 151.691C435.476 142.134 423.835 137.173 417.766 127.572C412.018 118.459 412.304 106.772 414.437 96.2012C416.57 85.6307 420.344 75.3325 420.943 64.5585C421.827 48.5668 415.195 32.3139 403.377 21.52C391.558 10.7261 374.777 5.6035 358.941 7.95568C330.122 12.2352 307.747 39.0031 278.659 40.6384C258.623 41.7647 240.256 30.6809 222.385 21.5377C202.205 11.2173 180.657 2.89064 158.11 0.598202C135.563 -1.69423 111.835 2.47242 93.1744 15.3464C74.5137 28.2203 61.7755 50.5074 63.3827 73.133C64.4881 88.784 72.0797 104.296 68.5204 119.577C64.0724 138.68 43.8089 150.445 37.6123 169.048C32.7111 183.767 37.7272 200.343 46.8752 212.861C56.0232 225.379 68.8498 234.655 81.451 243.694C121.726 272.584 140.221 326.062 151.997 374.234C211.152 375.639 271.35 377.921 330.505 379.324C330.666 376.898 331.188 374.544 331.833 372.214Z" fill="url(#paint0_linear)"/>
<path d="M319.182 373.98C344.719 352.658 357.258 315.434 349.569 283.053C346.96 272.064 342.254 261.312 342.676 250.025C343.098 238.737 351.189 226.487 362.468 226.835C367.71 226.999 372.733 229.838 377.944 229.227C385.747 228.311 390.511 220.314 393.392 212.996C398.035 201.189 401.008 188.521 400.228 175.855C399.447 163.189 394.652 150.503 385.537 141.683C377.501 133.907 366.788 129.621 356.239 125.923C345.689 122.226 334.814 118.843 325.697 112.37C316.58 105.898 309.338 95.5951 309.745 84.414C310.28 69.9933 323.893 58.4426 338.186 56.5883C352.478 54.734 366.788 60.6841 378.6 68.9577C397.402 82.1304 411.746 101.559 418.807 123.427C420.341 128.185 421.585 133.146 424.4 137.275C427.214 141.404 432.082 144.599 437.001 143.765C442.738 142.791 446.374 136.795 447.214 131.033C448.054 125.271 446.896 119.409 447.035 113.587C447.115 110.193 447.8 106.506 450.369 104.294C454.943 100.344 462.159 103.488 466.445 107.752C476.471 117.71 480.185 132.413 481.434 146.504C485.683 194.508 465.824 242.318 435.842 280.021C405.861 317.725 359.384 347.458 319.182 373.98Z" fill="#FFCCC0"/>
<path d="M162.817 373.98C137.284 352.658 124.742 315.434 132.431 283.053C135.04 272.064 139.746 261.312 139.326 250.025C138.906 238.737 130.813 226.487 119.534 226.835C114.292 226.999 109.267 229.838 104.059 229.227C96.2525 228.311 91.4884 220.314 88.61 212.996C83.9675 201.189 80.9941 188.521 81.7722 175.855C82.5504 163.189 87.3477 150.503 96.4647 141.683C104.501 133.907 115.212 129.621 125.761 125.923C136.311 122.226 147.185 118.843 156.305 112.37C165.424 105.898 172.664 95.5951 172.255 84.414C171.722 69.9933 158.106 58.4426 143.814 56.5883C129.522 54.734 115.214 60.6841 103.402 68.9577C84.5998 82.1304 70.2566 101.559 63.2022 123.427C61.6679 128.185 60.4255 133.146 57.6112 137.275C54.797 141.404 49.929 144.599 45.0101 143.765C39.2733 142.791 35.6366 136.795 34.7943 131.033C33.9521 125.271 35.1149 119.409 34.9756 113.587C34.8938 110.193 34.2085 106.506 31.6419 104.294C27.0657 100.337 19.8476 103.481 15.5699 107.754C5.54425 117.712 1.83024 132.416 0.583391 146.507C-3.66562 194.511 16.1911 242.32 46.1752 280.023C76.1592 317.727 122.618 347.458 162.817 373.98Z" fill="#FFCCC0"/>
<path d="M241 380.001C327.833 380.001 398.224 378.311 398.224 376.226C398.224 374.141 327.833 372.451 241 372.451C154.167 372.451 83.7754 374.141 83.7754 376.226C83.7754 378.311 154.167 380.001 241 380.001Z" fill="#FFB4A2"/>
<path d="M233.62 353.86C237.644 342.998 237.436 331.091 237.184 319.509C236.892 306.04 236.587 292.498 234.089 279.261C232.453 270.556 229.82 261.935 225.807 254.069C223.731 249.961 221.238 246.078 218.366 242.483C226.354 242.095 233.178 242.148 239.919 241.666C246.648 242.148 253.479 242.095 261.469 242.483C253.03 252.978 248.233 266.024 245.746 279.261C245.576 280.175 245.414 281.087 245.264 282.003C243.217 294.365 242.936 306.967 242.662 319.509C242.408 331.091 242.202 342.998 246.226 353.86C250.249 364.723 259.528 374.457 271.057 375.453H208.787C220.32 374.457 229.599 364.725 233.62 353.86Z" fill="#C1855D"/>
<path d="M261.479 242.483C253.041 252.978 248.244 266.024 245.757 279.261C245.587 280.175 245.425 281.087 245.275 282.003C245.257 281.182 245.215 280.356 245.155 279.533C244.687 273.143 242.836 266.699 238.839 261.687C235.623 257.66 230.868 254.713 225.818 254.069C223.742 249.961 221.249 246.078 218.377 242.483C226.364 242.095 233.189 242.148 239.929 241.666C246.659 242.148 253.49 242.095 261.479 242.483Z" fill="#A26238"/>
<path d="M308.561 240.462C308.56 240.611 308.546 240.759 308.519 240.905C308.371 241.544 308.044 242.127 307.577 242.587C302.05 248.508 273.87 253.013 239.929 253.013C213.203 253.013 190.046 250.218 178.714 246.14C173.972 244.436 171.299 242.505 171.299 240.46C171.299 240.157 171.356 239.857 171.465 239.575C173.932 233.05 203.642 227.9 239.929 227.9C260.612 227.9 279.156 229.573 291.739 232.22C292.445 232.367 293.133 232.519 293.802 232.676C303.043 234.82 308.561 237.524 308.561 240.462Z" fill="#C1855D"/>
<path d="M232.275 222.533C232.275 229.012 228.026 234.261 222.789 234.261C217.552 234.261 213.303 229.005 213.303 222.533C213.303 222.447 213.303 222.358 213.303 222.272C219.57 221.092 226.003 221.092 232.271 222.272C232.275 222.358 232.275 222.447 232.275 222.533Z" fill="#FF8E73"/>
<path d="M231.559 222.651C230.776 222.804 229.87 222.937 228.868 223.043C226.969 223.232 225.062 223.324 223.154 223.319C220.913 223.329 218.675 223.198 216.451 222.926C215.832 222.844 215.261 222.753 214.744 222.651C215.204 222.56 215.71 222.479 216.252 222.406C218.541 222.113 220.846 221.973 223.154 221.985C224.798 221.985 226.364 222.047 227.781 222.162C229.048 222.256 230.309 222.419 231.559 222.651Z" fill="#FF6D4A"/>
<path d="M215.469 229.632L215.39 229.298H214.981C213.998 229.313 213.015 229.254 212.04 229.121C211.511 229.037 210.997 228.874 210.515 228.638C210.06 228.446 209.682 228.106 209.443 227.674C209.264 227.3 209.301 226.789 209.474 226.293C209.641 225.806 209.9 225.355 210.236 224.965C210.516 224.631 210.883 224.38 211.295 224.239C211.665 224.129 212.056 224.112 212.434 224.188C213.038 224.324 213.6 224.605 214.072 225.005C214.426 225.295 214.616 225.498 214.704 225.448C214.793 225.397 214.751 225.109 214.483 224.655C214.065 224.006 213.443 223.514 212.715 223.257C212.176 223.069 211.597 223.028 211.037 223.14C210.392 223.288 209.804 223.62 209.343 224.096C208.858 224.592 208.481 225.184 208.238 225.835C208.1 226.196 208.017 226.575 207.993 226.961C207.963 227.398 208.039 227.835 208.214 228.236C208.394 228.624 208.659 228.967 208.99 229.24C209.28 229.484 209.602 229.685 209.947 229.84C210.557 230.118 211.208 230.294 211.875 230.362C212.81 230.449 213.752 230.427 214.682 230.298C214.818 230.759 214.856 231.244 214.793 231.721C214.729 232.163 214.611 232.409 214.693 232.471C214.775 232.533 215.036 232.378 215.295 231.891C215.614 231.182 215.676 230.382 215.469 229.632V229.632Z" fill="#FF8E73"/>
<path d="M315.995 252.069C312.931 250.693 309.584 249.839 306.228 250.036C302.872 250.233 299.525 252.289 297.234 254.747C301.979 257.832 308.193 258.044 313.479 256.03C314.186 254.842 315.285 253.258 315.995 252.069Z" fill="#F68895"/>
<path d="M348.422 229.91C348.143 233.275 347.558 236.608 346.676 239.867C345.369 244.696 345.402 251.175 341.29 254.029C337.645 256.554 330.829 255.507 326.415 255.957C321.721 256.437 317.003 256.636 312.286 256.552C311.819 251.321 312.405 250.799 312.405 250.799C320.315 247.426 329.034 245.335 337.625 244.932C339.237 233.518 339.181 221.93 337.459 210.533C337.147 208.448 336.778 206.375 336.354 204.312C339.148 204.589 342.142 204.755 344.938 205.036C347.941 212.963 349.131 221.462 348.422 229.91V229.91Z" fill="#2795F8"/>
<path d="M271.685 359.125C264.453 360.882 257.837 364.579 252.549 369.819C264.858 375.794 278.958 377.551 292.165 373.986C292.116 369.499 291.334 365.148 289.269 361.165C283.289 359.846 277.638 357.689 271.685 359.125Z" fill="#7C1400"/>
<path d="M346.66 189.11C346.685 189.492 348.621 189.734 352.059 189.919C353.777 190.017 355.868 190.105 358.264 190.267C360.661 190.428 363.362 190.654 366.252 191.152C367.7 191.373 369.19 191.69 370.702 192.084C372.245 192.474 373.76 192.971 375.234 193.573C378.236 194.805 381.247 196.511 383.672 198.808C384.875 199.932 385.909 201.224 386.741 202.645C386.94 202.997 387.106 203.362 387.296 203.721C387.486 204.079 387.594 204.464 387.751 204.827C387.875 205.21 387.972 205.601 388.105 205.989C388.189 206.389 388.273 206.79 388.357 207.195C388.892 210.463 388.275 214.11 387.179 217.891C386.632 219.79 385.989 221.684 385.353 223.594C385.193 224.074 385.036 224.552 384.877 225.03C384.718 225.508 384.574 225.994 384.435 226.475C384.137 227.437 383.832 228.389 383.575 229.351C382.53 232.992 381.675 236.685 381.013 240.415C380.387 243.955 379.947 247.361 379.686 250.543C379.616 251.34 379.576 252.123 379.525 252.891C379.501 253.276 379.479 253.654 379.454 254.032C379.43 254.411 379.428 254.783 379.414 255.152C379.39 255.891 379.37 256.617 379.348 257.325C379.326 258.033 379.348 258.728 379.348 259.405C379.375 264.824 379.861 269.19 380.414 272.177C380.604 273.337 380.883 274.481 381.249 275.598C381.521 276.373 381.767 276.769 381.986 276.753C382.204 276.738 382.383 276.311 382.525 275.516C382.666 274.722 382.757 273.562 382.879 272.073C383.087 269.099 383.288 264.815 383.829 259.564C383.896 258.901 383.966 258.237 384.037 257.551C384.108 256.865 384.207 256.166 384.298 255.451C384.34 255.095 384.386 254.734 384.431 254.369C384.475 254.004 384.537 253.639 384.59 253.262C384.7 252.523 384.793 251.767 384.919 251.003C385.397 247.941 386.013 244.683 386.772 241.28C387.53 237.877 388.472 234.33 389.595 230.69C389.86 229.776 390.174 228.867 390.479 227.944C390.627 227.484 390.779 227.021 390.937 226.556C391.094 226.092 391.257 225.622 391.423 225.147C392.086 223.251 392.75 221.286 393.349 219.23C393.964 217.166 394.408 215.054 394.675 212.917C394.945 210.745 394.891 208.545 394.516 206.389C394.394 205.849 394.273 205.312 394.138 204.778C393.965 204.252 393.804 203.723 393.614 203.205C393.424 202.687 393.185 202.178 392.951 201.68C392.716 201.182 392.433 200.702 392.146 200.233C390.99 198.39 389.566 196.729 387.919 195.308C386.34 193.94 384.614 192.753 382.773 191.767C381.027 190.826 379.207 190.031 377.33 189.391C375.57 188.787 373.768 188.316 371.938 187.981C370.273 187.669 368.593 187.447 366.904 187.317C366.101 187.24 365.319 187.211 364.558 187.167C363.798 187.123 363.057 187.116 362.348 187.12H361.289L360.265 187.142C359.602 187.154 358.939 187.189 358.32 187.218C355.822 187.348 353.699 187.576 351.977 187.808C348.504 188.255 346.636 188.74 346.66 189.11Z" fill="#C1855D"/>
<path d="M349.666 285.01C370.653 285.01 387.666 281.183 387.666 276.462C387.666 271.741 370.653 267.914 349.666 267.914C328.679 267.914 311.666 271.741 311.666 276.462C311.666 281.183 328.679 285.01 349.666 285.01Z" fill="#C1855D"/>
<path d="M395.445 221.491C393.048 221.358 390.667 221.012 388.331 220.457C386.706 229.022 384.263 237.411 381.036 245.508C378.093 252.907 374.522 260.04 370.362 266.828C360.995 259.969 349.517 255.289 338.103 253.162C338.988 251.361 339.812 249.518 340.551 247.65C344.256 238.146 346.008 227.993 345.704 217.795C345.603 214.155 345.246 210.525 344.634 206.935C338.53 207.632 336.501 205.468 336.501 205.468C335.876 202.53 335.597 199.529 335.669 196.526C335.761 193.582 336.814 190.748 338.669 188.46C340.523 186.172 343.076 184.557 345.936 183.86L346.022 183.84C346.787 183.654 347.57 183.484 348.348 183.325C353.133 182.38 358 181.911 362.877 181.924C364.856 181.924 366.795 181.998 368.693 182.145C370.217 182.26 371.709 182.418 373.168 182.617C373.231 182.623 373.293 182.633 373.356 182.645C373.707 182.692 374.054 182.741 374.403 182.796H374.417C375.464 183.046 376.497 183.353 377.512 183.714C380.909 184.417 384.121 185.827 386.94 187.852C389.758 189.878 392.119 192.473 393.871 195.471C397.481 201.755 398.076 214.72 395.445 221.491Z" fill="#0386E9"/>
<path d="M371.039 261.85C370.61 267.287 369.492 273.284 365.68 276.948C364.796 272.208 362.121 267.732 358.527 264.441C353.305 259.662 346.688 255.028 339.649 255.794C336.875 256.095 334.063 256.396 331.299 256.015C328.536 255.635 325.79 254.482 324.004 252.34C333.103 252.714 344.906 253.721 359.983 255.849L371.039 261.85Z" fill="#FF4A1F"/>
<path d="M380.835 217.93C385.389 219.959 390.269 221.158 395.245 221.47C395.245 221.629 395.223 221.787 395.209 221.946C395.178 222.298 395.143 222.652 395.108 223.008L395.048 223.552C395.004 223.911 394.959 224.276 394.911 224.641C394.862 225.006 394.807 225.376 394.745 225.747C394.618 226.528 394.483 227.321 394.338 228.128C394.192 228.936 393.985 229.741 393.797 230.562C393.697 230.972 393.6 231.383 393.498 231.804C393.396 232.224 393.295 232.636 393.164 233.05C393.034 233.463 392.919 233.888 392.791 234.306C392.662 234.725 392.536 235.15 392.404 235.574C392.154 236.431 391.836 237.274 391.52 238.13C391.44 238.351 391.358 238.557 391.281 238.772C391.122 239.214 390.962 239.635 390.797 240.066C390.713 240.288 390.629 240.509 390.54 240.715C390.355 241.142 390.167 241.571 389.983 242.002C389.8 242.434 389.605 242.868 389.413 243.301C389.028 244.169 388.624 245.032 388.173 245.89C387.951 246.32 387.73 246.756 387.509 247.187C387.397 247.408 387.288 247.63 387.175 247.838L386.817 248.482C386.329 249.331 385.84 250.188 385.343 251.051C385.104 251.493 384.825 251.9 384.558 252.327C384.29 252.754 384.014 253.168 383.74 253.593C383.466 254.018 383.192 254.436 382.92 254.863C382.648 255.29 382.332 255.691 382.036 256.105L381.965 256.202C381.651 256.631 381.341 257.065 381.032 257.494L380.534 258.182C380.364 258.404 380.185 258.625 380.011 258.846L378.963 260.156L377.919 261.462L374.581 265.633L371.707 263.699C375.775 260.083 379.754 256.335 382.882 251.891C386.461 246.802 388.882 240.67 388.433 234.472C388.033 228.94 385.005 223.433 380.225 220.753L380.501 219.426C380.594 218.983 380.685 218.554 380.773 218.14L380.835 217.93Z" fill="#F17785"/>
<path d="M395.244 221.471C395.264 221.281 395.275 221.088 395.288 220.9C395.275 221.091 395.264 221.279 395.246 221.471H395.244Z" fill="#FB446C"/>
<path d="M340.325 248.358C340.272 248.334 340.46 247.716 340.847 246.625C340.944 246.349 341.053 246.046 341.172 245.718C341.291 245.391 341.393 245.017 341.526 244.627C341.773 243.844 342.092 242.963 342.361 241.972C342.509 241.475 342.656 240.959 342.803 240.423C342.96 239.881 343.089 239.317 343.246 238.719C343.562 237.546 343.811 236.272 344.099 234.938C345.255 229.125 345.716 223.196 345.472 217.275C345.397 215.912 345.346 214.62 345.213 213.407C345.153 212.803 345.116 212.217 345.045 211.657C344.974 211.097 344.906 210.551 344.839 210.048C344.727 209.019 344.55 208.101 344.426 207.289C344.36 206.884 344.307 206.503 344.245 206.156C344.183 205.809 344.119 205.492 344.064 205.209C343.842 204.072 343.761 203.439 343.818 203.417C343.876 203.394 344.072 204.016 344.382 205.138L344.636 206.074C344.722 206.417 344.797 206.796 344.886 207.198C345.056 208.008 345.275 208.929 345.425 209.96C345.509 210.476 345.597 211.015 345.688 211.575C345.777 212.137 345.83 212.728 345.909 213.345C346.073 214.562 346.15 215.87 346.25 217.246C346.582 223.234 346.115 229.239 344.862 235.104C344.55 236.449 344.271 237.73 343.922 238.905C343.754 239.496 343.608 240.069 343.436 240.611L342.927 242.16C342.618 243.156 342.264 244.03 341.968 244.815C341.817 245.2 341.683 245.561 341.546 245.889L341.15 246.774C340.661 247.807 340.369 248.38 340.325 248.358Z" fill="#0577E7"/>
<path opacity="0.5" d="M320.949 274.898C319.342 274.455 317.737 273.959 316.145 273.453C316.145 273.453 316.412 276.059 317.182 280.817C310.576 289.624 307.233 300.692 306.128 311.709C305.686 316.378 305.546 321.071 305.708 325.758C303.741 316.099 302.439 306.315 301.813 296.477C301.813 296.477 300.418 301.743 298.616 309.592C298.433 308.729 298.258 307.865 298.09 307.001C298.362 305.794 298.647 304.579 298.943 303.356C300.491 297.127 302.259 291.186 304.355 285.789C306.251 280.799 308.565 275.979 311.272 271.379L311.571 270.877L312.079 271.149C313.574 271.943 315.108 272.657 316.678 273.289C318.161 273.891 319.596 274.395 320.966 274.802C320.96 274.836 320.953 274.867 320.949 274.898Z" fill="#FF4A1F"/>
<path d="M334.558 277.514C334.558 277.576 333.97 277.605 332.867 277.587C331.763 277.569 330.145 277.468 328.087 277.211C325.613 276.901 323.163 276.417 320.756 275.764H320.712C319.299 275.385 317.816 274.912 316.275 274.33C314.9 273.814 313.481 273.206 312.041 272.495C309.577 276.933 307.453 281.551 305.686 286.31C303.656 291.654 301.927 297.542 300.406 303.727C299.838 306.048 299.317 308.345 298.826 310.608C297.681 315.89 296.712 320.98 295.801 325.741C294.497 332.539 293.383 338.668 292.589 343.835C291.796 349.002 291.276 353.204 290.953 356.112C290.631 359.019 290.474 360.628 290.361 360.628C290.248 360.628 290.23 358.997 290.361 356.063C290.491 353.129 290.854 348.894 291.528 343.687C292.202 338.48 293.199 332.309 294.429 325.487C295.463 319.734 296.606 313.5 298.081 307.01C298.353 305.804 298.638 304.589 298.934 303.366C300.482 297.137 302.25 291.196 304.346 285.799C306.242 280.809 308.556 275.988 311.263 271.389L311.562 270.887L312.07 271.159C313.564 271.952 315.099 272.667 316.669 273.299C318.152 273.901 319.587 274.405 320.957 274.812H320.977C323.343 275.529 325.749 276.101 328.184 276.525C332.225 277.22 334.558 277.366 334.558 277.514Z" fill="#FF4A1F"/>
<path d="M344.943 193.473C344.943 193.473 350.729 203.28 363.235 200.264C363.235 200.264 366.993 211.106 362.302 230.51H368.773V195.548L344.943 193.473Z" fill="#0577E7"/>
<path d="M362.152 192.097C367.458 204.148 367.524 218.416 362.303 230.509C366.912 232.722 372.72 232.89 377.404 230.834C378.731 223.806 379.739 216.513 379.931 209.37C380.123 202.227 379.124 194.921 375.998 188.488C374.318 190.259 371.995 191.365 369.68 192.13C367.365 192.896 364.56 191.732 362.152 192.097Z" fill="url(#paint1_linear)"/>
<path d="M378.526 171.658C381.825 174.605 382.883 179.562 381.798 183.85C380.712 188.139 377.752 191.774 374.209 194.421C368.598 198.607 361.179 200.546 354.378 198.886C347.578 197.227 341.673 191.721 340.23 184.866C339.582 181.793 340.009 178.159 342.474 176.214C343.961 175.041 345.949 174.687 347.843 174.714C349.738 174.74 351.617 175.101 353.51 175.187C358.535 175.409 362.545 173.417 366.814 171.087C370.654 168.994 374.976 168.487 378.526 171.658Z" fill="url(#paint2_linear)"/>
<path d="M370.087 151.123C370.21 151.052 370.353 151.021 370.495 151.034C370.636 151.048 370.77 151.105 370.878 151.198C370.986 151.291 371.062 151.416 371.095 151.554C371.129 151.693 371.119 151.838 371.067 151.971C370.45 153.455 370.377 155.214 370.538 156.839C370.759 159.18 371.383 161.521 371.093 163.858C370.884 165.406 370.291 166.878 369.366 168.137C368.442 169.397 367.217 170.404 365.803 171.067C366.625 168.569 366.245 165.938 366.088 163.322C365.931 160.707 365.761 158.011 366.462 155.48C366.966 153.661 368.389 152.108 370.087 151.123Z" fill="#7C1400"/>
<path d="M368.122 179.768L367.983 179.823C367.408 180.071 366.765 180.266 366.093 180.487C364.609 180.923 363.089 181.227 361.552 181.397C360.007 181.544 358.452 181.558 356.905 181.439C356.195 181.363 355.519 181.299 354.895 181.175C354.584 181.118 354.281 181.076 353.998 181.009L353.615 180.914C353.673 180.549 353.726 180.182 353.777 179.808C353.777 179.726 353.801 179.642 353.812 179.56C353.836 179.403 353.858 179.248 353.872 179.089C353.97 178.387 354.06 177.681 354.139 176.973C354.223 176.254 354.294 175.533 354.36 174.809C354.387 174.533 354.407 174.254 354.431 173.977C354.595 172.006 354.705 170.023 354.747 168.04C354.747 167.795 354.76 167.551 354.765 167.306C355.085 167.071 355.402 166.837 355.72 166.606C358.737 164.388 361.945 162.441 365.306 160.789C365.77 164.066 366.225 167.357 366.707 170.643C367.096 173.285 367.494 175.913 367.928 178.536C367.928 178.56 367.928 178.584 367.928 178.609C367.972 178.872 368.014 179.137 368.06 179.401C368.082 179.522 368.1 179.646 368.122 179.768Z" fill="url(#paint3_linear)"/>
<path d="M368.213 180.295C366.423 179.27 364.351 178.675 362.311 178.303C359.594 177.803 356.812 177.622 354.131 176.991C354.212 176.274 354.286 175.553 354.352 174.829C354.378 174.555 354.401 174.274 354.425 173.997C354.588 172.028 354.697 170.043 354.739 168.058C354.739 167.815 354.754 167.571 354.757 167.328L355.712 166.626C358.73 164.399 361.941 162.445 365.306 160.789C365.766 164.066 366.224 167.354 366.708 170.645C367.095 173.3 367.504 175.955 367.935 178.611C367.979 178.872 368.021 179.137 368.067 179.401C368.111 179.699 368.16 179.998 368.213 180.295Z" fill="#F17785"/>
<path d="M367.518 158.391C367.539 157.874 367.688 157.371 367.95 156.926C368.212 156.481 368.58 156.107 369.021 155.837H369.036C369.603 155.481 370.285 155.359 370.94 155.497C371.775 155.718 372.386 156.464 372.682 157.267C372.964 158.044 373.008 158.889 372.807 159.691C372.607 160.494 372.172 161.218 371.558 161.772C370.944 162.326 370.179 162.684 369.361 162.799C368.542 162.915 367.708 162.784 366.965 162.423C367.284 161.101 367.469 159.75 367.518 158.391V158.391Z" fill="#F68895"/>
<path d="M349.904 146.477C348.822 147.534 347.961 148.798 347.374 150.193C346.787 151.589 346.485 153.088 346.486 154.602C346.497 156.722 347.295 159.045 349.183 160.005C349.606 157.309 350.726 154.77 352.433 152.641C353.076 151.851 353.855 150.913 353.554 149.94C353.406 149.455 353.01 149.088 352.606 148.784C351.662 148.083 351.056 146.744 349.904 146.477Z" fill="#7C1400"/>
<path d="M368.521 162.382C368.052 167.381 365.93 171.656 363.043 174.165C361.106 175.847 358.822 176.734 356.461 176.51C351.626 176.057 347.977 171.089 347.269 164.692C347.113 163.259 347.104 161.814 347.24 160.379C348.025 152.022 353.43 145.695 359.302 146.246C365.174 146.797 369.306 154.022 368.521 162.382Z" fill="url(#paint4_linear)"/>
<path d="M361.841 150.588C361.364 151.139 360.643 151.412 359.942 151.606C358.103 152.114 356.177 152.232 354.29 151.953C352.402 151.675 350.593 151.005 348.978 149.987C347.363 148.969 345.978 147.625 344.911 146.041C343.845 144.457 343.12 142.668 342.783 140.788C342.356 138.392 342.783 135.539 344.812 134.214C345.982 133.453 347.505 133.353 348.842 133.749C350.18 134.145 351.349 134.995 352.326 135.995C353.472 137.168 354.378 138.555 355.477 139.772C356.575 140.989 357.944 142.071 359.56 142.352C361.176 142.634 362.863 142.065 364.503 141.742C365.916 141.461 367.39 141.37 368.79 141.717C370.189 142.065 371.504 142.89 372.238 144.132C373.262 145.866 372.99 148.115 372.177 149.949C371.363 151.783 370.07 153.374 369.02 155.096C367.97 156.817 367.143 158.802 367.419 160.798C365.482 160.019 363.725 158.585 362.777 156.727C361.828 154.868 361.607 152.673 361.841 150.588Z" fill="#7C1400"/>
<path d="M371.678 178.583C371.563 178.669 371.435 178.764 371.291 178.864C371.147 178.964 370.979 179.059 370.802 179.163C370.401 179.407 369.986 179.629 369.56 179.827L368.81 180.174C368.589 180.274 368.355 180.358 368.114 180.451L367.972 180.504C367.393 180.738 366.748 180.926 366.069 181.13C364.576 181.533 363.051 181.805 361.51 181.942C359.959 182.059 358.401 182.042 356.852 181.891C356.143 181.8 355.471 181.723 354.847 181.586C354.538 181.524 354.237 181.473 353.963 181.4L353.585 181.298L353.143 181.183C352.626 181.05 352.175 180.873 351.779 180.74C351.582 180.667 351.399 180.601 351.233 180.519C351.067 180.437 350.923 180.373 350.791 180.298C350.264 180.028 350.001 179.838 350.043 179.742C350.085 179.647 350.435 179.656 351.012 179.742C351.155 179.767 351.312 179.793 351.487 179.831L352.053 179.919C352.458 179.981 352.909 180.081 353.419 180.141L353.762 180.192L354.204 180.258C354.483 180.298 354.772 180.318 355.071 180.353C355.665 180.431 356.304 180.457 356.974 180.508C358.429 180.572 359.886 180.55 361.338 180.442C362.783 180.311 364.219 180.093 365.638 179.791C366.286 179.634 366.909 179.503 367.473 179.329L367.928 179.203C368.056 179.167 368.18 179.132 368.302 179.094L369.058 178.851C369.544 178.709 369.967 178.537 370.351 178.408L370.888 178.229C371.05 178.169 371.2 178.112 371.331 178.067C371.879 177.882 372.215 177.815 372.279 177.899C372.343 177.983 372.135 178.233 371.678 178.583Z" fill="#0071C6"/>
<path d="M342.701 249.655C339.637 248.279 336.29 247.425 332.934 247.622C329.578 247.819 326.231 249.874 323.943 252.335C328.685 255.417 334.9 255.63 340.186 253.616C340.895 252.428 341.992 250.844 342.701 249.655Z" fill="#F68895"/>
<path d="M374.592 265.641L374.435 265.537C372.912 264.528 360.262 256.525 339.928 254.372C339.585 254.334 339.238 254.299 338.889 254.268L340.823 248.596C342.828 248.375 345.023 248.213 347.369 248.123C348.715 248.081 350.084 248.041 351.569 248.076C352.303 248.076 353.046 248.127 353.802 248.156C354.558 248.185 355.323 248.249 356.101 248.328C357.649 248.466 359.245 248.68 360.868 248.959C362.49 249.238 364.148 249.594 365.82 250.035C367.491 250.475 369.204 250.993 370.904 251.612L370.973 251.464C371.172 251.021 371.371 250.555 371.576 250.096C371.753 249.692 371.935 249.287 372.111 248.884C372.288 248.481 372.439 248.063 372.598 247.658L373.084 246.448C373.248 246.045 373.418 245.653 373.555 245.244C373.847 244.438 374.134 243.637 374.424 242.841L374.645 242.25L374.837 241.653C374.97 241.254 375.096 240.86 375.226 240.466C375.77 238.918 376.186 237.335 376.661 235.82C376.882 235.061 377.066 234.299 377.274 233.556C377.481 232.812 377.698 232.078 377.857 231.343C378.016 230.609 378.215 229.889 378.397 229.179C378.496 228.825 378.571 228.471 378.646 228.117C378.722 227.763 378.803 227.411 378.881 227.066C379.038 226.369 379.219 225.692 379.356 225.017C379.493 224.342 379.635 223.671 379.776 223.025C379.94 222.255 380.099 221.505 380.251 220.764C380.344 220.321 380.439 219.879 380.53 219.436C380.621 218.994 380.709 218.571 380.797 218.148C380.813 218.073 380.831 217.998 380.846 217.927L397.079 211.99C397.079 211.99 399.584 238.995 374.592 265.641Z" fill="#2795F8"/>
<path d="M370.922 251.973C370.829 251.929 371.015 251.274 371.428 250.132L371.782 249.187C371.906 248.838 372.043 248.462 372.186 248.057C372.478 247.247 372.836 246.335 373.181 245.311L373.747 243.711C373.942 243.153 374.125 242.567 374.326 241.965C374.74 240.763 375.124 239.462 375.549 238.099C376.356 235.36 377.172 232.328 377.897 229.115C378.622 225.902 379.161 222.811 379.597 219.99C379.794 218.576 380.001 217.233 380.138 215.969C380.211 215.339 380.298 214.73 380.359 214.144C380.421 213.557 380.477 212.993 380.532 212.455C380.656 211.38 380.72 210.402 380.802 209.545C380.841 209.119 380.879 208.721 380.914 208.351C380.945 207.985 380.972 207.649 380.998 207.344C381.109 206.133 381.219 205.463 381.326 205.463C381.432 205.463 381.516 206.127 381.584 207.357C381.6 207.665 381.615 208.003 381.633 208.373C381.651 208.742 381.633 209.147 381.644 209.581C381.644 210.448 381.644 211.437 381.595 212.526C381.571 213.073 381.544 213.646 381.52 214.241C381.496 214.836 381.432 215.454 381.385 216.095C381.301 217.376 381.14 218.751 380.976 220.178C380.612 223.054 380.092 226.186 379.371 229.445C378.651 232.704 377.769 235.765 376.878 238.517C376.413 239.887 375.978 241.19 375.509 242.387C375.288 242.987 375.067 243.569 374.846 244.12C374.625 244.671 374.404 245.198 374.183 245.702C373.769 246.713 373.34 247.603 372.973 248.389C372.786 248.78 372.615 249.145 372.45 249.477C372.284 249.809 372.118 250.103 371.972 250.376C371.382 251.447 371.017 252.026 370.922 251.973Z" fill="#0577E7"/>
<path d="M368.474 162.819C368.39 162.808 368.215 163.789 367.764 165.324C367.506 166.225 367.2 167.111 366.849 167.98C366.428 169.035 365.91 170.048 365.301 171.007C364.7 171.961 363.965 172.825 363.119 173.571L363.007 173.666C362.976 173.346 362.94 173.025 362.901 172.711C362.773 171.389 362.541 170.079 362.206 168.794C362.748 168.485 363.246 168.106 363.688 167.665C364.28 167.071 364.791 166.402 365.209 165.674C365.958 164.366 366.496 162.947 366.802 161.47C367.041 160.343 367.05 159.624 366.971 159.615C366.891 159.606 366.73 160.279 366.396 161.361C365.981 162.758 365.41 164.104 364.693 165.373C364.041 166.542 363.147 167.559 362.072 168.356C361.846 167.649 361.532 166.973 361.139 166.344C359.699 164.105 357.217 162.861 354.763 162.069C353.253 161.587 352.552 161.574 351.067 162.153C349.8 162.649 348.557 163.282 347.624 164.293C347.503 164.426 347.388 164.559 347.277 164.7C347.985 171.097 351.635 176.065 356.47 176.519C358.428 176.705 360.334 176.123 362.032 174.959C362.543 174.685 363.026 174.361 363.473 173.992C364.384 173.234 365.17 172.338 365.803 171.336C366.436 170.346 366.961 169.29 367.368 168.188C367.705 167.295 367.977 166.378 368.182 165.446C368.525 163.84 368.553 162.826 368.474 162.819Z" fill="#FBD5E2"/>
<path d="M133.094 189.11C133.07 189.493 131.135 189.734 127.698 189.92C125.98 190.017 123.886 190.105 121.492 190.267C119.098 190.429 116.392 190.654 113.503 191.152C112.055 191.373 110.564 191.69 109.052 192.084C107.509 192.474 105.995 192.972 104.52 193.573C101.52 194.805 98.5072 196.511 96.0842 198.808C94.8805 199.931 93.8468 201.224 93.0158 202.645C92.8146 202.997 92.6488 203.362 92.4587 203.721C92.2685 204.079 92.1624 204.464 92.0165 204.827C91.8706 205.19 91.7954 205.602 91.6628 205.989C91.5788 206.389 91.4948 206.79 91.4108 207.195C90.8736 210.463 91.4904 214.11 92.5869 217.891C93.1329 219.79 93.7763 221.684 94.4129 223.594C94.5721 224.075 94.7305 224.553 94.8882 225.03C95.0459 225.506 95.1933 225.988 95.3304 226.475C95.6288 227.437 95.9339 228.389 96.1904 229.351C97.2364 232.992 98.0916 236.685 98.7526 240.415C99.3782 243.956 99.8182 247.361 100.079 250.543C100.15 251.34 100.187 252.123 100.24 252.891C100.263 253.276 100.287 253.654 100.309 254.033C100.331 254.411 100.338 254.783 100.351 255.152C100.373 255.891 100.395 256.617 100.417 257.325V259.405C100.391 264.824 99.9044 269.19 99.3517 272.177C99.1628 273.338 98.8834 274.482 98.516 275.598C98.2463 276.373 97.9987 276.769 97.7821 276.753C97.5654 276.738 97.3841 276.311 97.2405 275.516C97.0968 274.722 97.0194 273.563 96.8867 272.073C96.6789 269.099 96.4777 264.815 95.9383 259.565C95.8698 258.901 95.8013 258.237 95.7305 257.551C95.6598 256.865 95.5581 256.166 95.4697 255.451C95.4254 255.094 95.3812 254.733 95.337 254.369C95.284 254.006 95.2309 253.639 95.1756 253.263C95.0651 252.523 94.9722 251.767 94.8484 251.003C94.3709 247.941 93.7431 244.684 92.9936 241.28C92.2442 237.877 91.2958 234.33 90.1706 230.69C89.9053 229.776 89.5936 228.867 89.2863 227.944C89.1389 227.484 88.9863 227.021 88.8286 226.557C88.6695 226.087 88.5059 225.618 88.3445 225.147C87.6813 223.251 87.0181 221.286 86.4167 219.23C85.8004 217.166 85.3567 215.055 85.0903 212.917C84.8185 210.745 84.8721 208.545 85.2495 206.389C85.3689 205.849 85.4905 205.312 85.6253 204.778C85.7977 204.252 85.9613 203.723 86.1493 203.205C86.3703 202.694 86.5914 202.178 86.8125 201.681C87.0335 201.183 87.332 200.702 87.6194 200.233C88.7738 198.389 90.1987 196.728 91.8463 195.308C93.4256 193.941 95.1517 192.753 96.9929 191.767C98.7425 190.818 100.568 190.018 102.451 189.373C104.21 188.769 106.012 188.298 107.841 187.964C109.506 187.651 111.187 187.43 112.877 187.3C113.677 187.222 114.46 187.193 115.22 187.149C115.981 187.105 116.721 187.098 117.431 187.103H118.49L119.513 187.125C120.177 187.136 120.84 187.171 121.457 187.2C123.955 187.331 126.077 187.559 127.802 187.791C131.255 188.256 133.118 188.74 133.094 189.11Z" fill="#C1855D"/>
<path d="M117.876 154.936C117.638 157.357 118.161 159.818 117.788 162.221C117.242 165.746 114.845 168.7 112.237 171.129C109.628 173.559 106.692 175.686 104.523 178.518C102.884 180.657 101.736 183.132 101.162 185.766C100.588 188.4 100.603 191.128 101.204 193.756C101.806 196.384 102.98 198.847 104.643 200.968C106.305 203.089 108.415 204.817 110.822 206.027C115.427 208.346 120.77 208.614 125.93 208.397C129.993 208.224 134.11 207.76 137.868 206.198C141.626 204.635 145.017 201.852 146.576 198.09C147.809 195.118 147.823 191.799 147.816 188.575C147.807 182.454 147.797 176.332 147.785 170.209C147.785 165.146 147.741 159.931 145.795 155.253C143.744 150.301 139.537 146.508 134.72 144.291C130.373 142.299 125.53 144.193 122.006 147.121C119.666 149.089 118.184 151.893 117.876 154.936V154.936Z" fill="#C5205C"/>
<path d="M210.432 241.363C207.943 242.17 204.775 242.653 201.326 242.659C199.764 242.662 198.203 242.56 196.655 242.354C195.171 242.522 193.591 242.677 191.924 242.797C190.768 242.879 189.574 242.967 188.343 243.018L186.468 243.102L184.54 243.157C183.238 243.202 181.907 243.193 180.543 243.204C179.179 243.215 177.784 243.184 176.367 243.126C173.535 243.047 170.604 242.859 167.608 242.593L166.251 242.465C165.798 242.418 165.349 242.378 164.904 242.323C164.02 242.221 163.136 242.115 162.252 242.011L160.001 241.748L158.675 239.254C157.777 237.631 156.944 236.014 156.176 234.401C155.807 233.636 155.456 232.877 155.12 232.118C154.07 229.774 153.192 227.471 152.449 225.258C151.746 223.162 151.156 221.029 150.681 218.87C150.271 216.996 149.975 215.099 149.796 213.19C149.719 212.305 149.668 211.481 149.659 210.687C149.65 209.893 149.659 209.138 149.712 208.439C149.765 207.74 149.827 207.078 149.933 206.469C150.029 205.906 150.156 205.348 150.314 204.799C150.539 203.943 150.929 203.14 151.461 202.433C151.833 201.924 152.388 201.579 153.008 201.471C153.637 201.415 154.263 201.596 154.766 201.978C155.46 202.491 156.059 203.122 156.535 203.843C156.848 204.29 157.136 204.754 157.399 205.233C157.682 205.744 157.974 206.301 158.25 206.903C158.526 207.505 158.812 208.151 159.088 208.839C159.364 209.528 159.638 210.253 159.913 211.019C160.085 211.513 160.259 212.021 160.434 212.541C160.808 213.648 161.184 214.825 161.551 216.068C162.117 217.887 162.656 219.85 163.255 221.919C163.854 223.988 164.445 226.183 165.106 228.46C165.559 230.031 166.032 231.649 166.529 233.302C166.837 233.352 167.146 233.401 167.453 233.454L168.744 233.676C171.594 234.14 174.377 234.594 177.079 234.977C178.425 235.182 179.754 235.346 181.058 235.534C182.362 235.722 183.636 235.879 184.885 236.019L186.733 236.24L188.535 236.439C189.718 236.579 190.869 236.689 191.988 236.804C193.506 236.952 194.954 237.087 196.332 237.209C197.92 236.578 199.615 236.259 201.324 236.271C206.011 236.26 209.879 238.486 210.432 241.363Z" fill="#F68895"/>
<path d="M154.65 218.482C153.591 221.579 153.863 224.974 154.49 228.187C154.902 230.298 155.464 232.378 156.171 234.409C155.801 233.643 155.45 232.884 155.114 232.125C154.064 229.782 153.186 227.479 152.443 225.266C151.74 223.17 151.15 221.037 150.675 218.878C150.265 217.004 149.969 215.107 149.79 213.197C149.713 212.312 149.662 211.489 149.653 210.695C149.645 209.9 149.653 209.146 149.706 208.447C149.759 207.747 149.821 207.086 149.928 206.477C150.023 205.914 150.15 205.356 150.308 204.807C150.534 203.951 150.923 203.148 151.455 202.441C151.827 201.932 152.382 201.587 153.003 201.479C153.631 201.423 154.258 201.604 154.76 201.985C155.454 202.498 156.053 203.13 156.529 203.851C156.842 204.298 157.131 204.762 157.393 205.24C157.676 205.751 157.968 206.309 158.244 206.911C158.521 207.513 158.806 208.159 159.082 208.847C159.358 209.535 159.633 210.261 159.907 211.027C160.079 211.521 160.253 212.028 160.428 212.549C157.718 213.324 155.574 215.762 154.65 218.482Z" fill="#F17785"/>
<path d="M130.09 285.01C151.077 285.01 168.09 281.183 168.09 276.462C168.09 271.741 151.077 267.914 130.09 267.914C109.103 267.914 92.0898 271.741 92.0898 276.462C92.0898 281.183 109.103 285.01 130.09 285.01Z" fill="#C1855D"/>
<path d="M148.876 251.934C148.876 252.434 148.876 252.93 148.859 253.425C143.405 252.505 137.922 251.582 132.393 251.544C126.864 251.507 121.233 252.394 116.312 254.921C111.391 257.448 107.231 261.741 105.619 267.034C104.59 270.44 104.722 274.092 105.995 277.414C104.142 276.281 102.601 274.624 101.976 272.568C101.151 269.86 102.004 266.943 103.024 264.303C104.721 259.902 106.435 255.691 108.725 251.77C109.968 249.619 111.405 247.586 113.018 245.696C120.849 245.475 130.448 242.819 137.011 247.099C139.711 248.849 143.926 250.496 148.876 251.934Z" fill="#FF4A1F"/>
<path d="M159.997 241.758C159.997 241.758 150.866 230.216 150.442 215.738C150.015 216.597 149.602 217.455 149.195 218.323C148.962 218.817 148.735 219.313 148.514 219.812C145.115 227.352 142.511 235.226 140.744 243.307C140.487 244.487 140.248 245.676 140.025 246.872C139.904 247.52 139.791 248.166 139.678 248.815C135.138 249.628 130.502 249.752 125.925 249.182C124.479 249.001 123.051 248.759 121.665 248.456L121.241 248.361C118.293 247.694 115.421 246.73 112.667 245.485C112.712 244.821 112.76 244.172 112.798 243.515C113.006 240.091 113.062 236.665 112.968 233.237C112.942 232.299 112.908 231.363 112.858 230.424C112.802 229.342 112.736 228.26 112.65 227.185C112.257 222.107 111.537 217.059 110.494 212.074L103.891 239.464C98.9896 247.416 93.2793 246.938 93.2793 246.938C88.6943 228.606 100.683 204.453 100.683 204.453C104.282 197.036 111.834 191.707 120.005 190.734L120.19 190.674C120.301 190.639 120.414 190.606 120.529 190.575C120.881 190.465 121.235 190.365 121.59 190.274C125.271 189.313 129.201 188.765 133.218 189.26C136.49 189.663 141.86 191.904 143.485 192.593C143.783 192.719 143.954 192.792 143.965 192.792C144.524 192.969 145.07 193.175 145.612 193.398C152.998 196.456 158.757 203.287 160.408 211.129L166.512 233.297C166.512 233.297 166.618 236.217 159.997 241.758Z" fill="#0386E9"/>
<path d="M140.744 243.299C140.485 244.479 140.246 245.667 140.026 246.864C139.904 247.512 139.789 248.158 139.679 248.806C135.138 249.62 130.501 249.744 125.924 249.174C124.48 248.994 123.05 248.753 121.666 248.448L121.241 248.353C118.293 247.686 115.42 246.722 112.666 245.476C112.712 244.812 112.759 244.164 112.799 243.509C113.006 240.087 113.063 236.66 112.969 233.228C112.944 232.29 112.907 231.353 112.858 230.416C113.743 233.244 115.215 235.924 117.43 237.875C120.101 240.232 123.62 241.349 127.115 242.08C131.594 243.028 136.169 243.437 140.744 243.299Z" fill="#006EB2"/>
<path d="M149.355 253.355C145.038 252.936 140.311 251.496 136.254 249.372L135.348 249.547C134.685 249.659 133.977 249.755 133.208 249.87C132.439 249.985 131.61 250.062 130.728 250.153C129.845 250.244 128.917 250.312 127.933 250.374C125.972 250.514 123.812 250.571 121.478 250.595C119.143 250.62 116.65 250.533 114.014 250.33C111.379 250.126 108.603 249.887 105.735 249.445C102.868 249.002 99.8901 248.484 96.8659 247.779L93.2734 246.938C93.2734 246.938 98.9904 247.416 103.885 239.463C105.16 239.905 106.424 240.319 107.679 240.704C109.447 241.255 111.171 241.744 112.86 242.196C113.64 242.402 114.409 242.602 115.168 242.795C117.578 243.404 119.888 243.877 122.062 244.322C124.237 244.734 126.262 245.09 128.141 245.378C129.07 245.521 129.963 245.661 130.794 245.772C131.625 245.882 132.439 246.013 133.184 246.103C133.593 246.163 133.982 246.218 134.358 246.269C136.223 245.472 138.267 245.192 140.278 245.457C141.058 245.561 141.824 245.75 142.564 246.019C144.186 246.632 145.644 247.613 146.823 248.886C148.002 250.159 148.869 251.689 149.355 253.355V253.355Z" fill="url(#paint5_linear)"/>
<path d="M143.503 192.596C142.037 201.268 137.514 207.583 132.166 207.583C126.419 207.583 121.61 200.268 120.547 190.578C120.899 190.469 121.254 190.369 121.61 190.277C122.908 189.933 124.223 189.657 125.55 189.45C125.802 188.253 126.018 187.038 126.202 185.827C126.602 183.153 126.836 180.456 126.903 177.753C126.918 177.005 126.92 176.257 126.903 175.511C126.903 175.184 126.903 174.865 126.887 174.538C128.39 172.77 129.601 170.773 130.475 168.623C132.861 170.088 135.082 171.765 136.92 173.892C136.891 175.386 136.918 176.874 136.999 178.355C136.999 178.623 137.026 178.895 137.043 179.167C137.199 181.633 137.506 184.087 137.963 186.516C138.233 187.941 138.549 189.359 138.922 190.764C138.929 190.764 142.663 192.238 143.503 192.596Z" fill="url(#paint6_linear)"/>
<path d="M137.976 186.513C135.006 182.781 131.217 179.783 126.902 177.755C126.92 177.007 126.922 176.259 126.902 175.511C126.902 175.184 126.902 174.865 126.887 174.538C128.39 172.77 129.6 170.774 130.473 168.623C132.86 170.088 135.084 171.767 136.917 173.892C136.89 175.388 136.917 176.872 136.999 178.357C136.999 178.623 137.025 178.895 137.041 179.167C137.2 181.633 137.512 184.086 137.976 186.513V186.513Z" fill="#F17785"/>
<path d="M120.965 190.763C120.965 190.823 120.631 190.936 120.014 191.086L119.499 191.208C119.314 191.255 119.112 191.317 118.896 191.374C118.454 191.5 117.965 191.611 117.43 191.799L116.588 192.067C116.294 192.162 115.997 192.288 115.688 192.399C115.06 192.62 114.417 192.912 113.734 193.206C110.793 194.544 108.087 196.348 105.72 198.548C105.185 199.066 104.663 199.546 104.223 200.039C104.002 200.285 103.781 200.508 103.56 200.743L102.985 201.407C102.607 201.827 102.311 202.245 102.03 202.597C101.893 202.774 101.758 202.936 101.643 203.091L101.334 203.518C100.956 204.031 100.721 204.301 100.671 204.272C100.62 204.244 100.757 203.914 101.051 203.339L101.301 202.863C101.398 202.692 101.522 202.515 101.637 202.321C101.884 201.936 102.152 201.484 102.508 201.031C102.68 200.809 102.861 200.555 103.052 200.303C103.242 200.05 103.463 199.811 103.682 199.55C104.113 199.021 104.628 198.508 105.161 197.959C107.54 195.626 110.338 193.762 113.407 192.465C114.116 192.184 114.788 191.905 115.443 191.713C115.765 191.611 116.075 191.491 116.38 191.421L117.264 191.199C117.821 191.047 118.339 190.978 118.79 190.894C119.011 190.856 119.232 190.816 119.42 190.794L119.955 190.746C120.6 190.704 120.956 190.706 120.965 190.763Z" fill="white"/>
<path d="M111.624 242.049C111.679 241.81 116.728 242.828 122.971 243.972C129.214 245.116 134.29 245.963 134.259 246.215C134.228 246.468 129.079 245.979 122.814 244.821C116.549 243.664 111.568 242.274 111.624 242.049Z" fill="white"/>
<path d="M143.897 169.774C143.897 170.216 143.883 170.659 143.859 171.081C143.567 176.266 141.533 180.86 138.029 181.796C135.9 182.369 133.564 181.493 131.422 179.74L131.309 179.645C128.375 177.198 125.822 173.108 124.677 168.858V168.84C124.55 168.345 124.572 167.824 124.741 167.342C124.909 166.859 125.216 166.438 125.623 166.129C128.985 163.528 131.511 159.996 132.889 155.973C135.049 158.734 138.469 160.416 141.98 160.75C142.472 161.764 142.862 162.823 143.145 163.914C143.65 165.826 143.903 167.796 143.897 169.774Z" fill="url(#paint7_linear)"/>
<path d="M125.077 168.295C124.467 167.852 123.706 167.409 123.016 167.697C122.488 167.918 122.225 168.522 122.132 169.089C122.005 169.803 122.058 170.537 122.287 171.224C122.516 171.912 122.914 172.531 123.444 173.025C123.974 173.52 124.619 173.873 125.321 174.053C126.022 174.233 126.758 174.234 127.46 174.057C126.034 172.547 125.598 170.297 125.077 168.295Z" fill="url(#paint8_linear)"/>
<path d="M140.863 167.783C140.158 167.396 139.413 167.002 138.608 167.022C137.66 167.042 136.84 167.635 136.07 168.206C134.474 169.401 132.825 170.656 131.899 172.424C131.577 173.045 131.344 173.709 131.207 174.395C130.624 174.013 130.064 173.598 129.529 173.152C128.177 172.023 126.92 170.786 125.77 169.452C124.886 168.434 124.36 167.77 124.289 167.814C124.218 167.859 124.621 168.615 125.443 169.72C126.519 171.16 127.761 172.467 129.144 173.614C129.759 174.125 130.412 174.59 131.096 175.004C130.942 176.422 130.991 177.855 131.242 179.259C131.021 179.073 130.8 178.878 130.579 178.668C129.601 177.715 128.713 176.675 127.926 175.559C127.309 174.703 126.958 174.147 126.882 174.183C126.807 174.218 127.033 174.847 127.572 175.787C128.28 177.01 129.155 178.128 130.174 179.106C130.74 179.646 131.361 180.126 132.027 180.538C132.571 180.876 133.152 181.15 133.76 181.352C133.978 181.424 134.199 181.485 134.423 181.534C135.567 182.002 136.83 182.095 138.031 181.801C141.535 180.865 143.569 176.269 143.861 171.087C143.885 170.645 143.898 170.217 143.898 169.779C143.005 168.956 141.926 168.363 140.863 167.783Z" fill="#FBD5E2"/>
<rect x="114" y="282" width="6" height="95" fill="#C1855D"/>
<rect x="96" y="276" width="6" height="100" fill="#C1855D"/>
<rect x="142" y="284" width="6" height="92" fill="#C1855D"/>
<rect x="159" y="280" width="6" height="97" fill="#C1855D"/>
<path d="M184.231 270.543C183.409 268.848 182.197 267.372 180.694 266.237C179.185 265.096 177.423 264.337 175.558 264.024C175.113 263.946 174.664 263.896 174.212 263.876C173.991 263.863 173.77 263.856 173.549 263.852H171.205C167.418 263.883 163.89 263.945 160.671 264.133C157.76 264.268 154.858 264.564 151.979 265.018C149.736 265.356 147.536 265.935 145.417 266.744C143.616 267.467 142.218 268.346 141.27 269.339C140.322 270.333 139.824 271.448 139.824 272.594C139.824 273.74 140.322 274.854 141.27 275.849C142.218 276.845 143.616 277.723 145.417 278.445C147.536 279.254 149.736 279.832 151.979 280.171C154.858 280.629 157.76 280.929 160.671 281.069C162.051 281.149 163.49 281.204 164.98 281.246C164.797 281.689 164.617 282.131 164.434 282.574C163.992 283.649 163.55 284.727 163.121 285.836C162.692 286.944 162.307 288.07 161.896 289.203C161.049 291.458 160.349 293.81 159.581 296.174C159.396 296.767 159.208 297.36 159.02 297.957C158.832 298.555 158.682 299.163 158.509 299.769L157.499 303.443C156.849 305.905 156.281 308.357 155.702 310.762C155.204 313.196 154.7 315.571 154.251 317.919C154.045 319.099 153.842 320.266 153.643 321.419C153.451 322.576 153.237 323.714 153.093 324.856C152.949 325.997 152.77 327.115 152.611 328.226C152.452 329.336 152.295 330.438 152.189 331.52C152.083 332.603 151.95 333.678 151.835 334.738C151.72 335.798 151.59 336.836 151.521 337.869C151.364 339.933 151.187 341.927 151.061 343.859C150.935 345.791 150.876 347.656 150.787 349.451C150.699 351.245 150.71 352.967 150.679 354.606C150.648 356.246 150.679 357.808 150.71 359.284C150.741 360.76 150.745 362.148 150.818 363.449C150.971 366.049 151.103 368.279 151.318 370.1C151.76 373.742 152.242 375.734 152.772 375.732C153.303 375.73 153.825 373.74 154.355 370.169C154.472 369.284 154.665 368.288 154.828 367.206C154.992 366.124 155.178 364.953 155.357 363.694C155.536 362.435 155.781 361.094 156.02 359.674C156.259 358.253 156.491 356.755 156.811 355.191C157.132 353.626 157.426 351.986 157.751 350.28L158.916 344.999C159.336 343.18 159.833 341.314 160.311 339.389C160.532 338.427 160.826 337.46 161.1 336.477L161.945 333.499C162.217 332.492 162.544 331.485 162.864 330.465C163.185 329.445 163.503 328.416 163.83 327.367C164.158 326.318 164.529 325.287 164.889 324.236L165.995 321.058C166.755 318.93 167.598 316.788 168.411 314.608C168.853 313.531 169.295 312.446 169.738 311.353C170.18 310.265 170.595 309.14 171.097 308.067C172.998 303.695 174.886 299.46 176.872 295.454L178.317 292.467C178.797 291.485 179.306 290.527 179.787 289.568L181.222 286.732L182.677 283.988C183.146 283.081 183.608 282.184 184.065 281.299L184.242 280.939C184.344 280.717 184.439 280.512 184.529 280.292C184.899 279.405 185.159 278.475 185.303 277.524C185.381 277.045 185.424 276.561 185.434 276.075C185.48 274.161 185.068 272.264 184.231 270.543Z" fill="#E03C1B"/>
<path d="M233.436 368.963C232.883 369.353 231.046 367.857 228.104 364.819C226.638 363.296 224.945 361.365 222.986 359.105C222.018 357.966 221.014 356.727 219.944 355.414L218.295 353.372C217.738 352.671 217.189 351.938 216.61 351.192C215.472 349.699 214.249 348.143 213.042 346.479L209.284 341.279L205.4 335.603C204.113 333.616 202.787 331.574 201.42 329.476C200.106 327.352 198.77 325.166 197.414 322.918C196.106 320.65 194.748 318.339 193.435 315.952C190.815 311.17 188.194 306.156 185.742 300.905C185.11 299.551 184.475 298.203 183.863 296.858C183.25 295.512 182.689 294.154 182.112 292.819C181.535 291.485 180.958 290.151 180.438 288.817C179.919 287.482 179.388 286.161 178.869 284.847C178.349 283.532 177.883 282.222 177.412 280.919C177.129 280.129 176.857 279.35 176.578 278.569C175.533 278.83 174.496 279.074 173.47 279.284C171.684 279.667 169.933 279.948 168.211 280.169C166.491 280.368 164.811 280.547 163.177 280.612C161.989 280.674 160.829 280.697 159.697 280.682L159.397 280.983C146.132 281.337 128.798 281.061 115.587 279.828C112.863 279.572 110.091 279.273 107.573 278.202C107.03 277.971 106.504 277.702 105.999 277.396C104.146 276.263 102.605 274.606 101.98 272.55C101.155 269.842 102.008 266.926 103.028 264.286C104.725 259.885 106.439 255.674 108.729 251.753C109.972 249.601 111.409 247.568 113.022 245.679C120.853 245.457 130.452 242.802 137.015 247.081C139.706 248.832 143.922 250.478 148.88 251.916C156.302 254.074 165.381 255.771 173.481 256.676C180.056 257.406 185.987 257.616 189.854 257.119L192.042 263.779C192.421 264.938 192.806 266.113 193.196 267.304C193.587 268.494 193.973 269.701 194.355 270.924L195.575 274.613C195.984 275.856 196.373 277.12 196.815 278.374L198.1 282.207C198.515 283.504 198.984 284.794 199.426 286.101C199.868 287.409 200.326 288.73 200.781 290.056C201.237 291.381 201.73 292.711 202.207 294.052C204.04 299.252 205.948 304.293 207.811 309.174C208.771 311.608 209.713 313.993 210.632 316.332C211.587 318.662 212.524 320.942 213.442 323.172C214.388 325.385 215.31 327.547 216.208 329.658C217.132 331.752 218.029 333.786 218.901 335.758C219.795 337.722 220.659 339.614 221.491 341.434C222.318 343.262 223.165 344.988 223.939 346.661C224.328 347.494 224.709 348.306 225.082 349.095L226.187 351.4C226.903 352.901 227.58 354.319 228.21 355.645C229.51 358.28 230.58 360.59 231.449 362.489C233.226 366.31 233.991 368.572 233.436 368.963Z" fill="#FF4A1F"/>
<path d="M156.044 303.916C155.624 305.549 155.235 307.18 154.854 308.766L154.445 310.479L154.085 312.234C153.696 314.11 153.329 315.878 152.98 317.697L152.374 321.207L152.226 322.076C152.078 322.928 151.925 323.811 151.817 324.672L151.289 328.383C151.147 329.367 151.003 330.374 150.908 331.379L150.484 335.229C150.391 336.061 150.292 336.926 150.236 337.772C150.181 338.508 150.121 339.239 150.062 339.96C149.956 341.288 149.858 342.527 149.776 343.797L149.502 349.406C149.451 350.767 149.432 352.079 149.412 353.347C149.412 353.763 149.398 354.175 149.39 354.571C149.381 354.967 149.374 355.328 149.372 355.697C147.756 360.961 147.771 366.892 149.208 372.123C149.692 373.893 150.384 375.663 151.715 376.924C153.72 378.812 156.703 379.102 159.453 379.29C160.746 379.381 162.285 379.358 163.019 378.29C163.653 377.367 163.333 376.061 162.667 375.161C162.002 374.26 161.051 373.612 160.271 372.809C158.206 370.673 157.487 367.547 157.454 364.575C157.417 361.49 158.354 358.098 158.179 354.951L159.024 350.541L160.185 345.291C160.452 344.116 160.753 342.938 161.069 341.69C161.237 341.026 161.405 340.363 161.573 339.699C161.741 339.035 161.942 338.285 162.154 337.537C162.218 337.305 162.285 337.072 162.347 336.84L163.196 333.848C163.417 333.023 163.677 332.202 163.952 331.335L164.1 330.861L165.072 327.763C165.294 327.055 165.53 326.358 165.789 325.617C165.899 325.305 166.01 324.991 166.114 324.681L167.204 321.508C167.683 320.18 168.207 318.788 168.716 317.456C169.01 316.673 169.305 315.886 169.6 315.097L170.926 311.864C171.074 311.488 171.226 311.11 171.384 310.729C171.663 310.03 171.95 309.309 172.268 308.627L172.279 308.601C172.294 308.563 172.311 308.526 172.33 308.49C167.428 305.489 161.79 303.906 156.044 303.916V303.916Z" fill="#FF8E73"/>
<rect x="359" y="284" width="6" height="92" fill="#C1855D"/>
<rect x="359" y="284" width="6" height="92" fill="#C1855D"/>
<rect x="359" y="284" width="6" height="92" fill="#C1855D"/>
<rect x="329" y="282" width="6" height="95" fill="#39B54A"/>
<rect x="329" y="282" width="6" height="95" fill="#39B54A"/>
<rect x="329" y="282" width="6" height="95" fill="#C1855D"/>
<rect x="307" y="273" width="6" height="104" fill="#39B54A"/>
<rect x="307" y="273" width="6" height="104" fill="#39B54A"/>
<rect x="307" y="273" width="6" height="104" fill="#C1855D"/>
<rect x="377" y="277" width="6" height="99" fill="#39B54A"/>
<rect x="377" y="277" width="6" height="99" fill="#39B54A"/>
<rect x="377" y="277" width="6" height="99" fill="#C1855D"/>
<path d="M242.486 365.642C241.429 365.27 240.275 365.27 239.186 365.04C236.278 364.429 233.935 362.241 232.242 359.798C230.654 357.506 229.589 354.563 227.986 352.162L227.787 351.746L227.371 350.874L226.266 348.584L225.128 346.15C224.798 345.437 224.464 344.716 224.106 343.981C223.638 342.994 223.156 341.976 222.683 340.927C221.946 339.319 221.187 337.657 220.405 335.94L220.096 335.276C219.536 334.007 218.965 332.712 218.383 331.39L217.412 329.191L214.651 322.721L211.848 315.899C210.928 313.56 209.989 311.166 209.033 308.751C207.4 304.476 205.521 299.522 203.708 294.408C196.765 295.47 190.469 299.087 186.051 304.552C187.853 308.256 189.884 312.159 192.314 316.596C193.337 318.45 194.39 320.264 195.409 322.021C195.714 322.544 196.015 323.068 196.326 323.606C197.706 325.892 199.056 328.104 200.341 330.178L201.004 331.193C202.138 332.942 203.243 334.653 204.32 336.327L208.224 342.032L212 347.26C212.885 348.46 213.747 349.601 214.593 350.703C214.929 351.146 215.257 351.571 215.593 352.005L216.159 352.741C216.539 353.237 216.91 353.722 217.295 354.206L218.944 356.242L219.313 356.698C220.025 357.57 220.706 358.404 221.374 359.205C223.187 363.63 226.021 367.563 229.644 370.683C231.032 371.871 232.604 372.964 234.408 373.254C237.127 373.696 239.758 372.26 242.146 370.877C243.267 370.227 244.529 369.346 244.538 368.049C244.538 366.916 243.543 366.016 242.486 365.642Z" fill="#FF8E73"/>
<path d="M325.197 364.571C319.005 367.029 313.6 371.13 309.562 376.432C321.217 380.193 333.936 379.996 345.199 375.195C344.596 371.223 343.365 367.463 341.039 364.191C335.572 363.772 330.297 362.555 325.197 364.571Z" fill="#7C1400"/>
<path d="M371.038 261.851C370.61 267.288 369.491 273.284 365.68 276.949C365.197 277.415 364.673 277.837 364.114 278.21C360.259 280.797 355.249 280.706 350.629 280.314C340.587 279.462 330.649 277.649 320.952 274.897C319.345 274.455 317.74 273.959 316.148 273.452C316.148 273.452 316.416 276.059 317.185 280.817C319.396 294.565 325.789 326.267 341.872 364.833C341.872 364.833 336.454 368.215 319.944 367.018C319.944 367.018 311.218 352.599 305.709 325.758C303.742 316.098 302.441 306.315 301.814 296.476C301.814 296.476 300.419 301.743 298.617 309.592C295.401 323.596 290.893 345.819 290.718 361.036C290.718 361.036 280.434 361.756 273.669 357.153C273.669 357.153 272.314 294.58 297.214 253.675C297.214 253.675 304.202 251.515 324.019 252.334C333.118 252.708 344.921 253.715 359.998 255.843L371.038 261.851Z" fill="url(#paint9_linear)"/>
<path fill-rule="evenodd" clip-rule="evenodd" d="M240 200H278V239H240V200Z" fill="white"/>
<path d="M246.439 206C246.194 206 246 206.196 246 206.444V214.278C246 214.525 246.198 214.722 246.439 214.722H254.185C254.426 214.722 254.623 214.525 254.623 214.278V206.444C254.623 206.196 254.426 206 254.185 206H246.439ZM264.809 206C264.568 206 264.37 206.196 264.37 206.444V214.278C264.37 214.525 264.568 214.722 264.809 214.722H272.555C272.796 214.722 273 214.525 273 214.278V206.444C273 206.196 272.796 206 272.555 206H264.809ZM256.031 206.444V209.086H258.625V211.701H256.031V214.343V216.979H253.429V218.72H251.641H251.448H249.047V216.105H246.439V218.74H249.027V220.964V221.362V223.6H251.641V221.362H254.062V219.621H256.037V216.979H258.645V218.303H263.834V224.859H261.252V222.263H258.658V219.634H256.044V222.269H258.645V224.872H256.063V232.556H258.671V230.032H261.252V227.494H263.867V224.885H266.442V220.958H269.043V223.587H272.555V220.945H269.056V218.316H266.448V218.303H263.867V215.661H258.645V214.343V211.701H260.517H261.233H263.131V209.059H261.233H260.517H258.645V206.443H256.031V206.444ZM246.878 206.894H253.746V213.835H246.878V206.894ZM265.248 206.894H272.116V213.835H265.248V206.894ZM247.865 207.892V212.83H252.758V207.892H247.865V207.892ZM266.242 207.892V212.83H271.128V207.892H266.242V207.892ZM269.05 215.661V218.303H271.657V215.661H269.05ZM246.439 224.285C246.194 224.285 246 224.481 246 224.728V232.556C246 232.8 246.198 233 246.439 233H254.185C254.426 233 254.623 232.8 254.623 232.556V224.728C254.623 224.485 254.426 224.285 254.185 224.285H246.439ZM258.677 224.898H261.259V227.396H258.677V224.898ZM246.878 225.172H253.746V232.113H246.878V225.172ZM264.932 226.072V228.714H267.378V232.674H269.947H269.992H272.555V230.032H269.992V226.085H267.546V226.072H264.932V226.072ZM247.865 226.17V231.115H252.758V226.17H247.865ZM261.259 230.032V232.674H263.867V230.032H261.259Z" fill="#FF4A1F"/>
</g>
<defs>
<linearGradient id="paint0_linear" x1="35.6956" y1="189.662" x2="446.307" y2="189.662" gradientUnits="userSpaceOnUse">
<stop stop-color="#FFD2C7"/>
<stop offset="1" stop-color="#FFD2C7"/>
</linearGradient>
<linearGradient id="paint1_linear" x1="370.867" y1="192.54" x2="371.27" y2="233.31" gradientUnits="userSpaceOnUse">
<stop stop-color="#FF6D4A"/>
<stop offset="0.06" stop-color="#FF714F"/>
<stop offset="0.37" stop-color="#FF8163"/>
<stop offset="0.69" stop-color="#FF8B6F"/>
<stop offset="1" stop-color="#FF8E73"/>
</linearGradient>
<linearGradient id="paint2_linear" x1="83120.3" y1="28817.5" x2="76622.6" y2="32525.3" gradientUnits="userSpaceOnUse">
<stop stop-color="#FF6D4A"/>
<stop offset="0.06" stop-color="#FF714F"/>
<stop offset="0.37" stop-color="#FF8163"/>
<stop offset="0.69" stop-color="#FF8B6F"/>
<stop offset="1" stop-color="#FF8E73"/>
</linearGradient>
<linearGradient id="paint3_linear" x1="359.613" y1="164.692" x2="361.259" y2="185.255" gradientUnits="userSpaceOnUse">
<stop stop-color="#F17785"/>
<stop offset="0.14" stop-color="#F37E8C"/>
<stop offset="0.42" stop-color="#F58693"/>
<stop offset="1" stop-color="#F68895"/>
</linearGradient>
<linearGradient id="paint4_linear" x1="39927.5" y1="25444.9" x2="40808.1" y2="28977.9" gradientUnits="userSpaceOnUse">
<stop stop-color="#F17785"/>
<stop offset="0.14" stop-color="#F37E8C"/>
<stop offset="0.42" stop-color="#F58693"/>
<stop offset="1" stop-color="#F68895"/>
</linearGradient>
<linearGradient id="paint5_linear" x1="39795.7" y1="17082.9" x2="40701.5" y2="20482.8" gradientUnits="userSpaceOnUse">
<stop stop-color="#F17785"/>
<stop offset="0.14" stop-color="#F37E8C"/>
<stop offset="0.42" stop-color="#F58693"/>
<stop offset="1" stop-color="#F68895"/>
</linearGradient>
<linearGradient id="paint6_linear" x1="127.917" y1="169.088" x2="134.816" y2="207.214" gradientUnits="userSpaceOnUse">
<stop stop-color="#F17785"/>
<stop offset="0.1" stop-color="#F27B89"/>
<stop offset="0.5" stop-color="#F58592"/>
<stop offset="1" stop-color="#F68895"/>
</linearGradient>
<linearGradient id="paint7_linear" x1="16850.5" y1="25600.7" x2="15385.7" y2="22780.9" gradientUnits="userSpaceOnUse">
<stop stop-color="#F17785"/>
<stop offset="0.1" stop-color="#F27B89"/>
<stop offset="0.5" stop-color="#F58592"/>
<stop offset="1" stop-color="#F68895"/>
</linearGradient>
<linearGradient id="paint8_linear" x1="4119.24" y1="7348.03" x2="3768.58" y2="6600.69" gradientUnits="userSpaceOnUse">
<stop stop-color="#F17785"/>
<stop offset="0.1" stop-color="#F27B89"/>
<stop offset="0.5" stop-color="#F58592"/>
<stop offset="1" stop-color="#F68895"/>
</linearGradient>
<linearGradient id="paint9_linear" x1="359.353" y1="256.182" x2="276.963" y2="365.805" gradientUnits="userSpaceOnUse">
<stop stop-color="#FF4A1F"/>
<stop offset="0.08" stop-color="#FF4F26"/>
<stop offset="0.39" stop-color="#FF603A"/>
<stop offset="0.7" stop-color="#FF6A46"/>
<stop offset="1" stop-color="#FF6D4A"/>
</linearGradient>
<clipPath id="clip0">
<rect width="482" height="380" fill="white"/>
</clipPath>
</defs>
</svg>
