<svg width="684" height="813" viewBox="0 0 684 813" fill="none" xmlns="http://www.w3.org/2000/svg">
<g clip-path="url(#clip0)">
<path fill-rule="evenodd" clip-rule="evenodd" d="M25.6367 11.6719H707.345V626.805H25.6367V11.6719Z" fill="#FFF1EE"/>
<path fill-rule="evenodd" clip-rule="evenodd" d="M0 509H706.991V547H0V509Z" fill="#DBB093"/>
<path fill-rule="evenodd" clip-rule="evenodd" d="M65.1055 627.973H707.346V547.434H65.1055V627.973Z" fill="#D39368"/>
<path fill-rule="evenodd" clip-rule="evenodd" d="M182.711 152.654H422.716V465.063H182.711V152.654Z" fill="white"/>
<path fill-rule="evenodd" clip-rule="evenodd" d="M204.323 506.718H444.329L422.716 465.064H182.711L204.323 506.718Z" fill="#E6E6E6"/>
<path fill-rule="evenodd" clip-rule="evenodd" d="M204.322 506.718H444.328L422.725 465.064C383.659 503.569 204.328 506.718 204.328 506.718H204.322Z" fill="#F7F7F7"/>
<path fill-rule="evenodd" clip-rule="evenodd" d="M182.71 465.064H178.71L158.451 506.688L159.615 509.468H200.319H204.322V506.718L182.71 465.064Z" fill="white"/>
<path fill-rule="evenodd" clip-rule="evenodd" d="M161.98 506.553L178.708 506.529V471.426L161.98 506.553Z" fill="#999999"/>
<path fill-rule="evenodd" clip-rule="evenodd" d="M182.711 506.529L200.423 506.503L182.711 471.76V506.529Z" fill="#B3B3B3"/>
<path fill-rule="evenodd" clip-rule="evenodd" d="M180.712 152.654C180.182 152.656 179.675 152.862 179.3 153.227C178.925 153.593 178.713 154.088 178.711 154.605V506.529H182.713V154.605C182.711 154.088 182.499 153.593 182.125 153.227C181.75 152.862 181.242 152.656 180.712 152.654V152.654Z" fill="white"/>
<path fill-rule="evenodd" clip-rule="evenodd" d="M182.711 225.984H422.716V400.703H182.711V225.984Z" fill="#FF4A1F"/>
<path fill-rule="evenodd" clip-rule="evenodd" d="M204.322 506.717H444.328V509.467H204.322V506.717Z" fill="#CCCCCC"/>
<path fill-rule="evenodd" clip-rule="evenodd" d="M220.49 415.51C222.835 415.509 225.128 416.188 227.078 417.459C229.028 418.73 230.548 420.538 231.445 422.653C232.343 424.768 232.578 427.095 232.12 429.34C231.663 431.585 230.534 433.648 228.876 435.267C227.218 436.885 225.105 437.988 222.805 438.434C220.506 438.881 218.122 438.651 215.955 437.775C213.789 436.898 211.938 435.415 210.635 433.511C209.333 431.607 208.638 429.369 208.639 427.08C208.639 424.012 209.888 421.069 212.111 418.899C214.333 416.73 217.347 415.511 220.49 415.51V415.51Z" fill="#FF4A1F"/>
<path fill-rule="evenodd" clip-rule="evenodd" d="M275.305 415.51C277.65 415.509 279.942 416.188 281.892 417.459C283.842 418.73 285.362 420.538 286.26 422.653C287.157 424.768 287.392 427.095 286.935 429.34C286.478 431.585 285.349 433.648 283.69 435.267C282.032 436.885 279.92 437.988 277.62 438.434C275.32 438.881 272.936 438.651 270.77 437.775C268.604 436.898 266.752 435.415 265.45 433.511C264.147 431.607 263.453 429.369 263.453 427.08C263.454 424.012 264.703 421.069 266.925 418.899C269.148 416.73 272.162 415.511 275.305 415.51V415.51Z" fill="#FF4A1F"/>
<path fill-rule="evenodd" clip-rule="evenodd" d="M330.12 415.511C332.465 415.508 334.759 416.185 336.71 417.456C338.661 418.726 340.183 420.534 341.082 422.648C341.98 424.763 342.217 427.091 341.76 429.337C341.303 431.583 340.175 433.646 338.517 435.266C336.859 436.885 334.746 437.988 332.446 438.435C330.145 438.882 327.761 438.652 325.594 437.776C323.427 436.899 321.576 435.415 320.273 433.511C318.971 431.607 318.276 429.368 318.277 427.078C318.277 424.01 319.526 421.067 321.749 418.897C323.971 416.727 326.986 415.508 330.129 415.508L330.12 415.511Z" fill="#FF4A1F"/>
<path fill-rule="evenodd" clip-rule="evenodd" d="M384.938 415.51C387.283 415.509 389.575 416.188 391.525 417.459C393.475 418.73 394.995 420.538 395.893 422.653C396.79 424.768 397.025 427.095 396.568 429.34C396.111 431.585 394.981 433.648 393.323 435.267C391.665 436.885 389.553 437.988 387.253 438.434C384.953 438.881 382.569 438.651 380.403 437.775C378.236 436.898 376.385 435.415 375.083 433.511C373.78 431.607 373.085 429.369 373.086 427.08C373.087 424.012 374.336 421.069 376.558 418.899C378.781 416.73 381.795 415.511 384.938 415.51Z" fill="#FF4A1F"/>
<path fill-rule="evenodd" clip-rule="evenodd" d="M250.136 250.74H355.29C357.293 250.74 359.215 251.517 360.632 252.901C362.049 254.284 362.845 256.16 362.845 258.116V360.518C362.847 361.488 362.653 362.449 362.274 363.345C361.895 364.242 361.339 365.057 360.637 365.743C359.936 366.429 359.102 366.974 358.184 367.346C357.267 367.717 356.283 367.909 355.29 367.909H250.136C248.133 367.908 246.212 367.13 244.796 365.747C243.38 364.364 242.584 362.488 242.584 360.533V258.119C242.584 257.15 242.779 256.191 243.158 255.296C243.537 254.401 244.093 253.588 244.795 252.903C245.496 252.217 246.329 251.674 247.245 251.303C248.162 250.932 249.144 250.741 250.136 250.74V250.74Z" fill="white"/>
<path fill-rule="evenodd" clip-rule="evenodd" d="M288.272 263.043H292.404V267.068H288.272V263.043ZM259.357 351.579H271.748V339.496H259.357V351.57V351.579ZM333.699 279.154H346.09V267.065H333.699V279.154ZM259.342 279.154H271.733V267.065H259.342V279.154ZM275.67 331.452H251.066V359.616H279.982V331.452H275.67ZM275.67 355.395H255.42V335.641H275.67V355.395ZM350.027 259.024H325.435V287.198H354.354V259.016L350.027 259.024ZM350.027 282.968H329.777V263.204H350.012V282.962L350.027 282.968ZM275.67 259.016H251.066V287.189H279.982V259.016H275.67ZM275.67 282.962H255.42V263.204H275.67V282.962ZM350.237 359.619H354.369V355.606H350.222V351.59H354.354V347.551H350.222V351.567H346.09V359.616L350.237 359.619ZM329.582 359.619H333.699V355.606H341.959V351.582H337.83V347.551H346.09V343.526H354.354V339.496H346.09V343.52H341.959V323.397H337.83V319.372H333.699V315.347H329.567V307.304H333.699V299.254H329.567V295.229H321.304V279.154H313.044V275.115H317.175V271.09H292.389V267.065H296.52V263.043H292.389V259.016H288.272V263.043H284.125V267.068H288.272V271.093H292.404V275.117H284.125V279.154H292.389V275.115H296.52V279.154H300.652V291.228H308.912V287.189H313.044V283.164H317.175V291.213H313.044V295.229H292.389V291.213H288.272V295.229H284.125V303.279H279.994V299.254H275.865V295.238H279.994V291.213H275.865V295.229V291.213H267.602V295.229H263.47V291.213H259.339V295.229H255.21V291.213H251.066V299.254H255.198V303.279H251.066V311.328H255.198V315.353H251.066V319.378H255.198V323.403H251.066V327.427H255.198V323.403H263.458V327.427H271.721V319.378H279.982V315.353H284.113V303.279H288.272V307.304H284.125V311.328H288.272V323.403H292.404V319.378H296.535V331.452H292.389V327.427H284.125V323.403H275.865V327.427H284.125V331.452H292.389V335.477H288.272V339.496H284.125V343.52H292.389V335.471H296.52V339.496H300.652V343.52H296.52V347.545H284.125V351.57H288.272V355.606H284.125V359.631H288.272V355.606H292.404V359.631H300.667V355.606H308.927V359.631H313.059V355.606H317.19V359.631H325.45V355.606H329.582V359.631V359.619ZM333.699 355.606H329.567V351.59H333.699V355.606ZM300.652 355.606H296.52V351.59H300.652V355.606ZM308.912 351.582H304.774V347.551H308.906V351.567L308.912 351.582ZM329.567 347.566H321.304V343.541H329.567V347.566ZM313.044 347.566H308.912V343.541H304.774V339.496H300.652V323.385H308.912V327.41H313.044V323.385H308.912V315.336H317.175V319.36H321.304V315.336H325.435V323.385H317.175V331.434H313.044V335.459H317.175V343.509H313.044V347.533V347.566ZM333.699 339.496H321.304V327.427H333.699V339.496ZM350.222 335.471H354.354V327.427H346.09V335.477L350.222 335.471ZM325.435 335.471H329.567V331.446H325.435V335.471ZM304.78 335.471H308.912V331.446H304.774V335.471H304.78ZM333.699 323.397H329.567V319.372H333.699V323.397ZM346.09 323.397H350.222V319.372H354.354V307.304H350.222V303.279H354.354V295.229H350.222V291.213H333.699V295.238H350.222V299.254H341.959V303.279H346.09V315.353H341.959V307.304H337.83V315.353H341.959V319.378H346.09V323.403V323.397ZM263.47 319.372H255.21V315.347H259.342V311.322H263.47V307.304H259.339V311.328H255.21V303.279H259.342V299.254H275.865V303.279H279.994V307.304H271.733V303.279H267.602V307.304H271.733V315.353H263.47V319.378V319.372ZM296.52 315.347H292.389V311.322H296.52V315.347V315.347ZM279.994 315.347H275.865V311.322H279.994V315.347V315.347ZM321.304 311.322H317.175V307.304H321.304V311.328V311.322ZM313.044 311.322H304.774V307.304H313.038V311.328L313.044 311.322ZM329.567 307.298H325.435V299.254H329.567V307.304V307.298ZM300.652 307.298H296.52V303.279H288.272V295.238H292.404V299.254H300.667V307.304L300.652 307.298ZM321.304 303.273H313.044V295.238H321.304V303.279V303.273ZM308.912 303.273H304.774V299.254H308.906V303.279L308.912 303.273ZM308.912 287.183H304.774V283.164H308.906V287.189L308.912 287.183ZM292.389 287.183H296.52V283.164H292.389V287.189V287.183ZM284.125 287.183H288.272V283.164H284.125V287.189V287.183ZM317.175 267.059H321.304V263.043H317.175V259.016H313.044V267.065L317.175 267.059ZM304.78 267.059H308.912V263.043H304.774V259.016H300.652V267.065L304.78 267.059Z" fill="#100D04"/>
<path fill-rule="evenodd" clip-rule="evenodd" d="M371.129 212.016L407.014 258.449C413.111 266.341 425.617 269.059 432.782 262.07C439.941 255.081 442.588 244.805 436.491 236.917L400.605 190.48C394.508 182.589 382.942 180.937 374.838 186.863C366.736 192.785 365.032 204.127 371.129 212.019V212.016Z" fill="#FBB570"/>
<path fill-rule="evenodd" clip-rule="evenodd" d="M595.098 428.249C595.098 428.249 616.443 431.471 616.443 407.009C616.443 383.361 607.412 342.484 607.412 320.041C607.412 292.799 622.777 282.479 634.917 285.573C638.818 298.599 660.577 379.756 665.912 408.213C671.246 436.67 671.249 443.48 667.556 468.73C663.862 493.98 655.254 559.705 655.254 575.737C655.254 590.62 665.156 604.124 679.723 627.148H523.574L517.303 602.188C517.303 602.188 415.123 524.959 413.256 406.865C411.39 288.771 595.098 428.249 595.098 428.249Z" fill="#FBB570"/>
<path fill-rule="evenodd" clip-rule="evenodd" d="M613.043 370.999C610.484 352.457 607.414 333.115 607.414 320.03C607.414 298.75 616.784 287.809 626.671 285.498C617.46 291.611 611.42 334.53 613.043 370.993V370.999Z" fill="#E5A062"/>
<path fill-rule="evenodd" clip-rule="evenodd" d="M635.423 287.242C637.959 290.757 643.155 302 644.229 319.51C640.905 319.973 637.07 320.246 633.86 318.265C629.593 315.629 627.307 290.546 635.423 287.242Z" fill="#FDCA9E"/>
<path fill-rule="evenodd" clip-rule="evenodd" d="M429.789 81.1738H576.916C585.274 81.1824 593.287 84.4296 599.194 90.202C605.101 95.9745 608.42 103.8 608.421 111.96V465.196C608.42 473.355 605.101 481.18 599.194 486.952C593.287 492.724 585.274 495.971 576.916 495.979H429.804C421.441 495.976 413.422 492.732 407.508 486.959C401.595 481.186 398.272 473.357 398.27 465.193V111.96C398.271 103.795 401.594 95.9657 407.508 90.1925C413.421 84.4194 421.441 81.1754 429.804 81.1738H429.789Z" fill="#333333"/>
<path fill-rule="evenodd" clip-rule="evenodd" d="M397.025 138.429V151.71C397.025 152.027 397.155 152.332 397.385 152.557C397.615 152.781 397.927 152.908 398.253 152.908C398.578 152.908 398.89 152.781 399.12 152.557C399.35 152.332 399.48 152.027 399.48 151.71V138.429C399.48 138.111 399.35 137.806 399.12 137.581C398.89 137.357 398.578 137.23 398.253 137.23C397.927 137.23 397.615 137.357 397.385 137.581C397.155 137.806 397.025 138.111 397.025 138.429ZM397.025 167.603V195.724C397.025 196.042 397.155 196.346 397.385 196.571C397.615 196.796 397.927 196.922 398.253 196.922C398.578 196.922 398.89 196.796 399.12 196.571C399.35 196.346 399.48 196.042 399.48 195.724V167.603C399.48 167.286 399.35 166.981 399.12 166.756C398.89 166.532 398.578 166.405 398.253 166.405C397.927 166.405 397.615 166.532 397.385 166.756C397.155 166.981 397.025 167.286 397.025 167.603ZM607.218 178.122V223.569C607.218 223.887 607.348 224.191 607.578 224.416C607.808 224.641 608.12 224.767 608.445 224.767C608.771 224.767 609.083 224.641 609.313 224.416C609.543 224.191 609.673 223.887 609.673 223.569V178.122C609.673 177.804 609.543 177.5 609.313 177.275C609.083 177.05 608.771 176.924 608.445 176.924C608.12 176.924 607.808 177.05 607.578 177.275C607.348 177.5 607.218 177.804 607.218 178.122ZM397.04 205.496V233.616C397.04 233.934 397.17 234.238 397.4 234.463C397.63 234.688 397.942 234.814 398.268 234.814C398.593 234.814 398.905 234.688 399.135 234.463C399.365 234.238 399.495 233.934 399.495 233.616V205.496C399.495 205.178 399.365 204.873 399.135 204.648C398.905 204.424 398.593 204.298 398.268 204.298C397.942 204.298 397.63 204.424 397.4 204.648C397.17 204.873 397.04 205.178 397.04 205.496V205.496Z" fill="#333333"/>
<path fill-rule="evenodd" clip-rule="evenodd" d="M576.318 93.5234H556.644C555.986 93.5234 555.355 93.7787 554.889 94.233C554.424 94.6873 554.163 95.3034 554.163 95.9459V97.9202C554.163 101.286 551.033 107.792 543.856 107.792H461.614C458.936 107.792 456.36 106.789 454.417 104.991C452.473 103.193 451.31 100.736 451.166 98.1252V95.94C451.166 95.2973 450.903 94.6811 450.438 94.2269C449.972 93.7727 449.34 93.5176 448.682 93.5176H428.696C423.812 93.5184 419.128 95.4129 415.674 98.7845C412.221 102.156 410.28 106.729 410.279 111.497V466.37C410.28 470.869 412.111 475.184 415.37 478.365C418.629 481.546 423.049 483.333 427.658 483.333H577.338C581.943 483.331 586.358 481.543 589.613 478.363C592.868 475.183 594.696 470.872 594.696 466.376V111.503C594.695 106.741 592.76 102.174 589.314 98.8038C585.869 95.4333 581.195 93.5343 576.318 93.5234V93.5234Z" fill="white"/>
<path fill-rule="evenodd" clip-rule="evenodd" d="M490.563 96.4297H514.651C514.921 96.4305 515.181 96.536 515.372 96.7233C515.563 96.9105 515.671 97.1641 515.671 97.4285V98.0144C515.671 98.2785 515.563 98.5318 515.372 98.7186C515.181 98.9054 514.921 99.0103 514.651 99.0103H490.563C490.429 99.0103 490.296 98.9845 490.173 98.9345C490.049 98.8844 489.936 98.8111 489.842 98.7186C489.747 98.6261 489.672 98.5163 489.621 98.3955C489.569 98.2747 489.543 98.1452 489.543 98.0144V97.4285C489.543 97.1641 489.65 96.9105 489.842 96.7233C490.033 96.536 490.292 96.4305 490.563 96.4297V96.4297Z" fill="#FFF1EE"/>
<path fill-rule="evenodd" clip-rule="evenodd" d="M527.663 97.8346V97.8815C527.663 98.2922 527.538 98.6938 527.304 99.0353C527.071 99.3768 526.738 99.643 526.35 99.8002C525.961 99.9574 525.533 99.9985 525.12 99.9184C524.708 99.8383 524.329 99.6405 524.031 99.35C523.734 99.0596 523.531 98.6895 523.449 98.2867C523.367 97.8838 523.409 97.4662 523.57 97.0867C523.731 96.7072 524.004 96.3829 524.354 96.1547C524.703 95.9265 525.115 95.8047 525.536 95.8047C526.091 95.8053 526.625 96.0179 527.022 96.3971C527.42 96.7764 527.649 97.2922 527.663 97.8346V97.8346Z" fill="#FFF1EE"/>
<path fill-rule="evenodd" clip-rule="evenodd" d="M541.964 97.8346C541.964 97.8551 541.964 97.8727 541.964 97.8903C541.964 98.3028 541.839 98.706 541.604 99.049C541.369 99.392 541.036 99.6593 540.645 99.8171C540.255 99.975 539.825 100.016 539.411 99.9358C538.997 99.8553 538.616 99.6567 538.317 99.365C538.018 99.0734 537.815 98.7017 537.732 98.2972C537.65 97.8926 537.692 97.4733 537.854 97.0922C538.016 96.7111 538.29 96.3853 538.641 96.1562C538.992 95.927 539.405 95.8047 539.828 95.8047V95.8047C540.383 95.8046 540.917 96.017 541.314 96.3965C541.711 96.776 541.94 97.2923 541.952 97.8346H541.964Z" fill="#FFF1EE"/>
<path fill-rule="evenodd" clip-rule="evenodd" d="M483.003 97.8346C483.004 97.8502 483.004 97.8659 483.003 97.8815C483.003 98.2922 482.878 98.6938 482.644 99.0353C482.411 99.3768 482.078 99.643 481.69 99.8002C481.301 99.9574 480.873 99.9985 480.46 99.9184C480.048 99.8382 479.669 99.6404 479.371 99.35C479.074 99.0596 478.871 98.6895 478.789 98.2866C478.707 97.8838 478.749 97.4662 478.91 97.0867C479.071 96.7072 479.344 96.3829 479.694 96.1547C480.043 95.9265 480.455 95.8047 480.875 95.8047C481.432 95.8038 481.966 96.0159 482.364 96.3955C482.762 96.775 482.991 97.2917 483.003 97.8346V97.8346Z" fill="#FFF1EE"/>
<path fill-rule="evenodd" clip-rule="evenodd" d="M468.302 97.8347C468.304 97.8532 468.304 97.8718 468.302 97.8903C468.302 98.3028 468.177 98.706 467.942 99.049C467.707 99.392 467.374 99.6593 466.983 99.8171C466.593 99.975 466.163 100.016 465.749 99.9358C465.334 99.8553 464.954 99.6567 464.655 99.365C464.356 99.0734 464.153 98.7018 464.07 98.2972C463.988 97.8926 464.03 97.4733 464.192 97.0922C464.354 96.7111 464.627 96.3854 464.979 96.1562C465.33 95.927 465.743 95.8047 466.166 95.8047V95.8047C466.723 95.8015 467.26 96.0126 467.66 96.3924C468.06 96.7722 468.29 97.2902 468.302 97.8347V97.8347Z" fill="#FFF1EE"/>
<path fill-rule="evenodd" clip-rule="evenodd" d="M410.285 181.656H594.701V374.167H410.285V181.656Z" fill="#FF4B1F"/>
<path d="M425.954 427.508H428.654C428.721 427.507 428.786 427.523 428.846 427.553C428.905 427.583 428.955 427.626 428.993 427.68C429.032 427.733 429.056 427.794 429.064 427.859C429.072 427.923 429.065 427.989 429.041 428.05L427.541 432.075L431.178 431.196C431.229 431.188 431.282 431.193 431.33 431.211C431.379 431.229 431.422 431.259 431.455 431.297C431.488 431.336 431.511 431.383 431.52 431.433C431.529 431.483 431.525 431.535 431.508 431.582L426.755 441.835C426.716 441.919 426.646 441.987 426.558 442.024C426.471 442.06 426.372 442.064 426.282 442.033C426.193 442.003 426.118 441.941 426.072 441.859C426.027 441.777 426.015 441.682 426.038 441.592L427.952 434.192L424.052 435.314C424.014 435.324 423.975 435.325 423.937 435.318C423.899 435.311 423.864 435.296 423.833 435.273C423.802 435.251 423.777 435.221 423.759 435.188C423.741 435.155 423.731 435.118 423.731 435.08C423.728 435.06 423.728 435.041 423.731 435.021L425.531 427.836C425.555 427.751 425.608 427.676 425.681 427.623C425.753 427.57 425.842 427.542 425.933 427.543L425.954 427.508Z" fill="#FFF1EE"/>
<path d="M506.159 462.257C505.967 462.253 505.784 462.176 505.649 462.043L494.706 451.357C494.573 451.219 494.499 451.036 494.502 450.846C494.505 450.656 494.583 450.475 494.721 450.341C494.858 450.206 495.044 450.13 495.239 450.127C495.433 450.124 495.621 450.196 495.762 450.326L506.705 461.012C506.808 461.113 506.879 461.241 506.909 461.381C506.938 461.521 506.925 461.666 506.87 461.799C506.816 461.931 506.723 462.045 506.603 462.127C506.483 462.208 506.341 462.254 506.195 462.257H506.159Z" fill="#FFF1EE"/>
<path d="M495.211 462.258C495.065 462.255 494.923 462.209 494.803 462.128C494.683 462.046 494.59 461.932 494.536 461.8C494.482 461.667 494.468 461.522 494.498 461.382C494.527 461.242 494.598 461.114 494.701 461.013L505.647 450.327C505.789 450.204 505.975 450.139 506.165 450.145C506.355 450.151 506.536 450.227 506.671 450.359C506.805 450.49 506.883 450.667 506.888 450.853C506.894 451.039 506.826 451.22 506.7 451.358L495.757 462.044C495.622 462.177 495.439 462.253 495.247 462.258H495.211Z" fill="#FFF1EE"/>
<path d="M566.622 392.532H434.902V392.075H566.622H434.902V391.615H566.622V392.532Z" fill="#FFF1EE"/>
<path d="M441.318 392.073C441.318 393.312 440.942 394.523 440.237 395.552C439.532 396.582 438.53 397.385 437.358 397.859C436.186 398.333 434.896 398.457 433.652 398.215C432.407 397.974 431.264 397.377 430.367 396.502C429.47 395.626 428.859 394.51 428.612 393.295C428.364 392.08 428.491 390.821 428.977 389.677C429.462 388.532 430.284 387.554 431.339 386.866C432.394 386.178 433.634 385.811 434.903 385.811C435.746 385.811 436.58 385.973 437.358 386.287C438.136 386.602 438.844 387.063 439.439 387.645C440.035 388.226 440.507 388.917 440.83 389.677C441.152 390.436 441.318 391.251 441.318 392.073V392.073Z" fill="#FFF1EE"/>
<path d="M574.637 433.229C574.637 433.293 574.625 433.356 574.6 433.415C574.575 433.474 574.538 433.528 574.492 433.573C574.445 433.618 574.39 433.654 574.33 433.678C574.27 433.703 574.205 433.715 574.139 433.715C573.901 433.715 573.672 433.808 573.503 433.973C573.334 434.137 573.239 434.361 573.239 434.594C573.245 434.661 573.236 434.728 573.213 434.791C573.191 434.855 573.155 434.913 573.108 434.962C573.062 435.011 573.005 435.05 572.942 435.077C572.879 435.104 572.811 435.118 572.743 435.118C572.674 435.118 572.606 435.104 572.543 435.077C572.48 435.05 572.424 435.011 572.377 434.962C572.331 434.913 572.295 434.855 572.272 434.791C572.25 434.728 572.241 434.661 572.246 434.594C572.246 434.105 572.445 433.636 572.799 433.29C573.153 432.944 573.633 432.749 574.133 432.748C574.199 432.748 574.264 432.761 574.324 432.785C574.384 432.81 574.439 432.846 574.486 432.891C574.532 432.936 574.569 432.99 574.594 433.049C574.619 433.108 574.631 433.171 574.631 433.235L574.637 433.229ZM571.457 434.588C571.456 435.107 571.614 435.614 571.908 436.046C572.203 436.477 572.623 436.814 573.113 437.012C573.604 437.211 574.144 437.263 574.666 437.162C575.187 437.061 575.666 436.812 576.041 436.445C576.417 436.078 576.673 435.61 576.776 435.102C576.88 434.593 576.826 434.065 576.623 433.586C576.419 433.107 576.074 432.698 575.632 432.41C575.19 432.122 574.671 431.969 574.139 431.969C573.428 431.969 572.746 432.245 572.243 432.736C571.74 433.227 571.457 433.893 571.457 434.588V434.588ZM580.5 433.794C580.302 433.794 580.112 433.871 579.972 434.008C579.832 434.145 579.753 434.33 579.753 434.524C579.752 435.586 579.433 436.624 578.835 437.512C578.237 438.399 577.386 439.096 576.387 439.517C575.389 439.939 574.285 440.065 573.214 439.882C572.142 439.699 571.149 439.214 570.356 438.487L570.998 437.901C571.022 437.878 571.041 437.849 571.051 437.818C571.061 437.786 571.062 437.752 571.055 437.72C571.048 437.687 571.033 437.657 571.011 437.632C570.989 437.607 570.961 437.587 570.929 437.576L567.929 436.521C567.895 436.51 567.859 436.508 567.824 436.514C567.789 436.521 567.757 436.536 567.73 436.558C567.703 436.581 567.683 436.61 567.671 436.642C567.659 436.675 567.655 436.71 567.662 436.744L568.31 439.966C568.316 440.001 568.333 440.033 568.356 440.059C568.38 440.086 568.411 440.105 568.446 440.116C568.48 440.127 568.517 440.128 568.552 440.121C568.587 440.113 568.619 440.096 568.646 440.072L569.246 439.503C570.243 440.444 571.502 441.078 572.866 441.325C574.23 441.572 575.638 441.422 576.915 440.892C578.191 440.363 579.28 439.479 580.045 438.349C580.811 437.22 581.218 435.895 581.217 434.541C581.217 434.348 581.139 434.163 581 434.026C580.86 433.89 580.671 433.813 580.473 433.812L580.5 433.794ZM568.529 434.652C568.529 433.59 568.847 432.551 569.445 431.664C570.043 430.776 570.893 430.079 571.892 429.658C572.891 429.236 573.994 429.109 575.066 429.293C576.137 429.476 577.13 429.962 577.923 430.689L577.284 431.275C577.259 431.298 577.24 431.327 577.229 431.359C577.219 431.391 577.217 431.425 577.224 431.458C577.231 431.491 577.247 431.522 577.269 431.547C577.292 431.572 577.32 431.592 577.353 431.603L580.353 432.658C580.387 432.669 580.423 432.672 580.457 432.665C580.492 432.659 580.525 432.644 580.551 432.621C580.578 432.598 580.598 432.569 580.61 432.537C580.622 432.504 580.624 432.469 580.617 432.435L579.972 429.213C579.965 429.178 579.949 429.146 579.925 429.12C579.901 429.093 579.871 429.074 579.836 429.063C579.802 429.052 579.765 429.05 579.73 429.058C579.695 429.066 579.662 429.083 579.636 429.107L579.036 429.676C578.039 428.735 576.78 428.101 575.416 427.854C574.052 427.607 572.644 427.757 571.367 428.287C570.09 428.816 569.002 429.7 568.236 430.83C567.471 431.959 567.064 433.284 567.064 434.638C567.064 434.832 567.143 435.018 567.284 435.156C567.425 435.293 567.616 435.37 567.815 435.37C568.013 435.37 568.204 435.293 568.345 435.156C568.486 435.018 568.565 434.832 568.565 434.638L568.529 434.652Z" fill="#FFF1EE"/>
<path fill-rule="evenodd" clip-rule="evenodd" d="M444.065 210.645H560.918C563.146 210.645 565.283 211.509 566.858 213.047C568.434 214.585 569.319 216.671 569.319 218.846V332.64C569.319 334.815 568.434 336.901 566.858 338.44C565.283 339.978 563.146 340.842 560.918 340.842H444.065C441.837 340.842 439.7 339.978 438.125 338.44C436.549 336.901 435.664 334.815 435.664 332.64V218.84C435.664 216.665 436.549 214.579 438.125 213.041C439.7 211.503 441.837 210.639 444.065 210.639V210.645Z" fill="white"/>
<path fill-rule="evenodd" clip-rule="evenodd" d="M486.428 224.309H491.018V228.77H486.428V224.309ZM454.296 322.692H468.068V309.273H454.296V322.692ZM536.925 242.197H550.694V228.77H536.925V242.186V242.197ZM454.296 242.197H468.068V228.77H454.296V242.186V242.197ZM472.425 300.328H445.12V331.626H477.255V300.328H472.425ZM472.425 326.934H449.939V304.985H472.425V326.934ZM555.051 219.836H527.747V251.143H559.881V219.836H555.051ZM555.051 246.442H532.568V224.49H555.051V246.442V246.442ZM472.425 219.836H445.12V251.143H477.255V219.836H472.425ZM472.425 246.442H449.939V224.49H472.425V246.442V246.442ZM555.288 331.626H559.878V327.153H555.288V322.692H559.878V318.219H555.288V322.68H550.694V331.626H555.288ZM532.334 331.626H536.925V327.153H546.103V322.68H541.51V318.219H550.688V313.746H559.872V309.273H550.688V313.746H546.097V291.385H541.51V286.912H536.919V282.439H532.328V273.496H536.919V264.55H532.328V260.077H523.147V242.209H513.966V237.725H518.556V233.252H491.012V228.77H495.603V224.309H491.012V219.836H486.422V224.309H481.831V228.77H486.422V233.252H491.012V237.725H481.831V242.197H491.012V237.725H495.603V242.197H500.194V255.613H509.375V251.143H513.966V246.67H518.556V255.613H513.966V260.077H491.012V255.613H486.422V260.077H481.831V269.023H477.243V264.55H472.653V260.086H477.243V255.613H472.653V260.077V255.613H463.474V260.077H458.884V255.613H454.293V260.077H449.696V255.613H445.105V264.55H449.696V269.023H445.105V277.981H449.696V282.454H445.105V286.926H449.696V291.399H445.105V295.849H449.696V291.385H458.878V295.849H468.059V286.912H477.24V282.439H481.828V269.023H486.419V273.496H481.828V277.981H486.419V291.399H491.009V286.912H495.603V300.328H491.012V295.849H481.831V291.385H472.653V295.849H481.831V300.319H491.012V304.792H486.422V309.265H481.831V313.737H491.012V304.8H495.603V309.273H500.194V313.746H495.603V318.219H481.831V322.692H486.422V327.153H481.831V331.626H486.422V327.153H491.012V331.626H500.194V327.153H509.375V331.626H513.966V327.153H518.556V331.626H527.738V327.153H532.328V331.626H532.334ZM536.925 327.153H532.334V322.692H536.925V327.153ZM500.2 327.153H495.603V322.692H500.194V327.153H500.2ZM509.381 322.68H504.79V318.219H509.381V322.68ZM532.334 318.219H523.153V313.746H532.334V318.219V318.219ZM513.972 318.219H509.381V313.746H504.79V309.273H500.2V291.385H509.381V295.849H513.972V291.385H509.381V282.439H518.562V286.912H523.153V282.439H527.744V291.385H518.562V300.328H513.972V304.8H518.562V313.746H513.972V318.219V318.219ZM536.925 309.273H523.153V295.849H536.925V309.265V309.273ZM555.288 304.8H559.878V295.849H550.694V304.792L555.288 304.8ZM527.744 304.8H532.334V300.328H527.744V304.8V304.8ZM504.79 304.8H509.381V300.328H504.79V304.8V304.8ZM536.925 291.385H532.334V286.912H536.925V291.385V291.385ZM550.694 291.385H555.288V286.912H559.878V273.496H555.288V269.023H559.878V260.077H555.288V255.613H536.925V260.086H555.288V264.55H546.103V269.023H550.694V282.439H546.103V273.496H541.51V282.439H546.097V286.912H550.688V291.385H550.694ZM458.881 286.912H449.696V282.439H454.287V277.981H458.878V273.496H454.287V277.981H449.696V269.023H454.287V264.55H472.65V269.023H477.24V273.496H468.059V269.023H463.468V273.496H468.059V282.439H458.878V286.912H458.881ZM495.603 282.439H491.012V277.981H495.603V282.454V282.439ZM477.243 282.439H472.653V277.981H477.243V282.454V282.439ZM523.15 277.966H518.559V273.496H523.15V277.981V277.966ZM513.969 277.966H504.787V273.496H513.969V277.981V277.966ZM532.331 273.496H527.741V264.55H532.331V273.496V273.496ZM500.197 273.496H495.603V269.023H486.422V260.086H491.012V264.55H500.194V273.496H500.197ZM523.15 269.023H513.969V260.086H523.15V269.023V269.023ZM509.378 269.023H504.787V264.55H509.378V269.023V269.023ZM509.378 251.155H504.787V246.67H509.378V251.143V251.155ZM491.015 251.155H495.603V246.67H491.012V251.143L491.015 251.155ZM481.834 251.155H486.425V246.67H481.834V251.143V251.155ZM518.562 228.77H523.153V224.309H518.562V219.836H513.972V228.77H518.562ZM504.79 228.77H509.381V224.309H504.79V219.836H500.2V228.77H504.79Z" fill="#100D04"/>
<path d="M507.76 141.814L507.403 143.792H508.633L508.438 144.875H507.214L506.335 149.975V150.268C506.314 150.696 506.47 150.91 506.806 150.91C506.993 150.907 507.18 150.881 507.361 150.833L507.247 151.967C506.965 152.064 506.669 152.109 506.371 152.102C506.158 152.11 505.947 152.062 505.761 151.962C505.575 151.861 505.42 151.713 505.314 151.534C505.054 151.042 504.96 150.481 505.047 149.934L505.902 144.878H504.654L504.855 143.795H506.088L506.443 141.817L507.76 141.814ZM509.209 147.512C509.323 146.467 509.753 145.48 510.445 144.676C510.748 144.33 511.128 144.057 511.556 143.876C511.984 143.696 512.449 143.614 512.914 143.636C513.477 143.635 514.023 143.821 514.463 144.164C514.899 144.525 515.213 145.007 515.363 145.546C515.545 146.18 515.593 146.844 515.504 147.497L515.411 148.267C515.3 149.307 514.869 150.29 514.175 151.085C513.871 151.429 513.491 151.7 513.063 151.878C512.636 152.056 512.172 152.137 511.708 152.114C511.146 152.119 510.599 151.935 510.16 151.592C509.723 151.232 509.408 150.749 509.26 150.21C509.078 149.578 509.029 148.918 509.116 148.267L509.209 147.512V147.512ZM510.409 148.824C510.364 149.366 510.475 149.91 510.73 150.394C510.835 150.572 510.987 150.72 511.169 150.823C511.351 150.925 511.558 150.98 511.768 150.98C512.051 151.001 512.335 150.955 512.596 150.847C512.857 150.738 513.088 150.57 513.268 150.356C513.716 149.781 513.989 149.095 514.058 148.376L514.172 147.497L514.211 146.952C514.254 146.407 514.141 145.862 513.884 145.376C513.777 145.199 513.625 145.052 513.442 144.949C513.26 144.847 513.053 144.792 512.842 144.791C512.545 144.776 512.249 144.836 511.983 144.966C511.717 145.095 511.489 145.289 511.321 145.529C510.87 146.164 510.599 146.905 510.535 147.676L510.442 148.426L510.421 148.833L510.409 148.824Z" fill="white"/>
<path fill-rule="evenodd" clip-rule="evenodd" d="M385.853 337.688L398.575 344.317C403.64 346.936 409.561 347.492 415.044 345.863C420.527 344.235 425.128 340.554 427.841 335.626V335.626C430.525 330.682 431.095 324.901 429.428 319.548C427.761 314.195 423.991 309.703 418.942 307.054L406.22 300.425C401.155 297.806 395.234 297.249 389.751 298.878C384.267 300.506 379.666 304.187 376.954 309.116V309.116C374.269 314.06 373.698 319.841 375.366 325.194C377.034 330.548 380.804 335.04 385.853 337.688V337.688Z" fill="#FBB570"/>
<path fill-rule="evenodd" clip-rule="evenodd" d="M379.125 380.503L393.749 388.119C398.589 390.621 404.247 391.153 409.487 389.597C414.727 388.041 419.123 384.524 421.716 379.814V379.814C424.281 375.09 424.826 369.567 423.233 364.452C421.64 359.337 418.037 355.045 413.213 352.514L398.589 344.898C393.749 342.395 388.091 341.863 382.851 343.419C377.611 344.975 373.214 348.492 370.622 353.203V353.203C368.059 357.927 367.515 363.449 369.108 368.564C370.701 373.679 374.302 377.971 379.125 380.503V380.503Z" fill="#FBB570"/>
<path fill-rule="evenodd" clip-rule="evenodd" d="M379.122 429.421L386.182 433.101C390.856 435.516 396.319 436.029 401.378 434.526C406.438 433.023 410.683 429.628 413.186 425.08V425.08C415.661 420.518 416.186 415.185 414.647 410.245C413.107 405.306 409.629 401.162 404.971 398.717L397.908 395.041C393.235 392.626 387.772 392.113 382.712 393.616C377.653 395.118 373.408 398.514 370.904 403.061V403.061C368.429 407.624 367.904 412.957 369.443 417.897C370.982 422.836 374.461 426.981 379.119 429.424L379.122 429.421Z" fill="#FBB570"/>
<path fill-rule="evenodd" clip-rule="evenodd" d="M384.301 421.132C377.937 419.375 379.2 412.052 380.101 408.829C381.403 404.093 389.837 395.733 400.006 399.336C390.488 402.713 384.793 413.217 384.304 421.129L384.301 421.132Z" fill="#FDCA9E"/>
<path fill-rule="evenodd" clip-rule="evenodd" d="M393.29 375.773C386.926 374.015 383.389 367.254 386.44 360.104C390.713 350.122 400.584 351.317 405.979 353.953C396.72 358.733 393.776 367.861 393.29 375.773Z" fill="#FDCA9E"/>
<path fill-rule="evenodd" clip-rule="evenodd" d="M402.47 334.616C396.106 332.858 389.25 324.706 393.183 315.954C397.63 306.044 408.207 307.014 416.527 312.321C407.267 317.102 402.905 324.551 402.47 334.616V334.616Z" fill="#FDCA9E"/>
<path d="M30.65 227.611V359.954C29.8915 366.558 30.5642 373.243 32.6238 379.575C34.6834 385.906 38.0836 391.739 42.6021 396.694C47.1206 401.649 52.6555 405.613 58.8448 408.327C65.034 411.041 71.7381 412.444 78.5187 412.444C85.2993 412.444 92.0034 411.041 98.1927 408.327C104.382 405.613 109.917 401.649 114.435 396.694C118.954 391.739 122.354 385.906 124.414 379.575C126.473 373.243 127.146 366.558 126.387 359.954V227.611H30.65Z" fill="#DEF5FC"/>
<path d="M43.0393 360.891V368.093C42.6614 373.162 43.359 378.253 45.0886 383.048C46.8181 387.843 49.5424 392.238 53.0915 395.96C56.6405 399.682 60.9383 402.65 65.7162 404.68C70.4941 406.71 75.6498 407.758 80.8614 407.758C86.073 407.758 91.2286 406.71 96.0065 404.68C100.784 402.65 105.082 399.682 108.631 395.96C112.18 392.238 114.905 387.843 116.634 383.048C118.364 378.253 119.061 373.162 118.683 368.093V360.891H43.0393Z" fill="#D72A01"/>
<path d="M75.305 410.454L74.2637 500.896L87.7735 501.052L88.8148 410.61L75.305 410.454Z" fill="#DEF5FC"/>
<path d="M114.098 500.32H46.7461V508.815H114.098V500.32Z" fill="#DEF5FC"/>
<g clip-path="url(#clip1)">
<path d="M462.667 119.342H436.321C435.513 119.342 434.857 120 434.857 120.812V147.272C434.857 148.084 435.513 148.742 436.321 148.742H462.667C463.476 148.742 464.131 148.084 464.131 147.272V120.812C464.131 120 463.476 119.342 462.667 119.342Z" fill="#C4C4C4"/>
<path d="M462.667 119.342H436.321C435.513 119.342 434.857 120 434.857 120.812V147.272C434.857 148.084 435.513 148.742 436.321 148.742H462.667C463.476 148.742 464.131 148.084 464.131 147.272V120.812C464.131 120 463.476 119.342 462.667 119.342Z" fill="url(#paint0_linear)"/>
<path d="M459.252 122.771H439.614C438.806 122.771 438.15 123.43 438.15 124.241V143.964C438.15 144.776 438.806 145.434 439.614 145.434H459.252C460.06 145.434 460.716 144.776 460.716 143.964V124.241C460.716 123.43 460.06 122.771 459.252 122.771Z" fill="white"/>
<path d="M454.282 132.702H455.577V128.597C455.577 128.154 455.219 127.793 454.778 127.793H450.699V129.11H454.282V132.702Z" fill="#FF7436"/>
<path d="M448.153 129.11V127.807H444.075C443.634 127.807 443.275 128.167 443.275 128.611V132.702H444.571V129.096H448.153V129.11Z" fill="#FF7436"/>
<path d="M444.571 135.283H443.275V139.388C443.275 139.832 443.634 140.192 444.075 140.192H448.153V138.889H444.571V135.283Z" fill="#FF4B1F"/>
<path d="M450.713 138.889V140.192H454.792C455.233 140.192 455.591 139.832 455.591 139.388V135.283H454.296V138.889H450.713Z" fill="#FF4B1F"/>
<path d="M480.22 135.571L477.094 138.902V147.515H472.158V119.646H477.094V132.662L479.763 129.332L487.729 119.646H493.732L483.479 131.973L494.266 147.515H488.396L480.22 135.571ZM517.841 147.266V147.515H512.543L507.035 136.835H501.756V147.515H496.82V119.646H506.654C509.856 119.646 512.327 120.367 514.068 121.809C515.821 123.251 516.698 125.331 516.698 128.049C516.698 129.887 516.259 131.443 515.383 132.72C514.506 133.996 513.261 134.978 511.647 135.667L517.841 147.266ZM501.756 132.853H506.673C508.325 132.853 509.583 132.439 510.447 131.609C511.323 130.78 511.762 129.676 511.762 128.298C511.762 126.831 511.342 125.689 510.504 124.872C509.665 124.055 508.382 123.647 506.654 123.647H501.756V132.853ZM543.532 134.289C543.532 137.071 543.049 139.489 542.084 141.543C541.131 143.585 539.784 145.155 538.043 146.252C536.303 147.349 534.289 147.898 532.002 147.898C529.74 147.898 527.733 147.349 525.979 146.252C524.226 145.155 522.86 143.579 521.882 141.524C520.903 139.47 520.414 137.058 520.414 134.289V132.892C520.414 130.123 520.897 127.711 521.863 125.657C522.841 123.602 524.2 122.026 525.941 120.929C527.695 119.819 529.702 119.264 531.964 119.264C534.251 119.264 536.264 119.812 538.005 120.91C539.758 122.007 541.118 123.583 542.084 125.637C543.049 127.692 543.532 130.11 543.532 132.892V134.289ZM538.577 132.853C538.577 129.778 537.999 127.43 536.843 125.81C535.699 124.176 534.073 123.36 531.964 123.36C530.604 123.36 529.429 123.723 528.438 124.451C527.447 125.178 526.684 126.256 526.151 127.686C525.63 129.102 525.369 130.825 525.369 132.853V134.289C525.369 136.318 525.636 138.047 526.17 139.476C526.703 140.905 527.466 141.99 528.457 142.73C529.461 143.457 530.642 143.821 532.002 143.821C534.111 143.821 535.731 143.004 536.862 141.371C538.005 139.738 538.577 137.377 538.577 134.289V132.853ZM570.481 134.289C570.481 137.071 569.998 139.489 569.032 141.543C568.079 143.585 566.733 145.155 564.992 146.252C563.252 147.349 561.237 147.898 558.951 147.898C556.689 147.898 554.681 147.349 552.928 146.252C551.174 145.155 549.809 143.579 548.83 141.524C547.852 139.47 547.363 137.058 547.363 134.289V132.892C547.363 130.123 547.846 127.711 548.811 125.657C549.79 123.602 551.149 122.026 552.89 120.929C554.643 119.819 556.651 119.264 558.912 119.264C561.199 119.264 563.213 119.812 564.953 120.91C566.707 122.007 568.066 123.583 569.032 125.637C569.998 127.692 570.481 130.11 570.481 132.892V134.289ZM565.525 132.853C565.525 129.778 564.947 127.43 563.791 125.81C562.648 124.176 561.021 123.36 558.912 123.36C557.553 123.36 556.377 123.723 555.386 124.451C554.395 125.178 553.633 126.256 553.099 127.686C552.578 129.102 552.318 130.825 552.318 132.853V134.289C552.318 136.318 552.585 138.047 553.118 139.476C553.652 140.905 554.414 141.99 555.405 142.73C556.409 143.457 557.591 143.821 558.951 143.821C561.06 143.821 562.68 143.004 563.81 141.371C564.953 139.738 565.525 137.377 565.525 134.289V132.853Z" fill="black"/>
</g>
<path d="M331.151 164.914H293.463C292.307 164.914 291.369 165.858 291.369 167.023V204.986C291.369 206.15 292.307 207.095 293.463 207.095H331.151C332.307 207.095 333.244 206.15 333.244 204.986V167.023C333.244 165.858 332.307 164.914 331.151 164.914Z" fill="url(#paint1_linear)"/>
<path d="M326.177 169.895H298.144C296.99 169.895 296.055 170.83 296.055 171.985V200.026C296.055 201.18 296.99 202.116 298.144 202.116H326.177C327.331 202.116 328.266 201.18 328.266 200.026V171.985C328.266 170.83 327.331 169.895 326.177 169.895Z" fill="white"/>
<path d="M319.08 183.954H320.946V178.076C320.946 177.44 320.43 176.924 319.794 176.924H313.918V178.81H319.08V183.954Z" fill="#FF7436"/>
<path d="M310.401 178.796V176.924H304.525C303.889 176.924 303.373 177.442 303.373 178.079V183.954H305.239V178.776H310.401V178.796Z" fill="#FF7436"/>
<path d="M305.239 187.762H303.373V193.64C303.373 194.276 303.889 194.792 304.525 194.792H310.401V192.925H305.239V187.762Z" fill="#FF4B1F"/>
<path d="M313.918 192.925V194.792H319.794C320.43 194.792 320.946 194.276 320.946 193.64V187.762H319.08V192.925H313.918Z" fill="#FF4B1F"/>
</g>
<path fill-rule="evenodd" clip-rule="evenodd" d="M214.776 704H75.2243C74.6429 704 74.0606 704 73.4803 704.003C72.9904 704.007 72.5015 704.012 72.0116 704.026C70.9445 704.054 69.8681 704.117 68.8144 704.307C67.7442 704.499 66.7479 704.813 65.7763 705.308C64.8202 705.793 63.9461 706.429 63.1871 707.186C62.4292 707.945 61.7934 708.817 61.3076 709.774C60.8126 710.745 60.4983 711.74 60.3073 712.811C60.1162 713.865 60.0536 714.94 60.0248 716.005C60.0115 716.495 60.0053 716.983 60.0022 717.472C59.9991 718.053 60.0002 718.634 60.0002 719.216V797.551C60.0002 798.133 59.9991 798.713 60.0022 799.295C60.0053 799.783 60.0115 800.273 60.0248 800.762C60.0536 801.826 60.1162 802.902 60.3073 803.955C60.4983 805.025 60.8126 806.021 61.3076 806.993C61.7934 807.949 62.4292 808.822 63.1871 809.58C63.9461 810.338 64.8202 810.974 65.7763 811.458C66.7479 811.954 67.7442 812.268 68.8144 812.461C69.8681 812.649 70.9445 812.712 72.0116 812.741C72.5015 812.752 72.9904 812.76 73.4803 812.762C74.0606 812.766 74.6429 812.766 75.2243 812.766H214.776C215.356 812.766 215.939 812.766 216.519 812.762C217.008 812.76 217.497 812.752 217.989 812.741C219.054 812.712 220.13 812.649 221.186 812.461C222.255 812.268 223.251 811.954 224.224 811.458C225.18 810.974 226.052 810.338 226.812 809.58C227.569 808.822 228.205 807.949 228.692 806.993C229.188 806.021 229.502 805.025 229.692 803.955C229.883 802.902 229.945 801.826 229.973 800.762C229.987 800.273 229.993 799.783 229.996 799.295C230 798.713 230 798.133 230 797.551V719.216C230 718.634 230 718.053 229.996 717.472C229.993 716.983 229.987 716.495 229.973 716.005C229.945 714.94 229.883 713.865 229.692 712.811C229.502 711.74 229.188 710.745 228.692 709.774C228.205 708.817 227.569 707.945 226.812 707.186C226.052 706.429 225.18 705.793 224.224 705.308C223.251 704.813 222.255 704.499 221.186 704.307C220.13 704.117 219.054 704.054 217.989 704.026C217.497 704.012 217.008 704.007 216.519 704.003C215.939 704 215.356 704 214.776 704Z" fill="#3C4043"/>
<path fill-rule="evenodd" clip-rule="evenodd" d="M214.777 707.625L216.494 707.628C216.959 707.631 217.424 707.636 217.891 707.65C218.705 707.671 219.657 707.715 220.544 707.874C221.314 708.013 221.961 708.224 222.582 708.54C223.195 708.851 223.756 709.259 224.246 709.748C224.737 710.24 225.146 710.802 225.462 711.421C225.776 712.037 225.985 712.679 226.124 713.455C226.282 714.333 226.326 715.286 226.348 716.104C226.361 716.565 226.367 717.027 226.369 717.5C226.374 718.072 226.374 718.643 226.374 719.215V797.551C226.374 798.123 226.374 798.694 226.369 799.277C226.367 799.739 226.361 800.201 226.348 800.664C226.326 801.48 226.282 802.433 226.122 803.32C225.985 804.086 225.776 804.728 225.46 805.347C225.145 805.965 224.737 806.526 224.248 807.015C223.755 807.508 223.196 807.914 222.576 808.229C221.959 808.543 221.314 808.754 220.551 808.891C219.645 809.052 218.654 809.097 217.908 809.116C217.438 809.128 216.971 809.134 216.491 809.136C215.921 809.14 215.348 809.14 214.777 809.14H75.2254C75.2182 809.14 75.211 809.14 75.2028 809.14C74.639 809.14 74.0731 809.14 73.4989 809.136C73.0306 809.134 72.5633 809.128 72.1114 809.117C71.3473 809.097 70.3551 809.052 69.4575 808.892C68.6872 808.754 68.0422 808.543 67.4177 808.224C66.8035 807.913 66.2448 807.507 65.7518 807.013C65.263 806.526 64.8562 805.966 64.542 805.347C64.2267 804.729 64.0161 804.085 63.8775 803.31C63.7183 802.424 63.6741 801.476 63.6515 800.664C63.6392 800.2 63.634 799.735 63.631 799.274L63.6289 797.911V718.856L63.631 717.496C63.634 717.031 63.6392 716.567 63.6515 716.103C63.6741 715.29 63.7183 714.341 63.8795 713.448C64.0161 712.681 64.2267 712.036 64.543 711.415C64.8552 710.801 65.263 710.24 65.7539 709.75C66.2438 709.259 66.8056 708.853 67.4229 708.539C68.0401 708.223 68.6872 708.013 69.4575 707.874C70.3448 707.715 71.2969 707.671 72.1124 707.65C72.5766 707.636 73.0419 707.631 73.5031 707.628L75.2254 707.625H214.777Z" fill="#FFFFFE"/>
<path d="M141.847 760.894V776.396H137.004V738.129H149.849C152.948 738.068 155.956 739.258 158.152 741.455C162.545 745.606 162.815 752.594 158.694 757.079C158.513 757.262 158.333 757.446 158.152 757.629C155.896 759.795 153.128 760.894 149.849 760.894H141.847ZM141.847 742.829V756.194H149.97C151.775 756.255 153.52 755.523 154.753 754.211C157.28 751.556 157.22 747.284 154.603 744.721C153.369 743.5 151.715 742.829 149.97 742.829H141.847Z" fill="#3C4043"/>
<path d="M172.802 749.361C176.382 749.361 179.21 750.338 181.286 752.26C183.362 754.183 184.384 756.868 184.384 760.255V776.398H179.752V772.767H179.541C177.525 775.757 174.878 777.253 171.539 777.253C168.711 777.253 166.304 776.398 164.409 774.689C162.544 773.102 161.491 770.753 161.551 768.281C161.551 765.565 162.574 763.429 164.59 761.812C166.605 760.194 169.313 759.401 172.682 759.401C175.57 759.401 177.917 759.95 179.782 760.988V759.859C179.782 758.18 179.06 756.594 177.796 755.495C176.503 754.335 174.848 753.695 173.133 753.695C170.426 753.695 168.29 754.854 166.726 757.173L162.454 754.457C164.74 751.07 168.2 749.361 172.802 749.361ZM166.545 768.373C166.545 769.654 167.147 770.844 168.139 771.577C169.222 772.431 170.546 772.889 171.9 772.858C173.946 772.858 175.901 772.034 177.345 770.57C178.939 769.044 179.752 767.243 179.752 765.168C178.247 763.948 176.142 763.337 173.434 763.368C171.479 763.368 169.824 763.856 168.5 764.802C167.207 765.748 166.545 766.938 166.545 768.373Z" fill="#3C4043"/>
<path fill-rule="evenodd" clip-rule="evenodd" d="M210.979 750.213L194.794 787.9H189.8L195.817 774.717L185.197 750.213H190.462L198.133 769.011H198.223L205.714 750.213H210.979Z" fill="#3C4043"/>
<path fill-rule="evenodd" clip-rule="evenodd" d="M122.264 757.537C122.264 756.042 122.144 754.547 121.903 753.082H101.477V761.535H113.179C112.698 764.251 111.133 766.692 108.847 768.218V773.711H115.826C119.918 769.896 122.264 764.251 122.264 757.537Z" fill="#4285F4"/>
<path fill-rule="evenodd" clip-rule="evenodd" d="M101.478 779.022C107.314 779.022 112.248 777.069 115.828 773.712L108.849 768.219C106.893 769.562 104.396 770.325 101.478 770.325C95.8226 770.325 91.0394 766.449 89.3246 761.262H82.1348V766.938C85.8049 774.353 93.2956 779.022 101.478 779.022Z" fill="#34A853"/>
<path fill-rule="evenodd" clip-rule="evenodd" d="M89.3244 761.261C88.4219 758.545 88.4219 755.585 89.3244 752.839V747.193H82.1345C79.0359 753.388 79.0359 760.712 82.1345 766.906L89.3244 761.261Z" fill="#FBBC04"/>
<path fill-rule="evenodd" clip-rule="evenodd" d="M101.478 743.776C104.577 743.715 107.555 744.905 109.781 747.072L115.978 740.786C112.037 737.063 106.863 735.018 101.478 735.079C93.2956 735.079 85.8049 739.779 82.1348 747.194L89.3247 752.87C91.0394 747.652 95.8226 743.776 101.478 743.776Z" fill="#EA4335"/>
<path d="M624.303 812.655H473.948C472.438 812.655 470.989 812.011 469.92 810.865C468.852 809.719 468.252 808.166 468.252 806.545V710.109C468.252 708.489 468.852 706.935 469.92 705.789C470.989 704.644 472.438 704 473.948 704H624.303C625.814 704 627.262 704.644 628.331 705.789C629.399 706.935 629.999 708.489 629.999 710.109V806.423C629.999 807.436 629.764 808.433 629.316 809.325C629.05 809.879 628.704 810.384 628.29 810.822C627.196 811.905 625.789 812.552 624.303 812.655Z" fill="url(#paint2_linear)"/>
<path d="M484.91 790.322C484.926 790.426 484.926 790.532 484.91 790.637L484.747 790.857C484.747 790.857 484.584 790.857 484.518 791.046H484.225H479.499C479.395 791.052 479.291 791.036 479.195 790.998C479.099 790.959 479.013 790.901 478.944 790.826C478.81 790.679 478.74 790.487 478.749 790.29C478.749 789.755 478.977 789.471 479.466 789.44H480.607C480.835 789.44 480.933 789.44 480.965 789.251C480.998 789.062 480.965 788.59 480.965 788.149C480.965 787.708 480.965 787.235 480.965 786.669C480.965 786.102 480.965 785.251 480.965 784.149C480.965 784.149 480.965 783.834 480.607 783.645C480.508 783.577 480.427 783.487 480.371 783.383C480.314 783.279 480.283 783.164 480.281 783.047C480.291 782.871 480.343 782.699 480.434 782.546C480.524 782.393 480.651 782.263 480.802 782.165C481.067 781.924 481.417 781.789 481.78 781.787C482.4 781.787 482.693 782.039 482.693 782.511V783.33C482.678 783.477 482.678 783.625 482.693 783.771V789.251C482.693 789.251 482.921 789.471 483.378 789.471H484.225C484.325 789.475 484.422 789.502 484.508 789.552C484.593 789.602 484.664 789.671 484.714 789.755C484.848 789.915 484.917 790.116 484.91 790.322Z" fill="url(#paint3_linear)"/>
<path d="M492.247 790.287C492.247 790.387 492.227 790.486 492.189 790.578C492.151 790.67 492.095 790.753 492.024 790.824C491.876 790.96 491.684 791.039 491.482 791.045H487.182C487.031 791.056 486.879 791.03 486.74 790.97C486.601 790.909 486.479 790.816 486.386 790.698C486.231 790.524 486.151 790.298 486.163 790.067C486.163 789.53 486.163 789.088 486.163 788.773V788.173C486.133 787.731 486.209 787.287 486.386 786.88C486.489 786.683 486.633 786.512 486.809 786.376C486.985 786.239 487.188 786.142 487.405 786.091H488.138L489.125 785.933C490.112 785.933 490.59 785.396 490.59 784.671C490.59 783.945 490.59 783.661 490.176 783.503C489.744 783.368 489.29 783.315 488.838 783.345C488.481 783.339 488.126 783.393 487.787 783.503L487.023 783.692C486.916 783.694 486.81 783.669 486.715 783.619C486.62 783.57 486.54 783.497 486.481 783.408C486.43 783.223 486.43 783.026 486.481 782.84C486.481 782.146 487.373 781.799 489.157 781.799C489.975 781.738 490.794 781.913 491.514 782.304C491.811 782.586 492.038 782.932 492.176 783.315C492.314 783.699 492.36 784.109 492.31 784.513C492.35 784.828 492.327 785.148 492.241 785.454C492.155 785.76 492.008 786.047 491.81 786.296C491.611 786.546 491.364 786.754 491.084 786.908C490.804 787.062 490.495 787.16 490.176 787.195H489.73H489.284C488.963 787.219 488.649 787.305 488.36 787.448C488.224 787.514 488.109 787.617 488.03 787.746C487.951 787.874 487.911 788.023 487.915 788.173C487.915 788.899 487.915 789.278 488.074 789.341H488.424H491.61C491.734 789.335 491.858 789.362 491.969 789.417C492.081 789.472 492.176 789.554 492.247 789.656C492.305 789.863 492.305 790.081 492.247 790.287Z" fill="url(#paint4_linear)"/>
<path d="M499.577 788.267C499.631 788.972 499.421 789.673 498.984 790.25C498.593 790.677 498.046 790.955 497.449 791.03C497.159 791.054 496.867 791.054 496.577 791.03H495.251C493.716 791.03 492.949 790.705 492.949 790.055C492.941 789.942 492.959 789.828 493.001 789.722C493.043 789.616 493.109 789.519 493.193 789.437C493.274 789.347 493.376 789.274 493.49 789.223C493.604 789.173 493.729 789.146 493.856 789.145C494.076 789.116 494.299 789.116 494.519 789.145L495.216 789.307C495.808 789.366 496.404 789.366 496.995 789.307C497.265 789.214 497.491 789.037 497.637 788.806C497.783 788.575 497.84 788.305 497.798 788.04C497.849 787.793 497.849 787.539 497.798 787.293C497.765 787.172 497.687 787.067 497.578 786.995C497.47 786.924 497.337 786.891 497.205 786.903H495.844H495.565H495.112H494.728C494.621 786.857 494.526 786.79 494.449 786.708L494.24 786.448C494.22 786.34 494.22 786.23 494.24 786.123C494.229 785.935 494.295 785.75 494.425 785.605C494.554 785.461 494.737 785.367 494.937 785.343C495.331 785.292 495.73 785.292 496.123 785.343H497.379C497.728 785.343 497.902 784.985 497.902 784.238C497.929 784.039 497.909 783.836 497.843 783.645C497.777 783.454 497.666 783.279 497.519 783.133C497.112 782.97 496.669 782.903 496.228 782.938H494.972H494.763H494.484H493.926C493.716 782.93 493.516 782.849 493.368 782.71C493.232 782.554 493.158 782.359 493.158 782.158C493.158 781.671 493.542 781.378 494.275 781.216C494.854 781.155 495.439 781.155 496.019 781.216C496.934 781.149 497.854 781.282 498.705 781.606C499.072 781.869 499.359 782.218 499.536 782.617C499.714 783.016 499.776 783.452 499.716 783.88C499.775 784.601 499.552 785.316 499.088 785.895C499.351 786.142 499.523 786.461 499.577 786.805C499.672 787.288 499.672 787.784 499.577 788.267Z" fill="url(#paint5_linear)"/>
<path d="M506.529 786.217C506.529 786.552 506.266 786.766 505.739 786.827H505.212H504.981C504.954 787.101 504.954 787.377 504.981 787.652V788.659C504.997 788.852 504.997 789.046 504.981 789.239V789.636C504.99 789.735 504.977 789.835 504.943 789.93C504.909 790.024 504.855 790.111 504.783 790.186C504.714 790.261 504.628 790.321 504.532 790.363C504.435 790.405 504.33 790.428 504.224 790.43H503.894L503.631 790.277H503.433C503.418 790.186 503.418 790.094 503.433 790.003C503.418 789.891 503.418 789.778 503.433 789.667V788.476C503.461 788.059 503.461 787.641 503.433 787.224V787.041H503.104C502.622 787 502.137 787 501.655 787.041H501.193C500.667 787.041 500.403 786.736 500.37 786.094C500.337 785.453 500.37 784.934 500.37 784.354V782.614C500.365 782.405 500.435 782.201 500.568 782.034C500.634 781.955 500.719 781.893 500.817 781.85C500.914 781.808 501.02 781.787 501.128 781.789C501.286 781.778 501.445 781.813 501.581 781.89C501.717 781.966 501.823 782.081 501.885 782.217C501.934 782.49 501.934 782.768 501.885 783.041C501.885 783.041 501.885 783.285 501.885 783.469C501.9 783.672 501.9 783.876 501.885 784.079V784.69C501.885 784.69 501.885 784.995 501.885 785.117C501.828 785.244 501.828 785.387 501.885 785.514C502.002 785.554 502.13 785.554 502.247 785.514H502.709C503.104 785.514 503.334 785.514 503.4 785.514C503.439 785.364 503.439 785.207 503.4 785.056C503.427 784.65 503.427 784.242 503.4 783.835V783.102C503.386 782.929 503.386 782.756 503.4 782.583C503.4 782.064 503.664 781.789 504.224 781.789C504.345 781.78 504.466 781.801 504.576 781.849C504.686 781.897 504.78 781.971 504.849 782.064C504.916 782.273 504.916 782.496 504.849 782.705C504.849 782.95 504.849 783.316 504.849 783.804V784.904C504.849 785.392 504.849 785.667 505.146 785.667H505.508H505.772C505.877 785.666 505.981 785.695 506.069 785.749C506.157 785.803 506.226 785.881 506.266 785.972C506.369 786.037 506.459 786.12 506.529 786.217Z" fill="url(#paint6_linear)"/>
<path d="M521.951 788.226C522.015 788.991 521.814 789.754 521.385 790.372C521.111 790.617 520.794 790.802 520.451 790.916C520.109 791.03 519.749 791.07 519.392 791.035H518.053C517.69 791.048 517.328 790.995 516.982 790.877C516.804 790.814 516.652 790.69 516.549 790.524C516.447 790.358 516.4 790.16 516.416 789.962C516.414 789.862 516.432 789.763 516.468 789.671C516.504 789.579 516.557 789.495 516.625 789.426C516.683 789.353 516.756 789.295 516.839 789.257C516.921 789.219 517.011 789.201 517.101 789.205C517.394 789.236 517.683 789.3 517.964 789.394L518.946 789.552C519.367 789.601 519.793 789.513 520.166 789.299C520.374 789.11 520.463 788.7 520.463 788.006C520.465 787.91 520.447 787.816 520.411 787.729C520.375 787.642 520.322 787.564 520.255 787.501C520.204 787.425 520.137 787.362 520.06 787.318C519.982 787.275 519.896 787.251 519.808 787.248H518.916H518.202H517.904H517.428C517.281 787.261 517.132 787.239 516.993 787.185C516.855 787.13 516.729 787.044 516.625 786.933C516.475 786.666 516.402 786.359 516.416 786.049C516.403 785.818 516.403 785.586 516.416 785.355V784.376C516.416 783.998 516.416 783.682 516.416 783.398C516.416 783.114 516.416 782.893 516.416 782.704C516.408 782.478 516.471 782.256 516.595 782.072C516.653 781.979 516.733 781.904 516.827 781.854C516.921 781.804 517.026 781.781 517.131 781.788H517.369H517.726H518.35H520.225H520.999H521.296L521.534 781.978C521.601 782.061 521.652 782.158 521.683 782.262C521.715 782.364 521.715 782.475 521.683 782.577C521.7 782.722 521.671 782.869 521.601 782.994C521.531 783.12 521.424 783.217 521.296 783.272C521.04 783.319 520.779 783.319 520.523 783.272C519.73 783.224 518.935 783.224 518.142 783.272C518.078 783.277 518.017 783.305 517.968 783.35C517.92 783.396 517.887 783.457 517.874 783.524V784.376C517.861 784.523 517.861 784.671 517.874 784.818C517.861 784.933 517.861 785.05 517.874 785.165C517.874 785.449 517.874 785.607 518.053 785.67H520.136C520.421 785.644 520.707 785.701 520.964 785.835C521.221 785.968 521.438 786.173 521.594 786.428C521.854 786.986 521.977 787.604 521.951 788.226Z" fill="url(#paint7_linear)"/>
<path d="M528.739 788.349C528.774 788.736 528.734 789.128 528.622 789.495C528.511 789.863 528.33 790.197 528.093 790.473C527.529 790.903 526.857 791.101 526.184 791.035C524.624 791.035 523.844 790.192 523.817 788.474V782.602C523.809 782.493 523.821 782.383 523.853 782.28C523.886 782.177 523.937 782.084 524.004 782.007C524.07 781.929 524.151 781.87 524.239 781.832C524.328 781.795 524.422 781.78 524.516 781.79C524.608 781.785 524.7 781.803 524.785 781.843C524.87 781.882 524.947 781.942 525.011 782.019C525.074 782.096 525.123 782.188 525.154 782.288C525.185 782.389 525.196 782.496 525.189 782.602V785.413C525.189 785.6 525.189 785.663 525.377 785.663H526.103C526.804 785.582 527.509 785.757 528.12 786.163C528.352 786.455 528.527 786.801 528.634 787.178C528.74 787.555 528.776 787.954 528.739 788.349ZM527.394 788.349C527.41 788.162 527.41 787.974 527.394 787.787C527.365 787.643 527.299 787.513 527.206 787.412C527.127 787.314 527.023 787.249 526.91 787.224C526.75 787.19 526.586 787.19 526.426 787.224H525.485C525.485 787.224 525.323 787.224 525.296 787.381C525.273 787.472 525.273 787.57 525.296 787.662V788.38C525.26 788.607 525.26 788.84 525.296 789.067C525.431 789.411 525.753 789.598 526.265 789.598C526.581 789.63 526.899 789.554 527.179 789.38C527.313 789.13 527.394 788.786 527.394 788.286V788.349Z" fill="url(#paint8_linear)"/>
<path d="M536.128 782.98V790.231C536.135 790.337 536.119 790.443 536.082 790.542C536.045 790.641 535.987 790.73 535.914 790.804C535.806 790.919 535.668 790.998 535.517 791.031C535.365 791.063 535.208 791.048 535.065 790.986C534.922 790.924 534.801 790.819 534.717 790.684C534.633 790.549 534.59 790.392 534.595 790.231C534.595 788.037 534.595 785.906 534.595 783.87C534.595 783.552 534.41 783.393 534.042 783.393H531.343C531.243 783.404 531.142 783.392 531.047 783.36C530.951 783.327 530.864 783.273 530.79 783.202C530.662 783.03 530.597 782.816 530.606 782.598C530.604 782.497 530.622 782.398 530.659 782.304C530.696 782.211 530.751 782.127 530.821 782.057C530.89 781.987 530.971 781.93 531.06 781.892C531.15 781.854 531.246 781.834 531.343 781.835C532.497 781.771 533.655 781.771 534.809 781.835C535.19 781.806 535.571 781.883 535.914 782.057C536.021 782.18 536.098 782.329 536.135 782.49C536.173 782.651 536.17 782.82 536.128 782.98Z" fill="url(#paint9_linear)"/>
<path d="M544.783 787.753C544.83 788.143 544.799 788.54 544.692 788.917C544.584 789.294 544.403 789.643 544.16 789.942C543.51 790.322 542.766 790.486 542.025 790.411C541.285 790.49 540.54 790.326 539.891 789.942C539.649 789.642 539.469 789.293 539.362 788.916C539.255 788.539 539.223 788.143 539.268 787.753C539.22 787.296 539.314 786.835 539.535 786.439C539.821 786.175 540.14 785.954 540.484 785.783C540.073 785.686 539.713 785.429 539.476 785.063C539.318 784.646 539.247 784.198 539.268 783.75C539.225 783.371 539.268 782.987 539.391 782.629C539.515 782.27 539.716 781.947 539.98 781.686C540.603 781.29 541.33 781.114 542.055 781.185C542.774 781.117 543.494 781.304 544.101 781.717C544.419 782.199 544.621 782.756 544.688 783.34C544.756 783.923 544.686 784.515 544.486 785.063C544.238 785.396 543.895 785.637 543.508 785.751C543.892 785.892 544.237 786.128 544.516 786.439C544.715 786.844 544.808 787.298 544.783 787.753ZM543.3 787.753C543.3 787.346 542.885 786.971 542.085 786.658C541.909 786.723 541.74 786.807 541.581 786.908L541.255 787.096C541.12 787.167 541.006 787.273 540.923 787.405C540.839 787.536 540.79 787.689 540.78 787.847C540.78 788.66 541.195 789.066 542.025 789.066C542.378 789.103 542.733 789.015 543.034 788.816C543.154 788.649 543.241 788.456 543.287 788.252C543.333 788.047 543.337 787.834 543.3 787.628V787.753ZM543.3 783.812C543.319 783.658 543.299 783.502 543.242 783.359C543.184 783.216 543.092 783.092 542.974 782.999C542.709 782.855 542.412 782.79 542.114 782.812C541.788 782.781 541.459 782.846 541.166 782.999C541.045 783.111 540.952 783.252 540.895 783.41C540.838 783.568 540.819 783.738 540.839 783.906C540.82 784.165 540.895 784.422 541.047 784.625C541.215 784.804 541.417 784.942 541.64 785.032L542.114 785.251H542.352H542.559C542.722 785.186 542.873 785.091 543.004 784.969C543.127 784.816 543.215 784.634 543.262 784.439C543.308 784.244 543.311 784.04 543.271 783.844L543.3 783.812Z" fill="url(#paint10_linear)"/>
<path d="M561.463 789.136C561.478 789.233 561.478 789.332 561.463 789.43C561.478 789.497 561.478 789.567 561.463 789.635C561.404 789.709 561.326 789.77 561.236 789.812H560.944H556.047C555.944 789.818 555.841 789.802 555.746 789.766C555.65 789.731 555.565 789.676 555.496 789.606C555.362 789.469 555.292 789.289 555.302 789.106C555.302 788.607 555.529 788.342 556.015 788.313H557.182C557.409 788.313 557.539 788.313 557.539 788.136C557.539 787.96 557.539 787.519 557.539 787.107C557.539 786.696 557.539 786.255 557.539 785.726C557.539 785.197 557.539 784.403 557.539 783.374C557.539 783.374 557.539 783.081 557.182 782.904C557.08 782.844 556.997 782.761 556.94 782.663C556.883 782.565 556.855 782.456 556.858 782.346C556.862 782.183 556.908 782.024 556.992 781.881C557.077 781.738 557.198 781.615 557.345 781.523C557.614 781.307 557.958 781.182 558.317 781.17C558.934 781.17 559.258 781.405 559.258 781.846C559.238 781.933 559.238 782.023 559.258 782.111V788.136C559.258 788.136 559.452 788.342 559.906 788.342H560.782C560.88 788.35 560.975 788.378 561.059 788.424C561.143 788.469 561.215 788.532 561.268 788.607C561.387 788.763 561.455 788.946 561.463 789.136Z" fill="url(#paint11_linear)"/>
<path d="M567.866 789.658C567.873 789.76 567.856 789.862 567.818 789.957C567.78 790.051 567.721 790.136 567.646 790.204C567.575 790.275 567.492 790.332 567.4 790.37C567.308 790.409 567.209 790.429 567.11 790.428H562.981C562.745 790.443 562.511 790.375 562.319 790.236C562.165 790.059 562.086 789.829 562.098 789.594C562.098 789.048 562.098 788.598 562.098 788.277C562.087 788.074 562.087 787.87 562.098 787.667C562.068 787.217 562.144 786.766 562.319 786.351C562.425 786.155 562.569 785.983 562.743 785.845C562.916 785.707 563.115 785.606 563.327 785.548H564.052L565.061 785.387C566.007 785.387 566.511 784.842 566.511 784.103C566.511 783.365 566.511 783.076 566.07 782.915C565.653 782.78 565.214 782.725 564.777 782.755C564.414 782.748 564.052 782.803 563.706 782.915C563.462 783.011 563.208 783.076 562.949 783.108C562.847 783.11 562.747 783.085 562.658 783.034C562.569 782.983 562.496 782.909 562.445 782.819C562.395 782.629 562.395 782.43 562.445 782.241C562.445 781.534 563.327 781.181 565.124 781.181C565.924 781.121 566.723 781.3 567.425 781.695C567.725 781.978 567.955 782.329 568.097 782.72C568.239 783.11 568.29 783.529 568.245 783.943C568.284 784.263 568.261 784.589 568.176 784.901C568.091 785.212 567.946 785.503 567.749 785.757C567.553 786.011 567.309 786.223 567.031 786.38C566.754 786.537 566.448 786.636 566.133 786.672H565.66H565.219C564.901 786.701 564.592 786.788 564.304 786.929C564.175 787 564.068 787.108 563.996 787.238C563.924 787.369 563.888 787.517 563.895 787.667C563.895 788.406 563.895 788.791 563.895 788.855H564.241H567.394C567.517 788.846 567.641 788.872 567.752 788.928C567.863 788.984 567.957 789.07 568.024 789.176C568.006 789.346 567.952 789.511 567.866 789.658Z" fill="url(#paint12_linear)"/>
<path d="M575.405 787.208C575.452 787.864 575.26 788.516 574.855 789.067C574.465 789.461 573.93 789.72 573.345 789.798C573.048 789.818 572.749 789.818 572.452 789.798H571.147C569.636 789.798 568.881 789.493 568.881 788.884C568.88 788.776 568.904 788.669 568.951 788.569C568.998 788.47 569.068 788.38 569.156 788.305C569.232 788.217 569.331 788.146 569.444 788.098C569.558 788.05 569.683 788.027 569.808 788.031C570.025 788.007 570.244 788.007 570.46 788.031C570.67 788.106 570.889 788.158 571.113 788.183C571.695 788.242 572.282 788.242 572.864 788.183C573.413 788.031 573.654 787.635 573.654 786.995C573.682 786.762 573.682 786.527 573.654 786.294C573.616 786.184 573.538 786.089 573.432 786.023C573.327 785.957 573.199 785.924 573.07 785.929H571.697H571.387H570.941H570.598C570.487 785.878 570.383 785.817 570.289 785.746C570.272 785.665 570.272 785.583 570.289 785.502C570.252 785.403 570.252 785.296 570.289 785.197C570.269 785.024 570.326 784.851 570.448 784.715C570.57 784.578 570.747 784.489 570.941 784.466C571.34 784.417 571.744 784.417 572.143 784.466H573.379C573.722 784.466 573.894 784.131 573.894 783.43C573.894 782.729 573.894 782.547 573.482 782.394C573.083 782.238 572.646 782.175 572.212 782.212H571.01H570.804H570.495H569.98C569.762 782.206 569.555 782.13 569.396 781.998C569.262 781.852 569.19 781.669 569.19 781.48C569.19 781.023 569.568 780.749 570.323 780.597C570.893 780.538 571.469 780.538 572.04 780.597C572.93 780.533 573.825 780.659 574.649 780.962C575.017 781.205 575.303 781.532 575.478 781.907C575.654 782.282 575.711 782.693 575.645 783.095C575.69 783.765 575.485 784.429 575.061 784.984C575.295 785.231 575.46 785.523 575.542 785.837C575.548 786.297 575.502 786.756 575.405 787.208Z" fill="url(#paint13_linear)"/>
<path d="M581.845 785.6C581.845 785.936 581.604 786.15 581.121 786.211H580.637C580.601 786.189 580.559 786.178 580.517 786.178C580.474 786.178 580.433 786.189 580.396 786.211C580.396 786.211 580.396 786.577 580.396 787.035V787.462C580.413 787.655 580.413 787.849 580.396 788.042V789.019C580.404 789.118 580.392 789.218 580.361 789.313C580.33 789.407 580.28 789.494 580.215 789.569C580.154 789.647 580.076 789.709 579.987 789.752C579.897 789.794 579.8 789.815 579.701 789.813H579.43L579.309 789.66C579.249 789.674 579.187 789.674 579.128 789.66C579.1 789.571 579.1 789.475 579.128 789.385V787.859C579.153 787.442 579.153 787.024 579.128 786.607V786.424H578.856C578.404 786.385 577.949 786.385 577.497 786.424H577.014C576.561 786.424 576.289 786.119 576.289 785.478C576.289 784.837 576.289 784.318 576.289 783.738C576.289 783.158 576.289 782.608 576.289 781.998C576.285 781.79 576.349 781.586 576.47 781.418C576.536 781.337 576.619 781.273 576.714 781.231C576.808 781.188 576.911 781.169 577.014 781.174C577.156 781.159 577.299 781.193 577.42 781.27C577.54 781.348 577.631 781.465 577.678 781.601C577.723 781.874 577.723 782.152 577.678 782.425V782.853C577.678 783.036 577.678 783.219 577.678 783.463C577.678 783.707 577.678 783.891 577.678 784.074V784.501C577.641 784.631 577.641 784.768 577.678 784.898C577.795 784.942 577.924 784.942 578.041 784.898H578.433C578.796 784.898 579.037 784.898 579.097 784.898C579.133 784.747 579.133 784.591 579.097 784.44C579.097 784.165 579.097 783.738 579.097 783.219V781.967C579.097 781.448 579.339 781.174 579.822 781.174C579.934 781.161 580.046 781.18 580.148 781.229C580.249 781.277 580.335 781.353 580.396 781.448C580.457 781.658 580.457 781.88 580.396 782.089V783.188C580.382 783.402 580.382 783.616 580.396 783.83V784.287C580.396 784.776 580.396 785.051 580.698 785.051H581H581.241C581.343 785.048 581.443 785.075 581.529 785.129C581.615 785.184 581.683 785.262 581.724 785.356C581.774 785.432 581.815 785.514 581.845 785.6Z" fill="url(#paint14_linear)"/>
<path d="M597.887 787.616C597.943 788.382 597.731 789.142 597.292 789.754C597.02 790.003 596.702 790.19 596.359 790.304C596.015 790.417 595.653 790.455 595.295 790.415H593.955C593.592 790.422 593.23 790.369 592.882 790.257C592.713 790.185 592.57 790.057 592.473 789.894C592.377 789.73 592.332 789.538 592.346 789.346C592.346 789.151 592.409 788.962 592.525 788.811C592.589 788.738 592.668 788.681 592.755 788.643C592.843 788.605 592.937 788.587 593.031 788.591L593.895 788.78C594.218 788.861 594.547 788.913 594.878 788.937C595.3 788.982 595.725 788.895 596.1 788.685C596.331 788.303 596.426 787.846 596.368 787.396C596.366 787.212 596.303 787.034 596.189 786.893C596.132 786.817 596.06 786.755 595.977 786.711C595.895 786.668 595.805 786.644 595.713 786.642H594.819H594.104H593.836H593.359C593.211 786.655 593.063 786.633 592.924 786.579C592.785 786.525 592.659 786.439 592.554 786.327C592.391 786.068 592.317 785.757 592.346 785.447V784.755C592.346 784.472 592.346 784.127 592.346 783.749C592.346 783.372 592.346 783.058 592.346 782.775V782.083C592.337 781.858 592.4 781.637 592.525 781.454C592.582 781.361 592.662 781.286 592.757 781.236C592.851 781.187 592.956 781.164 593.061 781.171H593.329H593.657H594.282H596.189H596.934H597.232L597.47 781.36L597.649 781.643C597.666 781.747 597.666 781.853 597.649 781.957C597.658 782.104 597.623 782.251 597.548 782.375C597.473 782.5 597.362 782.596 597.232 782.649C596.986 782.697 596.733 782.697 596.487 782.649C595.683 782.6 594.878 782.6 594.074 782.649C593.925 782.649 593.836 782.649 593.836 782.9V783.655C593.836 783.655 593.836 783.969 593.836 784.095V784.441C593.836 784.724 593.836 784.881 593.836 784.944H595.921C596.207 784.915 596.495 784.97 596.752 785.103C597.01 785.236 597.228 785.442 597.381 785.699C597.716 786.275 597.892 786.94 597.887 787.616Z" fill="url(#paint15_linear)"/>
<path d="M605.285 787.73C605.324 788.118 605.279 788.509 605.154 788.877C605.028 789.244 604.825 789.578 604.559 789.854C603.926 790.289 603.168 790.487 602.411 790.416C600.687 790.416 599.78 789.573 599.75 787.855V781.985C599.743 781.876 599.758 781.767 599.795 781.665C599.831 781.563 599.888 781.47 599.961 781.391C600.113 781.256 600.305 781.179 600.506 781.173C600.611 781.163 600.718 781.178 600.817 781.215C600.917 781.253 601.007 781.312 601.082 781.389C601.157 781.467 601.215 781.56 601.251 781.663C601.287 781.766 601.301 781.876 601.292 781.985V784.795C601.292 784.982 601.292 785.045 601.534 785.045H602.351C603.139 784.964 603.932 785.139 604.619 785.545C604.874 785.839 605.066 786.186 605.18 786.563C605.295 786.94 605.331 787.338 605.285 787.73ZM603.772 787.73C603.791 787.544 603.791 787.355 603.772 787.168C603.754 787.026 603.69 786.894 603.592 786.792C603.494 786.691 603.366 786.626 603.228 786.606C603.058 786.572 602.884 786.572 602.714 786.606H601.625C601.538 786.63 601.463 786.685 601.413 786.762C601.326 786.802 601.253 786.867 601.201 786.95V787.668C601.173 787.896 601.173 788.127 601.201 788.355C601.201 788.699 601.685 788.886 602.29 788.886C602.646 788.912 603.002 788.837 603.319 788.667C603.46 788.545 603.574 788.392 603.652 788.219C603.731 788.047 603.772 787.859 603.772 787.668V787.73Z" fill="url(#paint16_linear)"/>
<path d="M612.072 782.36V789.598C612.071 789.809 611.987 790.013 611.837 790.169C611.76 790.248 611.666 790.311 611.562 790.355C611.458 790.398 611.346 790.422 611.232 790.423C611.114 790.439 610.993 790.429 610.879 790.393C610.765 790.357 610.662 790.296 610.577 790.216C610.493 790.136 610.429 790.039 610.391 789.931C610.353 789.824 610.342 789.71 610.359 789.598C610.359 787.407 610.359 785.281 610.359 783.249C610.355 783.179 610.336 783.111 610.302 783.049C610.269 782.986 610.223 782.931 610.166 782.887C610.109 782.842 610.043 782.809 609.973 782.789C609.902 782.77 609.827 782.764 609.754 782.773H606.764C606.654 782.788 606.542 782.779 606.437 782.746C606.332 782.713 606.237 782.657 606.159 782.582C606.077 782.503 606.014 782.408 605.974 782.304C605.933 782.2 605.916 782.09 605.924 781.979C605.921 781.879 605.941 781.779 605.982 781.686C606.022 781.593 606.082 781.509 606.159 781.44C606.328 781.302 606.541 781.224 606.764 781.217C608.017 781.154 609.273 781.154 610.527 781.217C610.954 781.193 611.381 781.27 611.77 781.44C611.9 781.556 611.996 781.701 612.049 781.863C612.102 782.024 612.11 782.195 612.072 782.36Z" fill="url(#paint17_linear)"/>
<path d="M618.757 787.739C618.803 788.135 618.772 788.536 618.667 788.918C618.562 789.299 618.384 789.652 618.146 789.955C617.486 790.268 616.773 790.43 616.053 790.43C615.333 790.43 614.62 790.268 613.96 789.955C613.723 789.651 613.547 789.298 613.442 788.917C613.337 788.535 613.305 788.134 613.35 787.739C613.303 787.277 613.394 786.811 613.611 786.41C613.909 786.153 614.231 785.931 614.571 785.746C614.37 785.702 614.179 785.615 614.009 785.49C613.839 785.365 613.694 785.204 613.582 785.018C613.466 784.619 613.437 784.197 613.495 783.783C613.453 783.4 613.495 783.011 613.616 782.649C613.737 782.286 613.934 781.959 614.193 781.695C614.791 781.287 615.497 781.109 616.198 781.188C616.912 781.123 617.626 781.312 618.233 781.726C618.471 782.004 618.651 782.335 618.761 782.695C618.871 783.055 618.909 783.437 618.873 783.815C618.895 784.259 618.825 784.702 618.669 785.113C618.419 785.442 618.085 785.684 617.71 785.809C618.086 785.951 618.425 786.19 618.698 786.505C618.792 786.908 618.812 787.328 618.757 787.739ZM617.303 787.739C617.303 787.328 616.925 786.948 616.111 786.632L615.617 786.885L615.297 787.075C615.169 787.151 615.06 787.26 614.979 787.392C614.898 787.524 614.847 787.676 614.832 787.834C614.832 788.657 615.239 789.069 616.082 789.069C616.419 789.106 616.758 789.017 617.041 788.815C617.16 788.646 617.245 788.451 617.29 788.244C617.335 788.037 617.339 787.822 617.303 787.613V787.739ZM617.303 783.752C617.321 783.596 617.302 783.438 617.245 783.293C617.189 783.149 617.099 783.023 616.983 782.929C616.725 782.778 616.432 782.712 616.14 782.739C615.829 782.707 615.517 782.773 615.239 782.929C615.111 783.034 615.011 783.175 614.95 783.336C614.889 783.497 614.868 783.674 614.89 783.847C614.872 784.109 614.944 784.368 615.094 784.575C615.264 784.747 615.461 784.887 615.675 784.986L616.14 785.208H616.373H616.605C616.753 785.135 616.89 785.039 617.012 784.923C617.139 784.771 617.23 784.588 617.276 784.389C617.321 784.19 617.321 783.982 617.274 783.783L617.303 783.752Z" fill="url(#paint18_linear)"/>
<path d="M498.469 745.363H480.014C479.187 745.363 478.393 745.04 477.808 744.465C477.223 743.89 476.895 743.11 476.895 742.297V726.822C476.895 726.009 477.223 725.229 477.808 724.654C478.393 724.079 479.187 723.756 480.014 723.756H498.469C499.297 723.757 500.092 724.076 500.685 724.644C501.015 724.993 501.272 725.402 501.443 725.848C501.537 726.165 501.586 726.492 501.589 726.822V742.297C501.589 743.11 501.26 743.89 500.675 744.465C500.09 745.04 499.297 745.363 498.469 745.363Z" fill="url(#paint19_linear)"/>
<g style="mix-blend-mode:multiply">
<path style="mix-blend-mode:multiply" d="M491.276 730.594H487.136C486.431 730.594 485.756 730.874 485.258 731.372C484.76 731.87 484.48 732.545 484.48 733.249V737.39C484.48 738.094 484.76 738.77 485.258 739.268C485.756 739.766 486.431 740.046 487.136 740.046H491.276C491.98 740.046 492.655 739.766 493.153 739.268C493.651 738.77 493.931 738.094 493.931 737.39V733.249C493.931 732.545 493.651 731.87 493.153 731.372C492.655 730.874 491.98 730.594 491.276 730.594ZM493.617 737.39C493.617 738.011 493.37 738.607 492.931 739.046C492.492 739.485 491.896 739.732 491.276 739.732H487.136C486.515 739.732 485.919 739.485 485.48 739.046C485.041 738.607 484.795 738.011 484.795 737.39V733.249C484.817 732.643 485.073 732.07 485.51 731.649C485.946 731.228 486.529 730.993 487.136 730.994H491.276C491.896 730.994 492.492 731.24 492.931 731.679C493.37 732.119 493.617 732.714 493.617 733.335V737.39Z" fill="url(#paint20_linear)"/>
<path style="mix-blend-mode:multiply" d="M494.813 741.902C494.193 741.902 493.597 741.655 493.158 741.216C492.719 740.777 492.472 740.182 492.472 739.561H492.158C492.158 740.265 492.438 740.94 492.936 741.438C493.434 741.936 494.109 742.216 494.813 742.216H501.294V741.902H494.813Z" fill="url(#paint21_linear)"/>
<path style="mix-blend-mode:multiply" d="M492.929 728.31C492.441 728.805 492.165 729.471 492.158 730.166V730.994H492.472V730.08C492.481 729.461 492.726 728.868 493.157 728.424C493.601 727.995 494.196 727.759 494.813 727.767H501.294V727.453H494.813C494.457 727.459 494.106 727.538 493.782 727.686C493.458 727.833 493.168 728.045 492.929 728.31Z" fill="url(#paint22_linear)"/>
<path style="mix-blend-mode:multiply" d="M483.594 727.853C484.21 727.853 484.801 728.096 485.24 728.529C485.678 728.962 485.928 729.55 485.935 730.166V730.994H486.25V730.309C486.242 729.609 485.959 728.941 485.462 728.449C484.965 727.957 484.294 727.682 483.594 727.682H477.113V727.996L483.594 727.853Z" fill="url(#paint23_linear)"/>
<path style="mix-blend-mode:multiply" d="M485.477 741.446C485.643 741.274 485.787 741.082 485.905 740.875C486.119 740.479 486.236 740.039 486.248 739.59H485.934C485.935 740.001 485.826 740.405 485.619 740.761C485.521 740.941 485.396 741.104 485.248 741.246C484.794 741.662 484.208 741.904 483.592 741.931H477.111V742.246H483.621C484.313 742.202 484.969 741.919 485.477 741.446Z" fill="url(#paint24_linear)"/>
<path style="mix-blend-mode:multiply" d="M493.756 732.936V733.25H501.293V732.936H493.756Z" fill="url(#paint25_linear)"/>
<path style="mix-blend-mode:multiply" d="M493.756 736.707V737.021H501.293V736.707H493.756Z" fill="url(#paint26_linear)"/>
<path style="mix-blend-mode:multiply" d="M484.621 732.936H477.084V733.25H484.621V732.936Z" fill="url(#paint27_linear)"/>
<path style="mix-blend-mode:multiply" d="M484.621 736.82H477.084V737.134H484.621V736.82Z" fill="url(#paint28_linear)"/>
</g>
<path d="M598.67 731.412C599.14 732.314 599.383 733.29 599.383 734.277C599.383 735.264 599.14 736.241 598.67 737.142C598.594 737.252 598.545 737.373 598.526 737.499C598.507 737.625 598.518 737.753 598.559 737.875C598.599 737.997 598.669 738.111 598.763 738.209C598.857 738.308 598.974 738.389 599.106 738.447C599.361 738.57 599.661 738.604 599.944 738.543C600.228 738.483 600.473 738.332 600.631 738.121C601.27 736.913 601.6 735.603 601.6 734.277C601.6 732.952 601.27 731.641 600.631 730.434C600.562 730.321 600.468 730.221 600.353 730.14C600.238 730.06 600.105 730 599.962 729.966C599.819 729.931 599.67 729.921 599.523 729.937C599.375 729.954 599.233 729.996 599.106 730.061C598.972 730.124 598.854 730.209 598.76 730.312C598.665 730.414 598.595 730.532 598.555 730.658C598.514 730.784 598.504 730.915 598.523 731.045C598.543 731.174 598.593 731.299 598.67 731.412Z" fill="#E6E6E6"/>
<path d="M603.453 729.139C604.027 730.91 604.277 732.84 604.183 734.767C604.117 735.676 603.995 736.576 603.818 737.458L603.599 738.388V738.779C603.599 738.534 603.599 738.779 603.599 738.779C603.5 739.036 603.475 739.333 603.529 739.612C603.583 739.892 603.712 740.136 603.891 740.296C604.077 740.426 604.292 740.458 604.495 740.385C604.697 740.313 604.872 740.141 604.985 739.905C605.603 738.032 605.923 736.007 605.923 733.959C605.923 731.911 605.603 729.886 604.985 728.014C604.936 727.887 604.868 727.775 604.785 727.685C604.701 727.596 604.605 727.531 604.502 727.494C604.399 727.457 604.292 727.449 604.186 727.471C604.081 727.493 603.98 727.545 603.891 727.622C603.707 727.765 603.574 728 603.519 728.275C603.464 728.551 603.493 728.843 603.599 729.09L603.453 729.139Z" fill="#E6E6E6"/>
<path d="M607.839 726.902C609.522 731.651 609.522 736.764 607.839 741.514C607.797 741.651 607.785 741.795 607.804 741.937C607.823 742.079 607.872 742.216 607.949 742.34C608.026 742.464 608.129 742.574 608.252 742.662C608.375 742.75 608.516 742.815 608.667 742.853C608.818 742.892 608.976 742.903 609.131 742.885C609.287 742.868 609.437 742.823 609.573 742.753C609.71 742.683 609.83 742.589 609.926 742.477C610.023 742.365 610.094 742.236 610.136 742.098C611.925 736.981 611.925 731.483 610.136 726.366C609.656 725.051 607.358 725.586 607.839 726.902Z" fill="#E6E6E6"/>
<path d="M612.772 725.185C614.497 730.873 614.497 736.949 612.772 742.637C612.686 742.934 612.722 743.254 612.87 743.525C613.019 743.796 613.269 743.997 613.565 744.083C613.861 744.169 614.179 744.133 614.449 743.983C614.718 743.834 614.918 743.582 615.003 743.285C616.888 737.196 616.888 730.675 615.003 724.586C614.557 723.14 612.325 723.739 612.772 725.185Z" fill="#E6E6E6"/>
<path d="M419.014 704H279.248C278.666 704 278.082 704 277.501 704.003C277.01 704.007 276.52 704.012 276.03 704.026C274.961 704.055 273.883 704.118 272.828 704.307C271.756 704.5 270.758 704.815 269.785 705.311C268.828 705.797 267.952 706.434 267.192 707.193C266.433 707.953 265.796 708.828 265.31 709.786C264.814 710.759 264.499 711.757 264.307 712.83C264.117 713.886 264.053 714.964 264.024 716.031C264.011 716.521 264.006 717.011 264.002 717.501C263.999 718.084 264 718.665 264 719.249V797.752C264 798.336 263.999 798.917 264.002 799.5C264.006 799.99 264.011 800.48 264.024 800.97C264.053 802.037 264.117 803.114 264.307 804.17C264.499 805.243 264.814 806.241 265.31 807.215C265.796 808.172 266.433 809.048 267.192 809.807C267.952 810.567 268.828 811.204 269.785 811.689C270.758 812.186 271.756 812.501 272.828 812.694C273.883 812.882 274.961 812.947 276.03 812.976C276.52 812.987 277.01 812.993 277.501 812.995C278.082 813 278.666 813 279.248 813H419.014C419.595 813 420.178 813 420.759 812.995C421.249 812.993 421.739 812.987 422.232 812.976C423.298 812.947 424.376 812.882 425.434 812.694C426.505 812.501 427.503 812.186 428.476 811.689C429.434 811.204 430.308 810.567 431.068 809.807C431.827 809.048 432.463 808.172 432.951 807.215C433.448 806.241 433.763 805.243 433.953 804.17C434.144 803.114 434.206 802.037 434.235 800.97C434.248 800.48 434.255 799.99 434.257 799.5C434.262 798.917 434.262 798.336 434.262 797.752V719.249C434.262 718.665 434.262 718.084 434.257 717.501C434.255 717.011 434.248 716.521 434.235 716.031C434.206 714.964 434.144 713.886 433.953 712.83C433.763 711.757 433.448 710.759 432.951 709.786C432.463 708.828 431.827 707.953 431.068 707.193C430.308 706.434 429.434 705.797 428.476 705.311C427.503 704.815 426.505 704.5 425.434 704.307C424.376 704.118 423.298 704.055 422.232 704.026C421.739 704.012 421.249 704.007 420.759 704.003C420.178 704 419.595 704 419.014 704Z" fill="black"/>
<path d="M419.012 707.633L420.731 707.636C421.197 707.639 421.663 707.644 422.131 707.657C422.946 707.679 423.899 707.723 424.787 707.883C425.559 708.022 426.207 708.233 426.828 708.55C427.442 708.861 428.004 709.27 428.495 709.76C428.988 710.253 429.397 710.817 429.713 711.437C430.027 712.054 430.238 712.698 430.376 713.476C430.535 714.355 430.578 715.31 430.601 716.13C430.613 716.593 430.62 717.055 430.622 717.529C430.626 718.102 430.626 718.674 430.626 719.248V797.752C430.626 798.326 430.626 798.897 430.622 799.483C430.62 799.945 430.613 800.408 430.601 800.871C430.578 801.69 430.535 802.645 430.374 803.534C430.237 804.301 430.027 804.946 429.711 805.566C429.396 806.184 428.988 806.747 428.497 807.237C428.003 807.731 427.443 808.138 426.822 808.453C426.205 808.768 425.559 808.979 424.794 809.117C423.888 809.278 422.895 809.323 422.147 809.343C421.677 809.354 421.208 809.36 420.729 809.362C420.157 809.367 419.583 809.366 419.012 809.366H279.245C279.238 809.366 279.23 809.366 279.223 809.366C278.657 809.366 278.091 809.366 277.516 809.362C277.047 809.36 276.578 809.354 276.126 809.343C275.361 809.323 274.367 809.278 273.468 809.118C272.697 808.979 272.051 808.768 271.426 808.449C270.811 808.137 270.251 807.73 269.757 807.235C269.267 806.746 268.86 806.185 268.545 805.566C268.23 804.947 268.019 804.3 267.88 803.524C267.72 802.636 267.676 801.685 267.654 800.872C267.641 800.407 267.636 799.941 267.633 799.479L267.631 798.113L267.631 797.752V719.248L267.631 718.888L267.633 717.525C267.636 717.059 267.641 716.594 267.654 716.129C267.676 715.315 267.72 714.363 267.882 713.469C268.019 712.699 268.23 712.053 268.547 711.431C268.859 710.816 269.267 710.254 269.76 709.762C270.25 709.271 270.812 708.863 271.431 708.548C272.049 708.233 272.697 708.022 273.468 707.883C274.357 707.723 275.31 707.679 276.127 707.657C276.593 707.644 277.058 707.639 277.52 707.636L279.245 707.633H419.012" fill="white"/>
<path d="M310.482 740.66C311.94 738.837 312.929 736.389 312.668 733.887C310.534 733.993 307.93 735.295 306.422 737.119C305.069 738.682 303.871 741.233 304.183 743.63C306.578 743.838 308.972 742.433 310.482 740.66Z" fill="black"/>
<path d="M312.641 744.098C309.162 743.891 306.204 746.072 304.543 746.072C302.881 746.072 300.337 744.202 297.585 744.253C294.003 744.305 290.68 746.33 288.863 749.551C285.125 755.994 287.876 765.551 291.512 770.799C293.277 773.395 295.404 776.253 298.208 776.151C300.856 776.047 301.895 774.435 305.114 774.435C308.331 774.435 309.267 776.151 312.07 776.099C314.978 776.047 316.796 773.501 318.561 770.903C320.586 767.943 321.415 765.086 321.467 764.929C321.415 764.877 315.861 762.746 315.809 756.357C315.757 751.007 320.17 748.462 320.378 748.304C317.886 744.618 313.991 744.202 312.641 744.098Z" fill="black"/>
<path d="M342.937 736.857C350.498 736.857 355.763 742.07 355.763 749.658C355.763 757.274 350.39 762.513 342.747 762.513H334.375V775.827H328.326V736.857H342.937V736.857ZM334.375 757.436H341.316C346.582 757.436 349.579 754.601 349.579 749.685C349.579 744.771 346.582 741.962 341.343 741.962H334.375V757.436V757.436Z" fill="black"/>
<path d="M357.342 767.755C357.342 762.786 361.15 759.734 367.902 759.356L375.679 758.897V756.71C375.679 753.55 373.545 751.66 369.981 751.66C366.605 751.66 364.498 753.28 363.985 755.818H358.476C358.8 750.687 363.175 746.906 370.197 746.906C377.083 746.906 381.485 750.552 381.485 756.25V775.83H375.894V771.158H375.76C374.113 774.317 370.521 776.316 366.794 776.316C361.231 776.316 357.342 772.859 357.342 767.755ZM375.679 765.19V762.948L368.684 763.38C365.2 763.623 363.229 765.163 363.229 767.593C363.229 770.077 365.281 771.698 368.414 771.698C372.492 771.698 375.679 768.889 375.679 765.19Z" fill="black"/>
<path d="M386.762 786.278V781.552C387.193 781.659 388.165 781.659 388.652 781.659C391.352 781.659 392.811 780.525 393.701 777.609C393.701 777.555 394.215 775.881 394.215 775.853L383.953 747.416H390.272L397.456 770.533H397.563L404.748 747.416H410.905L400.264 777.311C397.834 784.198 395.026 786.413 389.138 786.413C388.652 786.413 387.193 786.359 386.762 786.278Z" fill="black"/>
<defs>
<linearGradient id="paint0_linear" x1="449.494" y1="119.342" x2="449.494" y2="148.742" gradientUnits="userSpaceOnUse">
<stop stop-color="#FF7436"/>
<stop offset="1" stop-color="#FF4B1F"/>
</linearGradient>
<linearGradient id="paint1_linear" x1="312.307" y1="164.914" x2="312.307" y2="207.095" gradientUnits="userSpaceOnUse">
<stop stop-color="#FF7436"/>
<stop offset="1" stop-color="#FF4B1F"/>
</linearGradient>
<linearGradient id="paint2_linear" x1="593.913" y1="667.924" x2="519.454" y2="798.525" gradientUnits="userSpaceOnUse">
<stop stop-color="#4D4D4D"/>
<stop offset="1" stop-color="#1A1A1A"/>
</linearGradient>
<linearGradient id="paint3_linear" x1="575.364" y1="1060.89" x2="575.364" y2="1082.19" gradientUnits="userSpaceOnUse">
<stop stop-color="#E6E6E6"/>
<stop offset="0.05" stop-color="#EBEBEB"/>
<stop offset="0.19" stop-color="#F2F2F2"/>
<stop offset="0.21" stop-color="#F0F0F0"/>
<stop offset="0.36" stop-color="#E6E6E6"/>
<stop offset="0.48" stop-color="#E6E6E6"/>
<stop offset="0.54" stop-color="#EFEFEF"/>
<stop offset="0.67" stop-color="#FBFBFB"/>
<stop offset="0.79" stop-color="white"/>
<stop offset="0.83" stop-color="#F9F9F9"/>
<stop offset="0.89" stop-color="#E9E9E9"/>
<stop offset="0.95" stop-color="#CFCFCF"/>
<stop offset="1" stop-color="#B3B3B3"/>
</linearGradient>
<linearGradient id="paint4_linear" x1="596.601" y1="1060.89" x2="596.601" y2="1082.19" gradientUnits="userSpaceOnUse">
<stop stop-color="#E6E6E6"/>
<stop offset="0.05" stop-color="#EBEBEB"/>
<stop offset="0.19" stop-color="#F2F2F2"/>
<stop offset="0.21" stop-color="#F0F0F0"/>
<stop offset="0.36" stop-color="#E6E6E6"/>
<stop offset="0.48" stop-color="#E6E6E6"/>
<stop offset="0.54" stop-color="#EFEFEF"/>
<stop offset="0.67" stop-color="#FBFBFB"/>
<stop offset="0.79" stop-color="white"/>
<stop offset="0.83" stop-color="#F9F9F9"/>
<stop offset="0.89" stop-color="#E9E9E9"/>
<stop offset="0.95" stop-color="#CFCFCF"/>
<stop offset="1" stop-color="#B3B3B3"/>
</linearGradient>
<linearGradient id="paint5_linear" x1="629.58" y1="1078.88" x2="629.58" y2="1101.6" gradientUnits="userSpaceOnUse">
<stop stop-color="#E6E6E6"/>
<stop offset="0.05" stop-color="#EBEBEB"/>
<stop offset="0.19" stop-color="#F2F2F2"/>
<stop offset="0.21" stop-color="#F0F0F0"/>
<stop offset="0.36" stop-color="#E6E6E6"/>
<stop offset="0.48" stop-color="#E6E6E6"/>
<stop offset="0.54" stop-color="#EFEFEF"/>
<stop offset="0.67" stop-color="#FBFBFB"/>
<stop offset="0.79" stop-color="white"/>
<stop offset="0.83" stop-color="#F9F9F9"/>
<stop offset="0.89" stop-color="#E9E9E9"/>
<stop offset="0.95" stop-color="#CFCFCF"/>
<stop offset="1" stop-color="#B3B3B3"/>
</linearGradient>
<linearGradient id="paint6_linear" x1="638.458" y1="1042.29" x2="638.458" y2="1062.17" gradientUnits="userSpaceOnUse">
<stop stop-color="#E6E6E6"/>
<stop offset="0.05" stop-color="#EBEBEB"/>
<stop offset="0.19" stop-color="#F2F2F2"/>
<stop offset="0.21" stop-color="#F0F0F0"/>
<stop offset="0.36" stop-color="#E6E6E6"/>
<stop offset="0.48" stop-color="#E6E6E6"/>
<stop offset="0.54" stop-color="#EFEFEF"/>
<stop offset="0.67" stop-color="#FBFBFB"/>
<stop offset="0.79" stop-color="white"/>
<stop offset="0.83" stop-color="#F9F9F9"/>
<stop offset="0.89" stop-color="#E9E9E9"/>
<stop offset="0.95" stop-color="#CFCFCF"/>
<stop offset="1" stop-color="#B3B3B3"/>
</linearGradient>
<linearGradient id="paint7_linear" x1="669.035" y1="1060.89" x2="669.035" y2="1082.19" gradientUnits="userSpaceOnUse">
<stop stop-color="#E6E6E6"/>
<stop offset="0.05" stop-color="#EBEBEB"/>
<stop offset="0.19" stop-color="#F2F2F2"/>
<stop offset="0.21" stop-color="#F0F0F0"/>
<stop offset="0.36" stop-color="#E6E6E6"/>
<stop offset="0.48" stop-color="#E6E6E6"/>
<stop offset="0.54" stop-color="#EFEFEF"/>
<stop offset="0.67" stop-color="#FBFBFB"/>
<stop offset="0.79" stop-color="white"/>
<stop offset="0.83" stop-color="#F9F9F9"/>
<stop offset="0.89" stop-color="#E9E9E9"/>
<stop offset="0.95" stop-color="#CFCFCF"/>
<stop offset="1" stop-color="#B3B3B3"/>
</linearGradient>
<linearGradient id="paint8_linear" x1="670.498" y1="1060.89" x2="670.498" y2="1082.19" gradientUnits="userSpaceOnUse">
<stop stop-color="#E6E6E6"/>
<stop offset="0.05" stop-color="#EBEBEB"/>
<stop offset="0.19" stop-color="#F2F2F2"/>
<stop offset="0.21" stop-color="#F0F0F0"/>
<stop offset="0.36" stop-color="#E6E6E6"/>
<stop offset="0.48" stop-color="#E6E6E6"/>
<stop offset="0.54" stop-color="#EFEFEF"/>
<stop offset="0.67" stop-color="#FBFBFB"/>
<stop offset="0.79" stop-color="white"/>
<stop offset="0.83" stop-color="#F9F9F9"/>
<stop offset="0.89" stop-color="#E9E9E9"/>
<stop offset="0.95" stop-color="#CFCFCF"/>
<stop offset="1" stop-color="#B3B3B3"/>
</linearGradient>
<linearGradient id="paint9_linear" x1="708.071" y1="1060.89" x2="708.071" y2="1082.19" gradientUnits="userSpaceOnUse">
<stop stop-color="#E6E6E6"/>
<stop offset="0.05" stop-color="#EBEBEB"/>
<stop offset="0.19" stop-color="#F2F2F2"/>
<stop offset="0.21" stop-color="#F0F0F0"/>
<stop offset="0.36" stop-color="#E6E6E6"/>
<stop offset="0.48" stop-color="#E6E6E6"/>
<stop offset="0.54" stop-color="#EFEFEF"/>
<stop offset="0.67" stop-color="#FBFBFB"/>
<stop offset="0.79" stop-color="white"/>
<stop offset="0.83" stop-color="#F9F9F9"/>
<stop offset="0.89" stop-color="#E9E9E9"/>
<stop offset="0.95" stop-color="#CFCFCF"/>
<stop offset="1" stop-color="#B3B3B3"/>
</linearGradient>
<linearGradient id="paint10_linear" x1="729.103" y1="1060.28" x2="729.103" y2="1081.58" gradientUnits="userSpaceOnUse">
<stop stop-color="#E6E6E6"/>
<stop offset="0.05" stop-color="#EBEBEB"/>
<stop offset="0.19" stop-color="#F2F2F2"/>
<stop offset="0.21" stop-color="#F0F0F0"/>
<stop offset="0.36" stop-color="#E6E6E6"/>
<stop offset="0.48" stop-color="#E6E6E6"/>
<stop offset="0.54" stop-color="#EFEFEF"/>
<stop offset="0.67" stop-color="#FBFBFB"/>
<stop offset="0.79" stop-color="white"/>
<stop offset="0.83" stop-color="#F9F9F9"/>
<stop offset="0.89" stop-color="#E9E9E9"/>
<stop offset="0.95" stop-color="#CFCFCF"/>
<stop offset="1" stop-color="#B3B3B3"/>
</linearGradient>
<linearGradient id="paint11_linear" x1="798.354" y1="1041.67" x2="798.354" y2="1061.55" gradientUnits="userSpaceOnUse">
<stop stop-color="#E6E6E6"/>
<stop offset="0.05" stop-color="#EBEBEB"/>
<stop offset="0.19" stop-color="#F2F2F2"/>
<stop offset="0.21" stop-color="#F0F0F0"/>
<stop offset="0.36" stop-color="#E6E6E6"/>
<stop offset="0.48" stop-color="#E6E6E6"/>
<stop offset="0.54" stop-color="#EFEFEF"/>
<stop offset="0.67" stop-color="#FBFBFB"/>
<stop offset="0.79" stop-color="white"/>
<stop offset="0.83" stop-color="#F9F9F9"/>
<stop offset="0.89" stop-color="#E9E9E9"/>
<stop offset="0.95" stop-color="#CFCFCF"/>
<stop offset="1" stop-color="#B3B3B3"/>
</linearGradient>
<linearGradient id="paint12_linear" x1="818.91" y1="1060.28" x2="818.91" y2="1081.58" gradientUnits="userSpaceOnUse">
<stop stop-color="#E6E6E6"/>
<stop offset="0.05" stop-color="#EBEBEB"/>
<stop offset="0.19" stop-color="#F2F2F2"/>
<stop offset="0.21" stop-color="#F0F0F0"/>
<stop offset="0.36" stop-color="#E6E6E6"/>
<stop offset="0.48" stop-color="#E6E6E6"/>
<stop offset="0.54" stop-color="#EFEFEF"/>
<stop offset="0.67" stop-color="#FBFBFB"/>
<stop offset="0.79" stop-color="white"/>
<stop offset="0.83" stop-color="#F9F9F9"/>
<stop offset="0.89" stop-color="#E9E9E9"/>
<stop offset="0.95" stop-color="#CFCFCF"/>
<stop offset="1" stop-color="#B3B3B3"/>
</linearGradient>
<linearGradient id="paint13_linear" x1="866.527" y1="1059.66" x2="866.527" y2="1080.96" gradientUnits="userSpaceOnUse">
<stop stop-color="#E6E6E6"/>
<stop offset="0.05" stop-color="#EBEBEB"/>
<stop offset="0.19" stop-color="#F2F2F2"/>
<stop offset="0.21" stop-color="#F0F0F0"/>
<stop offset="0.36" stop-color="#E6E6E6"/>
<stop offset="0.48" stop-color="#E6E6E6"/>
<stop offset="0.54" stop-color="#EFEFEF"/>
<stop offset="0.67" stop-color="#FBFBFB"/>
<stop offset="0.79" stop-color="white"/>
<stop offset="0.83" stop-color="#F9F9F9"/>
<stop offset="0.89" stop-color="#E9E9E9"/>
<stop offset="0.95" stop-color="#CFCFCF"/>
<stop offset="1" stop-color="#B3B3B3"/>
</linearGradient>
<linearGradient id="paint14_linear" x1="832.319" y1="1041.67" x2="832.319" y2="1061.55" gradientUnits="userSpaceOnUse">
<stop stop-color="#E6E6E6"/>
<stop offset="0.05" stop-color="#EBEBEB"/>
<stop offset="0.19" stop-color="#F2F2F2"/>
<stop offset="0.21" stop-color="#F0F0F0"/>
<stop offset="0.36" stop-color="#E6E6E6"/>
<stop offset="0.48" stop-color="#E6E6E6"/>
<stop offset="0.54" stop-color="#EFEFEF"/>
<stop offset="0.67" stop-color="#FBFBFB"/>
<stop offset="0.79" stop-color="white"/>
<stop offset="0.83" stop-color="#F9F9F9"/>
<stop offset="0.89" stop-color="#E9E9E9"/>
<stop offset="0.95" stop-color="#CFCFCF"/>
<stop offset="1" stop-color="#B3B3B3"/>
</linearGradient>
<linearGradient id="paint15_linear" x1="876.762" y1="1060.28" x2="876.762" y2="1081.58" gradientUnits="userSpaceOnUse">
<stop stop-color="#E6E6E6"/>
<stop offset="0.05" stop-color="#EBEBEB"/>
<stop offset="0.19" stop-color="#F2F2F2"/>
<stop offset="0.21" stop-color="#F0F0F0"/>
<stop offset="0.36" stop-color="#E6E6E6"/>
<stop offset="0.48" stop-color="#E6E6E6"/>
<stop offset="0.54" stop-color="#EFEFEF"/>
<stop offset="0.67" stop-color="#FBFBFB"/>
<stop offset="0.79" stop-color="white"/>
<stop offset="0.83" stop-color="#F9F9F9"/>
<stop offset="0.89" stop-color="#E9E9E9"/>
<stop offset="0.95" stop-color="#CFCFCF"/>
<stop offset="1" stop-color="#B3B3B3"/>
</linearGradient>
<linearGradient id="paint16_linear" x1="896.56" y1="1060.28" x2="896.56" y2="1081.58" gradientUnits="userSpaceOnUse">
<stop stop-color="#E6E6E6"/>
<stop offset="0.05" stop-color="#EBEBEB"/>
<stop offset="0.19" stop-color="#F2F2F2"/>
<stop offset="0.21" stop-color="#F0F0F0"/>
<stop offset="0.36" stop-color="#E6E6E6"/>
<stop offset="0.48" stop-color="#E6E6E6"/>
<stop offset="0.54" stop-color="#EFEFEF"/>
<stop offset="0.67" stop-color="#FBFBFB"/>
<stop offset="0.79" stop-color="white"/>
<stop offset="0.83" stop-color="#F9F9F9"/>
<stop offset="0.89" stop-color="#E9E9E9"/>
<stop offset="0.95" stop-color="#CFCFCF"/>
<stop offset="1" stop-color="#B3B3B3"/>
</linearGradient>
<linearGradient id="paint17_linear" x1="949.48" y1="1060.28" x2="949.48" y2="1081.58" gradientUnits="userSpaceOnUse">
<stop stop-color="#E6E6E6"/>
<stop offset="0.05" stop-color="#EBEBEB"/>
<stop offset="0.19" stop-color="#F2F2F2"/>
<stop offset="0.21" stop-color="#F0F0F0"/>
<stop offset="0.36" stop-color="#E6E6E6"/>
<stop offset="0.48" stop-color="#E6E6E6"/>
<stop offset="0.54" stop-color="#EFEFEF"/>
<stop offset="0.67" stop-color="#FBFBFB"/>
<stop offset="0.79" stop-color="white"/>
<stop offset="0.83" stop-color="#F9F9F9"/>
<stop offset="0.89" stop-color="#E9E9E9"/>
<stop offset="0.95" stop-color="#CFCFCF"/>
<stop offset="1" stop-color="#B3B3B3"/>
</linearGradient>
<linearGradient id="paint18_linear" x1="934.923" y1="1060.28" x2="934.923" y2="1081.58" gradientUnits="userSpaceOnUse">
<stop stop-color="#E6E6E6"/>
<stop offset="0.05" stop-color="#EBEBEB"/>
<stop offset="0.19" stop-color="#F2F2F2"/>
<stop offset="0.21" stop-color="#F0F0F0"/>
<stop offset="0.36" stop-color="#E6E6E6"/>
<stop offset="0.48" stop-color="#E6E6E6"/>
<stop offset="0.54" stop-color="#EFEFEF"/>
<stop offset="0.67" stop-color="#FBFBFB"/>
<stop offset="0.79" stop-color="white"/>
<stop offset="0.83" stop-color="#F9F9F9"/>
<stop offset="0.89" stop-color="#E9E9E9"/>
<stop offset="0.95" stop-color="#CFCFCF"/>
<stop offset="1" stop-color="#B3B3B3"/>
</linearGradient>
<linearGradient id="paint19_linear" x1="1030.05" y1="1225.48" x2="801.961" y2="1298.1" gradientUnits="userSpaceOnUse">
<stop stop-color="#FAD07B"/>
<stop offset="1" stop-color="#FBB039"/>
</linearGradient>
<linearGradient id="paint20_linear" x1="583.709" y1="1007.82" x2="652.23" y2="966.718" gradientUnits="userSpaceOnUse">
<stop stop-color="#825523"/>
<stop offset="1" stop-color="#D0B371"/>
</linearGradient>
<linearGradient id="paint21_linear" x1="647.292" y1="816.497" x2="653.948" y2="802.838" gradientUnits="userSpaceOnUse">
<stop stop-color="#825523"/>
<stop offset="1" stop-color="#D0B371"/>
</linearGradient>
<linearGradient id="paint22_linear" x1="631.76" y1="817.96" x2="645.913" y2="796.107" gradientUnits="userSpaceOnUse">
<stop stop-color="#825523"/>
<stop offset="1" stop-color="#D0B371"/>
</linearGradient>
<linearGradient id="paint23_linear" x1="603.833" y1="805.791" x2="613.139" y2="790.391" gradientUnits="userSpaceOnUse">
<stop stop-color="#825523"/>
<stop offset="1" stop-color="#D0B371"/>
</linearGradient>
<linearGradient id="paint24_linear" x1="597.892" y1="814.667" x2="606.569" y2="796.773" gradientUnits="userSpaceOnUse">
<stop stop-color="#825523"/>
<stop offset="1" stop-color="#D0B371"/>
</linearGradient>
<linearGradient id="paint25_linear" x1="605.536" y1="741.634" x2="605.747" y2="738.597" gradientUnits="userSpaceOnUse">
<stop stop-color="#825523"/>
<stop offset="1" stop-color="#D0B371"/>
</linearGradient>
<linearGradient id="paint26_linear" x1="608.249" y1="745.766" x2="608.459" y2="742.739" gradientUnits="userSpaceOnUse">
<stop stop-color="#825523"/>
<stop offset="1" stop-color="#D0B371"/>
</linearGradient>
<linearGradient id="paint27_linear" x1="618.259" y1="742.809" x2="618.471" y2="739.771" gradientUnits="userSpaceOnUse">
<stop stop-color="#825523"/>
<stop offset="1" stop-color="#D0B371"/>
</linearGradient>
<linearGradient id="paint28_linear" x1="620.973" y1="747.051" x2="621.183" y2="744.024" gradientUnits="userSpaceOnUse">
<stop stop-color="#825523"/>
<stop offset="1" stop-color="#D0B371"/>
</linearGradient>
<clipPath id="clip0">
<rect width="684" height="615.133" fill="white"/>
</clipPath>
<clipPath id="clip1">
<rect width="149.052" height="30.7475" fill="white" transform="translate(434.857 119.219)"/>
</clipPath>
</defs>
</svg>
